G04 #@! TF.GenerationSoftware,KiCad,Pcbnew,(5.1.2)-1*
G04 #@! TF.CreationDate,2019-07-09T02:23:16-04:00*
G04 #@! TF.ProjectId,Robot Tank,526f626f-7420-4546-916e-6b2e6b696361,rev?*
G04 #@! TF.SameCoordinates,Original*
G04 #@! TF.FileFunction,Copper,L2,Bot*
G04 #@! TF.FilePolarity,Positive*
%FSLAX46Y46*%
G04 Gerber Fmt 4.6, Leading zero omitted, Abs format (unit mm)*
G04 Created by KiCad (PCBNEW (5.1.2)-1) date 2019-07-09 02:23:16*
%MOMM*%
%LPD*%
G04 APERTURE LIST*
%ADD10C,0.100000*%
%ADD11C,0.150000*%
%ADD12C,0.300000*%
%ADD13C,0.400000*%
%ADD14C,3.800000*%
%ADD15O,1.700000X1.700000*%
%ADD16R,1.700000X1.700000*%
%ADD17C,1.800000*%
%ADD18R,1.800000X1.800000*%
%ADD19C,1.000000*%
%ADD20C,0.250000*%
%ADD21C,0.760000*%
%ADD22C,0.254000*%
G04 APERTURE END LIST*
D10*
D11*
X177002200Y-166007200D02*
X177002200Y-198007200D01*
X285002200Y-198007200D01*
X285002200Y-166007200D01*
X177002200Y-166007200D01*
D10*
D11*
X10000000Y-10000000D02*
X10000000Y-200007200D01*
X287002200Y-200007200D01*
X287002200Y-10000000D01*
X10000000Y-10000000D01*
D10*
D11*
X12000000Y-12000000D02*
X12000000Y-198007200D01*
X285002200Y-198007200D01*
X285002200Y-12000000D01*
X12000000Y-12000000D01*
D10*
D11*
X60000000Y-12000000D02*
X60000000Y-10000000D01*
D10*
D11*
X110000000Y-12000000D02*
X110000000Y-10000000D01*
D10*
D11*
X160000000Y-12000000D02*
X160000000Y-10000000D01*
D10*
D11*
X210000000Y-12000000D02*
X210000000Y-10000000D01*
D10*
D11*
X260000000Y-12000000D02*
X260000000Y-10000000D01*
D10*
D11*
X36065476Y-11588095D02*
X35322619Y-11588095D01*
X35694047Y-11588095D02*
X35694047Y-10288095D01*
X35570238Y-10473809D01*
X35446428Y-10597619D01*
X35322619Y-10659523D01*
D10*
D11*
X85322619Y-10411904D02*
X85384523Y-10350000D01*
X85508333Y-10288095D01*
X85817857Y-10288095D01*
X85941666Y-10350000D01*
X86003571Y-10411904D01*
X86065476Y-10535714D01*
X86065476Y-10659523D01*
X86003571Y-10845238D01*
X85260714Y-11588095D01*
X86065476Y-11588095D01*
D10*
D11*
X135260714Y-10288095D02*
X136065476Y-10288095D01*
X135632142Y-10783333D01*
X135817857Y-10783333D01*
X135941666Y-10845238D01*
X136003571Y-10907142D01*
X136065476Y-11030952D01*
X136065476Y-11340476D01*
X136003571Y-11464285D01*
X135941666Y-11526190D01*
X135817857Y-11588095D01*
X135446428Y-11588095D01*
X135322619Y-11526190D01*
X135260714Y-11464285D01*
D10*
D11*
X185941666Y-10721428D02*
X185941666Y-11588095D01*
X185632142Y-10226190D02*
X185322619Y-11154761D01*
X186127380Y-11154761D01*
D10*
D11*
X236003571Y-10288095D02*
X235384523Y-10288095D01*
X235322619Y-10907142D01*
X235384523Y-10845238D01*
X235508333Y-10783333D01*
X235817857Y-10783333D01*
X235941666Y-10845238D01*
X236003571Y-10907142D01*
X236065476Y-11030952D01*
X236065476Y-11340476D01*
X236003571Y-11464285D01*
X235941666Y-11526190D01*
X235817857Y-11588095D01*
X235508333Y-11588095D01*
X235384523Y-11526190D01*
X235322619Y-11464285D01*
D10*
D11*
X285941666Y-10288095D02*
X285694047Y-10288095D01*
X285570238Y-10350000D01*
X285508333Y-10411904D01*
X285384523Y-10597619D01*
X285322619Y-10845238D01*
X285322619Y-11340476D01*
X285384523Y-11464285D01*
X285446428Y-11526190D01*
X285570238Y-11588095D01*
X285817857Y-11588095D01*
X285941666Y-11526190D01*
X286003571Y-11464285D01*
X286065476Y-11340476D01*
X286065476Y-11030952D01*
X286003571Y-10907142D01*
X285941666Y-10845238D01*
X285817857Y-10783333D01*
X285570238Y-10783333D01*
X285446428Y-10845238D01*
X285384523Y-10907142D01*
X285322619Y-11030952D01*
D10*
D11*
X60000000Y-198007200D02*
X60000000Y-200007200D01*
D10*
D11*
X110000000Y-198007200D02*
X110000000Y-200007200D01*
D10*
D11*
X160000000Y-198007200D02*
X160000000Y-200007200D01*
D10*
D11*
X210000000Y-198007200D02*
X210000000Y-200007200D01*
D10*
D11*
X260000000Y-198007200D02*
X260000000Y-200007200D01*
D10*
D11*
X36065476Y-199595295D02*
X35322619Y-199595295D01*
X35694047Y-199595295D02*
X35694047Y-198295295D01*
X35570238Y-198481009D01*
X35446428Y-198604819D01*
X35322619Y-198666723D01*
D10*
D11*
X85322619Y-198419104D02*
X85384523Y-198357200D01*
X85508333Y-198295295D01*
X85817857Y-198295295D01*
X85941666Y-198357200D01*
X86003571Y-198419104D01*
X86065476Y-198542914D01*
X86065476Y-198666723D01*
X86003571Y-198852438D01*
X85260714Y-199595295D01*
X86065476Y-199595295D01*
D10*
D11*
X135260714Y-198295295D02*
X136065476Y-198295295D01*
X135632142Y-198790533D01*
X135817857Y-198790533D01*
X135941666Y-198852438D01*
X136003571Y-198914342D01*
X136065476Y-199038152D01*
X136065476Y-199347676D01*
X136003571Y-199471485D01*
X135941666Y-199533390D01*
X135817857Y-199595295D01*
X135446428Y-199595295D01*
X135322619Y-199533390D01*
X135260714Y-199471485D01*
D10*
D11*
X185941666Y-198728628D02*
X185941666Y-199595295D01*
X185632142Y-198233390D02*
X185322619Y-199161961D01*
X186127380Y-199161961D01*
D10*
D11*
X236003571Y-198295295D02*
X235384523Y-198295295D01*
X235322619Y-198914342D01*
X235384523Y-198852438D01*
X235508333Y-198790533D01*
X235817857Y-198790533D01*
X235941666Y-198852438D01*
X236003571Y-198914342D01*
X236065476Y-199038152D01*
X236065476Y-199347676D01*
X236003571Y-199471485D01*
X235941666Y-199533390D01*
X235817857Y-199595295D01*
X235508333Y-199595295D01*
X235384523Y-199533390D01*
X235322619Y-199471485D01*
D10*
D11*
X285941666Y-198295295D02*
X285694047Y-198295295D01*
X285570238Y-198357200D01*
X285508333Y-198419104D01*
X285384523Y-198604819D01*
X285322619Y-198852438D01*
X285322619Y-199347676D01*
X285384523Y-199471485D01*
X285446428Y-199533390D01*
X285570238Y-199595295D01*
X285817857Y-199595295D01*
X285941666Y-199533390D01*
X286003571Y-199471485D01*
X286065476Y-199347676D01*
X286065476Y-199038152D01*
X286003571Y-198914342D01*
X285941666Y-198852438D01*
X285817857Y-198790533D01*
X285570238Y-198790533D01*
X285446428Y-198852438D01*
X285384523Y-198914342D01*
X285322619Y-199038152D01*
D10*
D11*
X10000000Y-60000000D02*
X12000000Y-60000000D01*
D10*
D11*
X10000000Y-110000000D02*
X12000000Y-110000000D01*
D10*
D11*
X10000000Y-160000000D02*
X12000000Y-160000000D01*
D10*
D11*
X10690476Y-35216666D02*
X11309523Y-35216666D01*
X10566666Y-35588095D02*
X11000000Y-34288095D01*
X11433333Y-35588095D01*
D10*
D11*
X11092857Y-84907142D02*
X11278571Y-84969047D01*
X11340476Y-85030952D01*
X11402380Y-85154761D01*
X11402380Y-85340476D01*
X11340476Y-85464285D01*
X11278571Y-85526190D01*
X11154761Y-85588095D01*
X10659523Y-85588095D01*
X10659523Y-84288095D01*
X11092857Y-84288095D01*
X11216666Y-84350000D01*
X11278571Y-84411904D01*
X11340476Y-84535714D01*
X11340476Y-84659523D01*
X11278571Y-84783333D01*
X11216666Y-84845238D01*
X11092857Y-84907142D01*
X10659523Y-84907142D01*
D10*
D11*
X11402380Y-135464285D02*
X11340476Y-135526190D01*
X11154761Y-135588095D01*
X11030952Y-135588095D01*
X10845238Y-135526190D01*
X10721428Y-135402380D01*
X10659523Y-135278571D01*
X10597619Y-135030952D01*
X10597619Y-134845238D01*
X10659523Y-134597619D01*
X10721428Y-134473809D01*
X10845238Y-134350000D01*
X11030952Y-134288095D01*
X11154761Y-134288095D01*
X11340476Y-134350000D01*
X11402380Y-134411904D01*
D10*
D11*
X10659523Y-185588095D02*
X10659523Y-184288095D01*
X10969047Y-184288095D01*
X11154761Y-184350000D01*
X11278571Y-184473809D01*
X11340476Y-184597619D01*
X11402380Y-184845238D01*
X11402380Y-185030952D01*
X11340476Y-185278571D01*
X11278571Y-185402380D01*
X11154761Y-185526190D01*
X10969047Y-185588095D01*
X10659523Y-185588095D01*
D10*
D11*
X287002200Y-60000000D02*
X285002200Y-60000000D01*
D10*
D11*
X287002200Y-110000000D02*
X285002200Y-110000000D01*
D10*
D11*
X287002200Y-160000000D02*
X285002200Y-160000000D01*
D10*
D11*
X285692676Y-35216666D02*
X286311723Y-35216666D01*
X285568866Y-35588095D02*
X286002200Y-34288095D01*
X286435533Y-35588095D01*
D10*
D11*
X286095057Y-84907142D02*
X286280771Y-84969047D01*
X286342676Y-85030952D01*
X286404580Y-85154761D01*
X286404580Y-85340476D01*
X286342676Y-85464285D01*
X286280771Y-85526190D01*
X286156961Y-85588095D01*
X285661723Y-85588095D01*
X285661723Y-84288095D01*
X286095057Y-84288095D01*
X286218866Y-84350000D01*
X286280771Y-84411904D01*
X286342676Y-84535714D01*
X286342676Y-84659523D01*
X286280771Y-84783333D01*
X286218866Y-84845238D01*
X286095057Y-84907142D01*
X285661723Y-84907142D01*
D10*
D11*
X286404580Y-135464285D02*
X286342676Y-135526190D01*
X286156961Y-135588095D01*
X286033152Y-135588095D01*
X285847438Y-135526190D01*
X285723628Y-135402380D01*
X285661723Y-135278571D01*
X285599819Y-135030952D01*
X285599819Y-134845238D01*
X285661723Y-134597619D01*
X285723628Y-134473809D01*
X285847438Y-134350000D01*
X286033152Y-134288095D01*
X286156961Y-134288095D01*
X286342676Y-134350000D01*
X286404580Y-134411904D01*
D10*
D11*
X285661723Y-185588095D02*
X285661723Y-184288095D01*
X285971247Y-184288095D01*
X286156961Y-184350000D01*
X286280771Y-184473809D01*
X286342676Y-184597619D01*
X286404580Y-184845238D01*
X286404580Y-185030952D01*
X286342676Y-185278571D01*
X286280771Y-185402380D01*
X286156961Y-185526190D01*
X285971247Y-185588095D01*
X285661723Y-185588095D01*
D10*
D11*
X200434342Y-193785771D02*
X200434342Y-192285771D01*
X200791485Y-192285771D01*
X201005771Y-192357200D01*
X201148628Y-192500057D01*
X201220057Y-192642914D01*
X201291485Y-192928628D01*
X201291485Y-193142914D01*
X201220057Y-193428628D01*
X201148628Y-193571485D01*
X201005771Y-193714342D01*
X200791485Y-193785771D01*
X200434342Y-193785771D01*
X202577200Y-193785771D02*
X202577200Y-193000057D01*
X202505771Y-192857200D01*
X202362914Y-192785771D01*
X202077200Y-192785771D01*
X201934342Y-192857200D01*
X202577200Y-193714342D02*
X202434342Y-193785771D01*
X202077200Y-193785771D01*
X201934342Y-193714342D01*
X201862914Y-193571485D01*
X201862914Y-193428628D01*
X201934342Y-193285771D01*
X202077200Y-193214342D01*
X202434342Y-193214342D01*
X202577200Y-193142914D01*
X203077200Y-192785771D02*
X203648628Y-192785771D01*
X203291485Y-192285771D02*
X203291485Y-193571485D01*
X203362914Y-193714342D01*
X203505771Y-193785771D01*
X203648628Y-193785771D01*
X204720057Y-193714342D02*
X204577200Y-193785771D01*
X204291485Y-193785771D01*
X204148628Y-193714342D01*
X204077200Y-193571485D01*
X204077200Y-193000057D01*
X204148628Y-192857200D01*
X204291485Y-192785771D01*
X204577200Y-192785771D01*
X204720057Y-192857200D01*
X204791485Y-193000057D01*
X204791485Y-193142914D01*
X204077200Y-193285771D01*
X205434342Y-193642914D02*
X205505771Y-193714342D01*
X205434342Y-193785771D01*
X205362914Y-193714342D01*
X205434342Y-193642914D01*
X205434342Y-193785771D01*
X205434342Y-192857200D02*
X205505771Y-192928628D01*
X205434342Y-193000057D01*
X205362914Y-192928628D01*
X205434342Y-192857200D01*
X205434342Y-193000057D01*
D10*
D11*
X177002200Y-194507200D02*
X285002200Y-194507200D01*
D10*
D11*
X178434342Y-196585771D02*
X178434342Y-195085771D01*
X179291485Y-196585771D02*
X178648628Y-195728628D01*
X179291485Y-195085771D02*
X178434342Y-195942914D01*
X179934342Y-196585771D02*
X179934342Y-195585771D01*
X179934342Y-195085771D02*
X179862914Y-195157200D01*
X179934342Y-195228628D01*
X180005771Y-195157200D01*
X179934342Y-195085771D01*
X179934342Y-195228628D01*
X181505771Y-196442914D02*
X181434342Y-196514342D01*
X181220057Y-196585771D01*
X181077200Y-196585771D01*
X180862914Y-196514342D01*
X180720057Y-196371485D01*
X180648628Y-196228628D01*
X180577200Y-195942914D01*
X180577200Y-195728628D01*
X180648628Y-195442914D01*
X180720057Y-195300057D01*
X180862914Y-195157200D01*
X181077200Y-195085771D01*
X181220057Y-195085771D01*
X181434342Y-195157200D01*
X181505771Y-195228628D01*
X182791485Y-196585771D02*
X182791485Y-195800057D01*
X182720057Y-195657200D01*
X182577200Y-195585771D01*
X182291485Y-195585771D01*
X182148628Y-195657200D01*
X182791485Y-196514342D02*
X182648628Y-196585771D01*
X182291485Y-196585771D01*
X182148628Y-196514342D01*
X182077200Y-196371485D01*
X182077200Y-196228628D01*
X182148628Y-196085771D01*
X182291485Y-196014342D01*
X182648628Y-196014342D01*
X182791485Y-195942914D01*
X184148628Y-196585771D02*
X184148628Y-195085771D01*
X184148628Y-196514342D02*
X184005771Y-196585771D01*
X183720057Y-196585771D01*
X183577200Y-196514342D01*
X183505771Y-196442914D01*
X183434342Y-196300057D01*
X183434342Y-195871485D01*
X183505771Y-195728628D01*
X183577200Y-195657200D01*
X183720057Y-195585771D01*
X184005771Y-195585771D01*
X184148628Y-195657200D01*
X186005771Y-195800057D02*
X186505771Y-195800057D01*
X186720057Y-196585771D02*
X186005771Y-196585771D01*
X186005771Y-195085771D01*
X186720057Y-195085771D01*
X187362914Y-196442914D02*
X187434342Y-196514342D01*
X187362914Y-196585771D01*
X187291485Y-196514342D01*
X187362914Y-196442914D01*
X187362914Y-196585771D01*
X188077200Y-196585771D02*
X188077200Y-195085771D01*
X188434342Y-195085771D01*
X188648628Y-195157200D01*
X188791485Y-195300057D01*
X188862914Y-195442914D01*
X188934342Y-195728628D01*
X188934342Y-195942914D01*
X188862914Y-196228628D01*
X188791485Y-196371485D01*
X188648628Y-196514342D01*
X188434342Y-196585771D01*
X188077200Y-196585771D01*
X189577200Y-196442914D02*
X189648628Y-196514342D01*
X189577200Y-196585771D01*
X189505771Y-196514342D01*
X189577200Y-196442914D01*
X189577200Y-196585771D01*
X190220057Y-196157200D02*
X190934342Y-196157200D01*
X190077200Y-196585771D02*
X190577200Y-195085771D01*
X191077200Y-196585771D01*
X191577200Y-196442914D02*
X191648628Y-196514342D01*
X191577200Y-196585771D01*
X191505771Y-196514342D01*
X191577200Y-196442914D01*
X191577200Y-196585771D01*
X194577200Y-196585771D02*
X194577200Y-195085771D01*
X194720057Y-196014342D02*
X195148628Y-196585771D01*
X195148628Y-195585771D02*
X194577200Y-196157200D01*
X195791485Y-196585771D02*
X195791485Y-195585771D01*
X195791485Y-195085771D02*
X195720057Y-195157200D01*
X195791485Y-195228628D01*
X195862914Y-195157200D01*
X195791485Y-195085771D01*
X195791485Y-195228628D01*
X197148628Y-196514342D02*
X197005771Y-196585771D01*
X196720057Y-196585771D01*
X196577200Y-196514342D01*
X196505771Y-196442914D01*
X196434342Y-196300057D01*
X196434342Y-195871485D01*
X196505771Y-195728628D01*
X196577200Y-195657200D01*
X196720057Y-195585771D01*
X197005771Y-195585771D01*
X197148628Y-195657200D01*
X198434342Y-196585771D02*
X198434342Y-195800057D01*
X198362914Y-195657200D01*
X198220057Y-195585771D01*
X197934342Y-195585771D01*
X197791485Y-195657200D01*
X198434342Y-196514342D02*
X198291485Y-196585771D01*
X197934342Y-196585771D01*
X197791485Y-196514342D01*
X197720057Y-196371485D01*
X197720057Y-196228628D01*
X197791485Y-196085771D01*
X197934342Y-196014342D01*
X198291485Y-196014342D01*
X198434342Y-195942914D01*
X199791485Y-196585771D02*
X199791485Y-195085771D01*
X199791485Y-196514342D02*
X199648628Y-196585771D01*
X199362914Y-196585771D01*
X199220057Y-196514342D01*
X199148628Y-196442914D01*
X199077200Y-196300057D01*
X199077200Y-195871485D01*
X199148628Y-195728628D01*
X199220057Y-195657200D01*
X199362914Y-195585771D01*
X199648628Y-195585771D01*
X199791485Y-195657200D01*
X202077200Y-197157200D02*
X202005771Y-197085771D01*
X201862914Y-196871485D01*
X201791485Y-196728628D01*
X201720057Y-196514342D01*
X201648628Y-196157200D01*
X201648628Y-195871485D01*
X201720057Y-195514342D01*
X201791485Y-195300057D01*
X201862914Y-195157200D01*
X202005771Y-194942914D01*
X202077200Y-194871485D01*
X203362914Y-195085771D02*
X202648628Y-195085771D01*
X202577200Y-195800057D01*
X202648628Y-195728628D01*
X202791485Y-195657200D01*
X203148628Y-195657200D01*
X203291485Y-195728628D01*
X203362914Y-195800057D01*
X203434342Y-195942914D01*
X203434342Y-196300057D01*
X203362914Y-196442914D01*
X203291485Y-196514342D01*
X203148628Y-196585771D01*
X202791485Y-196585771D01*
X202648628Y-196514342D01*
X202577200Y-196442914D01*
X204077200Y-196442914D02*
X204148628Y-196514342D01*
X204077200Y-196585771D01*
X204005771Y-196514342D01*
X204077200Y-196442914D01*
X204077200Y-196585771D01*
X205577200Y-196585771D02*
X204720057Y-196585771D01*
X205148628Y-196585771D02*
X205148628Y-195085771D01*
X205005771Y-195300057D01*
X204862914Y-195442914D01*
X204720057Y-195514342D01*
X206220057Y-196442914D02*
X206291485Y-196514342D01*
X206220057Y-196585771D01*
X206148628Y-196514342D01*
X206220057Y-196442914D01*
X206220057Y-196585771D01*
X206862914Y-195228628D02*
X206934342Y-195157200D01*
X207077200Y-195085771D01*
X207434342Y-195085771D01*
X207577200Y-195157200D01*
X207648628Y-195228628D01*
X207720057Y-195371485D01*
X207720057Y-195514342D01*
X207648628Y-195728628D01*
X206791485Y-196585771D01*
X207720057Y-196585771D01*
X208220057Y-197157200D02*
X208291485Y-197085771D01*
X208434342Y-196871485D01*
X208505771Y-196728628D01*
X208577200Y-196514342D01*
X208648628Y-196157200D01*
X208648628Y-195871485D01*
X208577200Y-195514342D01*
X208505771Y-195300057D01*
X208434342Y-195157200D01*
X208291485Y-194942914D01*
X208220057Y-194871485D01*
X209362914Y-196014342D02*
X210505771Y-196014342D01*
X212005771Y-196585771D02*
X211148628Y-196585771D01*
X211577200Y-196585771D02*
X211577200Y-195085771D01*
X211434342Y-195300057D01*
X211291485Y-195442914D01*
X211148628Y-195514342D01*
D10*
D11*
X177002200Y-191507200D02*
X285002200Y-191507200D01*
D10*
D12*
X264411485Y-193785771D02*
X263911485Y-193071485D01*
X263554342Y-193785771D02*
X263554342Y-192285771D01*
X264125771Y-192285771D01*
X264268628Y-192357200D01*
X264340057Y-192428628D01*
X264411485Y-192571485D01*
X264411485Y-192785771D01*
X264340057Y-192928628D01*
X264268628Y-193000057D01*
X264125771Y-193071485D01*
X263554342Y-193071485D01*
X265625771Y-193714342D02*
X265482914Y-193785771D01*
X265197200Y-193785771D01*
X265054342Y-193714342D01*
X264982914Y-193571485D01*
X264982914Y-193000057D01*
X265054342Y-192857200D01*
X265197200Y-192785771D01*
X265482914Y-192785771D01*
X265625771Y-192857200D01*
X265697200Y-193000057D01*
X265697200Y-193142914D01*
X264982914Y-193285771D01*
X266197200Y-192785771D02*
X266554342Y-193785771D01*
X266911485Y-192785771D01*
X267482914Y-193642914D02*
X267554342Y-193714342D01*
X267482914Y-193785771D01*
X267411485Y-193714342D01*
X267482914Y-193642914D01*
X267482914Y-193785771D01*
X267482914Y-192857200D02*
X267554342Y-192928628D01*
X267482914Y-193000057D01*
X267411485Y-192928628D01*
X267482914Y-192857200D01*
X267482914Y-193000057D01*
D10*
D11*
X178362914Y-193714342D02*
X178577200Y-193785771D01*
X178934342Y-193785771D01*
X179077200Y-193714342D01*
X179148628Y-193642914D01*
X179220057Y-193500057D01*
X179220057Y-193357200D01*
X179148628Y-193214342D01*
X179077200Y-193142914D01*
X178934342Y-193071485D01*
X178648628Y-193000057D01*
X178505771Y-192928628D01*
X178434342Y-192857200D01*
X178362914Y-192714342D01*
X178362914Y-192571485D01*
X178434342Y-192428628D01*
X178505771Y-192357200D01*
X178648628Y-192285771D01*
X179005771Y-192285771D01*
X179220057Y-192357200D01*
X179862914Y-193785771D02*
X179862914Y-192785771D01*
X179862914Y-192285771D02*
X179791485Y-192357200D01*
X179862914Y-192428628D01*
X179934342Y-192357200D01*
X179862914Y-192285771D01*
X179862914Y-192428628D01*
X180434342Y-192785771D02*
X181220057Y-192785771D01*
X180434342Y-193785771D01*
X181220057Y-193785771D01*
X182362914Y-193714342D02*
X182220057Y-193785771D01*
X181934342Y-193785771D01*
X181791485Y-193714342D01*
X181720057Y-193571485D01*
X181720057Y-193000057D01*
X181791485Y-192857200D01*
X181934342Y-192785771D01*
X182220057Y-192785771D01*
X182362914Y-192857200D01*
X182434342Y-193000057D01*
X182434342Y-193142914D01*
X181720057Y-193285771D01*
X183077200Y-193642914D02*
X183148628Y-193714342D01*
X183077200Y-193785771D01*
X183005771Y-193714342D01*
X183077200Y-193642914D01*
X183077200Y-193785771D01*
X183077200Y-192857200D02*
X183148628Y-192928628D01*
X183077200Y-193000057D01*
X183005771Y-192928628D01*
X183077200Y-192857200D01*
X183077200Y-193000057D01*
X184862914Y-193357200D02*
X185577200Y-193357200D01*
X184720057Y-193785771D02*
X185220057Y-192285771D01*
X185720057Y-193785771D01*
X186862914Y-192785771D02*
X186862914Y-193785771D01*
X186505771Y-192214342D02*
X186148628Y-193285771D01*
X187077200Y-193285771D01*
D10*
D11*
X263434342Y-196585771D02*
X263434342Y-195085771D01*
X264791485Y-196585771D02*
X264791485Y-195085771D01*
X264791485Y-196514342D02*
X264648628Y-196585771D01*
X264362914Y-196585771D01*
X264220057Y-196514342D01*
X264148628Y-196442914D01*
X264077200Y-196300057D01*
X264077200Y-195871485D01*
X264148628Y-195728628D01*
X264220057Y-195657200D01*
X264362914Y-195585771D01*
X264648628Y-195585771D01*
X264791485Y-195657200D01*
X265505771Y-196442914D02*
X265577200Y-196514342D01*
X265505771Y-196585771D01*
X265434342Y-196514342D01*
X265505771Y-196442914D01*
X265505771Y-196585771D01*
X265505771Y-195657200D02*
X265577200Y-195728628D01*
X265505771Y-195800057D01*
X265434342Y-195728628D01*
X265505771Y-195657200D01*
X265505771Y-195800057D01*
X268148628Y-196585771D02*
X267291485Y-196585771D01*
X267720057Y-196585771D02*
X267720057Y-195085771D01*
X267577200Y-195300057D01*
X267434342Y-195442914D01*
X267291485Y-195514342D01*
X269862914Y-195014342D02*
X268577200Y-196942914D01*
X271148628Y-196585771D02*
X270291485Y-196585771D01*
X270720057Y-196585771D02*
X270720057Y-195085771D01*
X270577200Y-195300057D01*
X270434342Y-195442914D01*
X270291485Y-195514342D01*
D10*
D11*
X177002200Y-187507200D02*
X285002200Y-187507200D01*
D10*
D13*
X178714580Y-188211961D02*
X179857438Y-188211961D01*
X179036009Y-190211961D02*
X179286009Y-188211961D01*
X180274104Y-190211961D02*
X180440771Y-188878628D01*
X180524104Y-188211961D02*
X180416961Y-188307200D01*
X180500295Y-188402438D01*
X180607438Y-188307200D01*
X180524104Y-188211961D01*
X180500295Y-188402438D01*
X181107438Y-188878628D02*
X181869342Y-188878628D01*
X181476485Y-188211961D02*
X181262200Y-189926247D01*
X181333628Y-190116723D01*
X181512200Y-190211961D01*
X181702676Y-190211961D01*
X182655057Y-190211961D02*
X182476485Y-190116723D01*
X182405057Y-189926247D01*
X182619342Y-188211961D01*
X184190771Y-190116723D02*
X183988390Y-190211961D01*
X183607438Y-190211961D01*
X183428866Y-190116723D01*
X183357438Y-189926247D01*
X183452676Y-189164342D01*
X183571723Y-188973866D01*
X183774104Y-188878628D01*
X184155057Y-188878628D01*
X184333628Y-188973866D01*
X184405057Y-189164342D01*
X184381247Y-189354819D01*
X183405057Y-189545295D01*
X185155057Y-190021485D02*
X185238390Y-190116723D01*
X185131247Y-190211961D01*
X185047914Y-190116723D01*
X185155057Y-190021485D01*
X185131247Y-190211961D01*
X185286009Y-188973866D02*
X185369342Y-189069104D01*
X185262200Y-189164342D01*
X185178866Y-189069104D01*
X185286009Y-188973866D01*
X185262200Y-189164342D01*
D10*
D11*
X178934342Y-185600057D02*
X178434342Y-185600057D01*
X178434342Y-186385771D02*
X178434342Y-184885771D01*
X179148628Y-184885771D01*
X179720057Y-186385771D02*
X179720057Y-185385771D01*
X179720057Y-184885771D02*
X179648628Y-184957200D01*
X179720057Y-185028628D01*
X179791485Y-184957200D01*
X179720057Y-184885771D01*
X179720057Y-185028628D01*
X180648628Y-186385771D02*
X180505771Y-186314342D01*
X180434342Y-186171485D01*
X180434342Y-184885771D01*
X181791485Y-186314342D02*
X181648628Y-186385771D01*
X181362914Y-186385771D01*
X181220057Y-186314342D01*
X181148628Y-186171485D01*
X181148628Y-185600057D01*
X181220057Y-185457200D01*
X181362914Y-185385771D01*
X181648628Y-185385771D01*
X181791485Y-185457200D01*
X181862914Y-185600057D01*
X181862914Y-185742914D01*
X181148628Y-185885771D01*
X182505771Y-186242914D02*
X182577200Y-186314342D01*
X182505771Y-186385771D01*
X182434342Y-186314342D01*
X182505771Y-186242914D01*
X182505771Y-186385771D01*
X182505771Y-185457200D02*
X182577200Y-185528628D01*
X182505771Y-185600057D01*
X182434342Y-185528628D01*
X182505771Y-185457200D01*
X182505771Y-185600057D01*
X185220057Y-186385771D02*
X184720057Y-185671485D01*
X184362914Y-186385771D02*
X184362914Y-184885771D01*
X184934342Y-184885771D01*
X185077200Y-184957200D01*
X185148628Y-185028628D01*
X185220057Y-185171485D01*
X185220057Y-185385771D01*
X185148628Y-185528628D01*
X185077200Y-185600057D01*
X184934342Y-185671485D01*
X184362914Y-185671485D01*
X186077200Y-186385771D02*
X185934342Y-186314342D01*
X185862914Y-186242914D01*
X185791485Y-186100057D01*
X185791485Y-185671485D01*
X185862914Y-185528628D01*
X185934342Y-185457200D01*
X186077200Y-185385771D01*
X186291485Y-185385771D01*
X186434342Y-185457200D01*
X186505771Y-185528628D01*
X186577200Y-185671485D01*
X186577200Y-186100057D01*
X186505771Y-186242914D01*
X186434342Y-186314342D01*
X186291485Y-186385771D01*
X186077200Y-186385771D01*
X187220057Y-186385771D02*
X187220057Y-184885771D01*
X187220057Y-185457200D02*
X187362914Y-185385771D01*
X187648628Y-185385771D01*
X187791485Y-185457200D01*
X187862914Y-185528628D01*
X187934342Y-185671485D01*
X187934342Y-186100057D01*
X187862914Y-186242914D01*
X187791485Y-186314342D01*
X187648628Y-186385771D01*
X187362914Y-186385771D01*
X187220057Y-186314342D01*
X188791485Y-186385771D02*
X188648628Y-186314342D01*
X188577200Y-186242914D01*
X188505771Y-186100057D01*
X188505771Y-185671485D01*
X188577200Y-185528628D01*
X188648628Y-185457200D01*
X188791485Y-185385771D01*
X189005771Y-185385771D01*
X189148628Y-185457200D01*
X189220057Y-185528628D01*
X189291485Y-185671485D01*
X189291485Y-186100057D01*
X189220057Y-186242914D01*
X189148628Y-186314342D01*
X189005771Y-186385771D01*
X188791485Y-186385771D01*
X189720057Y-185385771D02*
X190291485Y-185385771D01*
X189934342Y-184885771D02*
X189934342Y-186171485D01*
X190005771Y-186314342D01*
X190148628Y-186385771D01*
X190291485Y-186385771D01*
X191720057Y-184885771D02*
X192577200Y-184885771D01*
X192148628Y-186385771D02*
X192148628Y-184885771D01*
X193720057Y-186385771D02*
X193720057Y-185600057D01*
X193648628Y-185457200D01*
X193505771Y-185385771D01*
X193220057Y-185385771D01*
X193077200Y-185457200D01*
X193720057Y-186314342D02*
X193577200Y-186385771D01*
X193220057Y-186385771D01*
X193077200Y-186314342D01*
X193005771Y-186171485D01*
X193005771Y-186028628D01*
X193077200Y-185885771D01*
X193220057Y-185814342D01*
X193577200Y-185814342D01*
X193720057Y-185742914D01*
X194434342Y-185385771D02*
X194434342Y-186385771D01*
X194434342Y-185528628D02*
X194505771Y-185457200D01*
X194648628Y-185385771D01*
X194862914Y-185385771D01*
X195005771Y-185457200D01*
X195077200Y-185600057D01*
X195077200Y-186385771D01*
X195791485Y-186385771D02*
X195791485Y-184885771D01*
X195934342Y-185814342D02*
X196362914Y-186385771D01*
X196362914Y-185385771D02*
X195791485Y-185957200D01*
X197005771Y-186242914D02*
X197077200Y-186314342D01*
X197005771Y-186385771D01*
X196934342Y-186314342D01*
X197005771Y-186242914D01*
X197005771Y-186385771D01*
X197720057Y-186385771D02*
X197720057Y-184885771D01*
X197862914Y-185814342D02*
X198291485Y-186385771D01*
X198291485Y-185385771D02*
X197720057Y-185957200D01*
X198934342Y-186385771D02*
X198934342Y-185385771D01*
X198934342Y-184885771D02*
X198862914Y-184957200D01*
X198934342Y-185028628D01*
X199005771Y-184957200D01*
X198934342Y-184885771D01*
X198934342Y-185028628D01*
X200291485Y-186314342D02*
X200148628Y-186385771D01*
X199862914Y-186385771D01*
X199720057Y-186314342D01*
X199648628Y-186242914D01*
X199577200Y-186100057D01*
X199577200Y-185671485D01*
X199648628Y-185528628D01*
X199720057Y-185457200D01*
X199862914Y-185385771D01*
X200148628Y-185385771D01*
X200291485Y-185457200D01*
X201577200Y-186385771D02*
X201577200Y-185600057D01*
X201505771Y-185457200D01*
X201362914Y-185385771D01*
X201077200Y-185385771D01*
X200934342Y-185457200D01*
X201577200Y-186314342D02*
X201434342Y-186385771D01*
X201077200Y-186385771D01*
X200934342Y-186314342D01*
X200862914Y-186171485D01*
X200862914Y-186028628D01*
X200934342Y-185885771D01*
X201077200Y-185814342D01*
X201434342Y-185814342D01*
X201577200Y-185742914D01*
X202934342Y-186385771D02*
X202934342Y-184885771D01*
X202934342Y-186314342D02*
X202791485Y-186385771D01*
X202505771Y-186385771D01*
X202362914Y-186314342D01*
X202291485Y-186242914D01*
X202220057Y-186100057D01*
X202220057Y-185671485D01*
X202291485Y-185528628D01*
X202362914Y-185457200D01*
X202505771Y-185385771D01*
X202791485Y-185385771D01*
X202934342Y-185457200D01*
X203291485Y-186528628D02*
X204434342Y-186528628D01*
X204791485Y-185385771D02*
X204791485Y-186885771D01*
X204791485Y-185457200D02*
X204934342Y-185385771D01*
X205220057Y-185385771D01*
X205362914Y-185457200D01*
X205434342Y-185528628D01*
X205505771Y-185671485D01*
X205505771Y-186100057D01*
X205434342Y-186242914D01*
X205362914Y-186314342D01*
X205220057Y-186385771D01*
X204934342Y-186385771D01*
X204791485Y-186314342D01*
X206791485Y-186314342D02*
X206648628Y-186385771D01*
X206362914Y-186385771D01*
X206220057Y-186314342D01*
X206148628Y-186242914D01*
X206077200Y-186100057D01*
X206077200Y-185671485D01*
X206148628Y-185528628D01*
X206220057Y-185457200D01*
X206362914Y-185385771D01*
X206648628Y-185385771D01*
X206791485Y-185457200D01*
X207434342Y-186385771D02*
X207434342Y-184885771D01*
X207434342Y-185457200D02*
X207577200Y-185385771D01*
X207862914Y-185385771D01*
X208005771Y-185457200D01*
X208077200Y-185528628D01*
X208148628Y-185671485D01*
X208148628Y-186100057D01*
X208077200Y-186242914D01*
X208005771Y-186314342D01*
X207862914Y-186385771D01*
X207577200Y-186385771D01*
X207434342Y-186314342D01*
D10*
D11*
X177002200Y-181507200D02*
X285002200Y-181507200D01*
D10*
D11*
X178362914Y-183614342D02*
X178577200Y-183685771D01*
X178934342Y-183685771D01*
X179077200Y-183614342D01*
X179148628Y-183542914D01*
X179220057Y-183400057D01*
X179220057Y-183257200D01*
X179148628Y-183114342D01*
X179077200Y-183042914D01*
X178934342Y-182971485D01*
X178648628Y-182900057D01*
X178505771Y-182828628D01*
X178434342Y-182757200D01*
X178362914Y-182614342D01*
X178362914Y-182471485D01*
X178434342Y-182328628D01*
X178505771Y-182257200D01*
X178648628Y-182185771D01*
X179005771Y-182185771D01*
X179220057Y-182257200D01*
X179862914Y-183685771D02*
X179862914Y-182185771D01*
X180505771Y-183685771D02*
X180505771Y-182900057D01*
X180434342Y-182757200D01*
X180291485Y-182685771D01*
X180077200Y-182685771D01*
X179934342Y-182757200D01*
X179862914Y-182828628D01*
X181791485Y-183614342D02*
X181648628Y-183685771D01*
X181362914Y-183685771D01*
X181220057Y-183614342D01*
X181148628Y-183471485D01*
X181148628Y-182900057D01*
X181220057Y-182757200D01*
X181362914Y-182685771D01*
X181648628Y-182685771D01*
X181791485Y-182757200D01*
X181862914Y-182900057D01*
X181862914Y-183042914D01*
X181148628Y-183185771D01*
X183077200Y-183614342D02*
X182934342Y-183685771D01*
X182648628Y-183685771D01*
X182505771Y-183614342D01*
X182434342Y-183471485D01*
X182434342Y-182900057D01*
X182505771Y-182757200D01*
X182648628Y-182685771D01*
X182934342Y-182685771D01*
X183077200Y-182757200D01*
X183148628Y-182900057D01*
X183148628Y-183042914D01*
X182434342Y-183185771D01*
X183577200Y-182685771D02*
X184148628Y-182685771D01*
X183791485Y-182185771D02*
X183791485Y-183471485D01*
X183862914Y-183614342D01*
X184005771Y-183685771D01*
X184148628Y-183685771D01*
X184648628Y-183542914D02*
X184720057Y-183614342D01*
X184648628Y-183685771D01*
X184577200Y-183614342D01*
X184648628Y-183542914D01*
X184648628Y-183685771D01*
X184648628Y-182757200D02*
X184720057Y-182828628D01*
X184648628Y-182900057D01*
X184577200Y-182828628D01*
X184648628Y-182757200D01*
X184648628Y-182900057D01*
D10*
D11*
X197002200Y-191507200D02*
X197002200Y-194507200D01*
D10*
D11*
X261002200Y-191507200D02*
X261002200Y-198007200D01*
D14*
X124090000Y-55170000D03*
X87090000Y-55170000D03*
X124090000Y-18170000D03*
X87090000Y-18170000D03*
X94010000Y-105090000D03*
X94010000Y-132090000D03*
X63010000Y-105090000D03*
X63010000Y-132090000D03*
X21450000Y-76150000D03*
X21450000Y-18150000D03*
X70450000Y-76150000D03*
X70450000Y-18150000D03*
D15*
X80010000Y-71120000D03*
X77470000Y-71120000D03*
X80010000Y-68580000D03*
X77470000Y-68580000D03*
X80010000Y-66040000D03*
X77470000Y-66040000D03*
X80010000Y-63500000D03*
X77470000Y-63500000D03*
X80010000Y-60960000D03*
X77470000Y-60960000D03*
X80010000Y-58420000D03*
X77470000Y-58420000D03*
X80010000Y-55880000D03*
X77470000Y-55880000D03*
X80010000Y-53340000D03*
X77470000Y-53340000D03*
X80010000Y-50800000D03*
X77470000Y-50800000D03*
X80010000Y-48260000D03*
X77470000Y-48260000D03*
X80010000Y-45720000D03*
X77470000Y-45720000D03*
X80010000Y-43180000D03*
X77470000Y-43180000D03*
X80010000Y-40640000D03*
X77470000Y-40640000D03*
X80010000Y-38100000D03*
X77470000Y-38100000D03*
X80010000Y-35560000D03*
X77470000Y-35560000D03*
X80010000Y-33020000D03*
X77470000Y-33020000D03*
X80010000Y-30480000D03*
X77470000Y-30480000D03*
X80010000Y-27940000D03*
X77470000Y-27940000D03*
X80010000Y-25400000D03*
X77470000Y-25400000D03*
X80010000Y-22860000D03*
D16*
X77470000Y-22860000D03*
D17*
X95250000Y-83820000D03*
D18*
X97790000Y-83820000D03*
D17*
X111760000Y-83820000D03*
D18*
X109220000Y-83820000D03*
D15*
X104140000Y-95250000D03*
X106680000Y-95250000D03*
D16*
X109220000Y-95250000D03*
D15*
X91440000Y-95250000D03*
X93980000Y-95250000D03*
D16*
X96520000Y-95250000D03*
D15*
X121920000Y-63500000D03*
D16*
X124460000Y-63500000D03*
D15*
X78740000Y-95250000D03*
X78740000Y-92710000D03*
X78740000Y-90170000D03*
X78740000Y-87630000D03*
X78740000Y-85090000D03*
D16*
X78740000Y-82550000D03*
D19*
X82550000Y-45720000D03*
X82550000Y-95250000D03*
X87630000Y-63500000D03*
X87630000Y-92710000D03*
X95250000Y-60960000D03*
X95250000Y-43180000D03*
X86360000Y-40640000D03*
X90170000Y-60960000D03*
X85090000Y-60960000D03*
X85090000Y-90170000D03*
X66040000Y-40640000D03*
X66040000Y-82550000D03*
X62230000Y-38100000D03*
X62230000Y-85090000D03*
X59690000Y-35560000D03*
X59690000Y-87630000D03*
X104140000Y-35560000D03*
X100330000Y-91440000D03*
X92710000Y-33020000D03*
X90170000Y-91440000D03*
X92710000Y-91440000D03*
X86360000Y-67310000D03*
X96520000Y-27940000D03*
X99060000Y-66040000D03*
X107860000Y-75020000D03*
X114300000Y-69850000D03*
X93980000Y-80010000D03*
X110490000Y-25400000D03*
X115570000Y-88900000D03*
X110490000Y-74930000D03*
X110490000Y-68580000D03*
X116840000Y-66040000D03*
X116840000Y-78740000D03*
X102870000Y-69850000D03*
X102870000Y-87630000D03*
D20*
X82550000Y-45720000D02*
X82550000Y-95250000D01*
X82550000Y-95250000D02*
X82550000Y-95250000D01*
X87630000Y-63500000D02*
X87630000Y-92710000D01*
X87630000Y-92710000D02*
X87630000Y-92710000D01*
X95250000Y-43180000D02*
X95250000Y-60960000D01*
X86360000Y-40640000D02*
X86360000Y-49530000D01*
X90170000Y-60960000D02*
X90170000Y-60960000D01*
X85090000Y-60960000D02*
X85090000Y-90170000D01*
X85090000Y-90170000D02*
X85090000Y-90170000D01*
X86360000Y-49530000D02*
X90170000Y-53340000D01*
X90170000Y-53340000D02*
X90170000Y-60960000D01*
X66040000Y-40640000D02*
X66040000Y-82550000D01*
X66040000Y-82550000D02*
X66040000Y-82550000D01*
X62230000Y-38100000D02*
X62230000Y-80010000D01*
X62230000Y-80010000D02*
X62230000Y-80010000D01*
X62230000Y-80010000D02*
X62230000Y-85090000D01*
X62230000Y-85090000D02*
X62230000Y-85090000D01*
X59690000Y-35560000D02*
X59690000Y-82550000D01*
X59690000Y-82550000D02*
X59690000Y-82550000D01*
X59690000Y-82550000D02*
X59690000Y-87630000D01*
X59690000Y-87630000D02*
X59690000Y-87630000D01*
X104140000Y-35560000D02*
X104140000Y-38100000D01*
X104140000Y-38100000D02*
X102870000Y-39370000D01*
X102870000Y-39370000D02*
X102870000Y-57150000D01*
X102870000Y-57150000D02*
X100330000Y-59690000D01*
X100330000Y-59690000D02*
X100330000Y-91440000D01*
X100330000Y-91440000D02*
X100330000Y-91440000D01*
X92710000Y-63500000D02*
X92710000Y-63500000D01*
X92710000Y-77470000D02*
X92710000Y-33020000D01*
X90170000Y-80010000D02*
X92710000Y-77470000D01*
X90170000Y-91440000D02*
X90170000Y-91440000D01*
X90170000Y-91440000D02*
X90170000Y-80010000D01*
D21*
X97790000Y-62230000D02*
X99060000Y-63500000D01*
X99060000Y-63500000D02*
X99060000Y-66040000D01*
X99060000Y-66040000D02*
X99060000Y-66040000D01*
X107860000Y-75020000D02*
X107860000Y-71210000D01*
X107860000Y-71210000D02*
X107860000Y-71210000D01*
X107860000Y-71210000D02*
X112940000Y-71210000D01*
X112940000Y-71210000D02*
X114300000Y-69850000D01*
X114300000Y-69850000D02*
X114300000Y-69850000D01*
X92710000Y-91440000D02*
X92710000Y-82550000D01*
X92710000Y-82550000D02*
X92710000Y-81280000D01*
X93980000Y-80010000D02*
X93980000Y-80010000D01*
X97790000Y-62230000D02*
X97790000Y-29210000D01*
X97790000Y-29210000D02*
X96520000Y-27940000D01*
X92710000Y-81280000D02*
X93980000Y-80010000D01*
X110490000Y-25400000D02*
X110490000Y-66040000D01*
X115570000Y-88900000D02*
X115570000Y-81280000D01*
X115570000Y-81280000D02*
X110490000Y-76200000D01*
X110490000Y-76200000D02*
X110490000Y-74930000D01*
X110490000Y-74930000D02*
X110490000Y-74930000D01*
X110490000Y-68580000D02*
X110490000Y-66040000D01*
X116840000Y-66040000D02*
X116840000Y-78740000D01*
X116840000Y-78740000D02*
X116840000Y-78740000D01*
D20*
X102870000Y-69850000D02*
X102870000Y-87630000D01*
X102870000Y-87630000D02*
X102870000Y-87630000D01*
D22*
G36*
X129413000Y-135763000D02*
G01*
X17907000Y-135763000D01*
X17907000Y-131840324D01*
X60475000Y-131840324D01*
X60475000Y-132339676D01*
X60572418Y-132829432D01*
X60763512Y-133290773D01*
X61040937Y-133705968D01*
X61394032Y-134059063D01*
X61809227Y-134336488D01*
X62270568Y-134527582D01*
X62760324Y-134625000D01*
X63259676Y-134625000D01*
X63749432Y-134527582D01*
X64210773Y-134336488D01*
X64625968Y-134059063D01*
X64979063Y-133705968D01*
X65256488Y-133290773D01*
X65447582Y-132829432D01*
X65545000Y-132339676D01*
X65545000Y-131840324D01*
X91475000Y-131840324D01*
X91475000Y-132339676D01*
X91572418Y-132829432D01*
X91763512Y-133290773D01*
X92040937Y-133705968D01*
X92394032Y-134059063D01*
X92809227Y-134336488D01*
X93270568Y-134527582D01*
X93760324Y-134625000D01*
X94259676Y-134625000D01*
X94749432Y-134527582D01*
X95210773Y-134336488D01*
X95625968Y-134059063D01*
X95979063Y-133705968D01*
X96256488Y-133290773D01*
X96447582Y-132829432D01*
X96545000Y-132339676D01*
X96545000Y-131840324D01*
X96447582Y-131350568D01*
X96256488Y-130889227D01*
X95979063Y-130474032D01*
X95625968Y-130120937D01*
X95210773Y-129843512D01*
X94749432Y-129652418D01*
X94259676Y-129555000D01*
X93760324Y-129555000D01*
X93270568Y-129652418D01*
X92809227Y-129843512D01*
X92394032Y-130120937D01*
X92040937Y-130474032D01*
X91763512Y-130889227D01*
X91572418Y-131350568D01*
X91475000Y-131840324D01*
X65545000Y-131840324D01*
X65447582Y-131350568D01*
X65256488Y-130889227D01*
X64979063Y-130474032D01*
X64625968Y-130120937D01*
X64210773Y-129843512D01*
X63749432Y-129652418D01*
X63259676Y-129555000D01*
X62760324Y-129555000D01*
X62270568Y-129652418D01*
X61809227Y-129843512D01*
X61394032Y-130120937D01*
X61040937Y-130474032D01*
X60763512Y-130889227D01*
X60572418Y-131350568D01*
X60475000Y-131840324D01*
X17907000Y-131840324D01*
X17907000Y-104840324D01*
X60475000Y-104840324D01*
X60475000Y-105339676D01*
X60572418Y-105829432D01*
X60763512Y-106290773D01*
X61040937Y-106705968D01*
X61394032Y-107059063D01*
X61809227Y-107336488D01*
X62270568Y-107527582D01*
X62760324Y-107625000D01*
X63259676Y-107625000D01*
X63749432Y-107527582D01*
X64210773Y-107336488D01*
X64625968Y-107059063D01*
X64979063Y-106705968D01*
X65256488Y-106290773D01*
X65447582Y-105829432D01*
X65545000Y-105339676D01*
X65545000Y-104840324D01*
X91475000Y-104840324D01*
X91475000Y-105339676D01*
X91572418Y-105829432D01*
X91763512Y-106290773D01*
X92040937Y-106705968D01*
X92394032Y-107059063D01*
X92809227Y-107336488D01*
X93270568Y-107527582D01*
X93760324Y-107625000D01*
X94259676Y-107625000D01*
X94749432Y-107527582D01*
X95210773Y-107336488D01*
X95625968Y-107059063D01*
X95979063Y-106705968D01*
X96256488Y-106290773D01*
X96447582Y-105829432D01*
X96545000Y-105339676D01*
X96545000Y-104840324D01*
X96447582Y-104350568D01*
X96256488Y-103889227D01*
X95979063Y-103474032D01*
X95625968Y-103120937D01*
X95210773Y-102843512D01*
X94749432Y-102652418D01*
X94259676Y-102555000D01*
X93760324Y-102555000D01*
X93270568Y-102652418D01*
X92809227Y-102843512D01*
X92394032Y-103120937D01*
X92040937Y-103474032D01*
X91763512Y-103889227D01*
X91572418Y-104350568D01*
X91475000Y-104840324D01*
X65545000Y-104840324D01*
X65447582Y-104350568D01*
X65256488Y-103889227D01*
X64979063Y-103474032D01*
X64625968Y-103120937D01*
X64210773Y-102843512D01*
X63749432Y-102652418D01*
X63259676Y-102555000D01*
X62760324Y-102555000D01*
X62270568Y-102652418D01*
X61809227Y-102843512D01*
X61394032Y-103120937D01*
X61040937Y-103474032D01*
X60763512Y-103889227D01*
X60572418Y-104350568D01*
X60475000Y-104840324D01*
X17907000Y-104840324D01*
X17907000Y-75900324D01*
X18915000Y-75900324D01*
X18915000Y-76399676D01*
X19012418Y-76889432D01*
X19203512Y-77350773D01*
X19480937Y-77765968D01*
X19834032Y-78119063D01*
X20249227Y-78396488D01*
X20710568Y-78587582D01*
X21200324Y-78685000D01*
X21699676Y-78685000D01*
X22189432Y-78587582D01*
X22650773Y-78396488D01*
X23065968Y-78119063D01*
X23419063Y-77765968D01*
X23696488Y-77350773D01*
X23887582Y-76889432D01*
X23985000Y-76399676D01*
X23985000Y-75900324D01*
X23887582Y-75410568D01*
X23696488Y-74949227D01*
X23419063Y-74534032D01*
X23065968Y-74180937D01*
X22650773Y-73903512D01*
X22189432Y-73712418D01*
X21699676Y-73615000D01*
X21200324Y-73615000D01*
X20710568Y-73712418D01*
X20249227Y-73903512D01*
X19834032Y-74180937D01*
X19480937Y-74534032D01*
X19203512Y-74949227D01*
X19012418Y-75410568D01*
X18915000Y-75900324D01*
X17907000Y-75900324D01*
X17907000Y-35448212D01*
X58555000Y-35448212D01*
X58555000Y-35671788D01*
X58598617Y-35891067D01*
X58684176Y-36097624D01*
X58808388Y-36283520D01*
X58930000Y-36405132D01*
X58930001Y-82512657D01*
X58926323Y-82550000D01*
X58930000Y-82587333D01*
X58930001Y-86784867D01*
X58808388Y-86906480D01*
X58684176Y-87092376D01*
X58598617Y-87298933D01*
X58555000Y-87518212D01*
X58555000Y-87741788D01*
X58598617Y-87961067D01*
X58684176Y-88167624D01*
X58808388Y-88353520D01*
X58966480Y-88511612D01*
X59152376Y-88635824D01*
X59358933Y-88721383D01*
X59578212Y-88765000D01*
X59801788Y-88765000D01*
X60021067Y-88721383D01*
X60227624Y-88635824D01*
X60413520Y-88511612D01*
X60571612Y-88353520D01*
X60695824Y-88167624D01*
X60781383Y-87961067D01*
X60825000Y-87741788D01*
X60825000Y-87518212D01*
X60781383Y-87298933D01*
X60695824Y-87092376D01*
X60571612Y-86906480D01*
X60450000Y-86784868D01*
X60450000Y-82587333D01*
X60453677Y-82550000D01*
X60450000Y-82512667D01*
X60450000Y-37988212D01*
X61095000Y-37988212D01*
X61095000Y-38211788D01*
X61138617Y-38431067D01*
X61224176Y-38637624D01*
X61348388Y-38823520D01*
X61470000Y-38945132D01*
X61470001Y-79972657D01*
X61466323Y-80010000D01*
X61470000Y-80047333D01*
X61470001Y-84244867D01*
X61348388Y-84366480D01*
X61224176Y-84552376D01*
X61138617Y-84758933D01*
X61095000Y-84978212D01*
X61095000Y-85201788D01*
X61138617Y-85421067D01*
X61224176Y-85627624D01*
X61348388Y-85813520D01*
X61506480Y-85971612D01*
X61692376Y-86095824D01*
X61898933Y-86181383D01*
X62118212Y-86225000D01*
X62341788Y-86225000D01*
X62561067Y-86181383D01*
X62767624Y-86095824D01*
X62953520Y-85971612D01*
X63111612Y-85813520D01*
X63235824Y-85627624D01*
X63321383Y-85421067D01*
X63365000Y-85201788D01*
X63365000Y-85090000D01*
X77247815Y-85090000D01*
X77276487Y-85381111D01*
X77361401Y-85661034D01*
X77499294Y-85919014D01*
X77684866Y-86145134D01*
X77910986Y-86330706D01*
X77965791Y-86360000D01*
X77910986Y-86389294D01*
X77684866Y-86574866D01*
X77499294Y-86800986D01*
X77361401Y-87058966D01*
X77276487Y-87338889D01*
X77247815Y-87630000D01*
X77276487Y-87921111D01*
X77361401Y-88201034D01*
X77499294Y-88459014D01*
X77684866Y-88685134D01*
X77910986Y-88870706D01*
X77965791Y-88900000D01*
X77910986Y-88929294D01*
X77684866Y-89114866D01*
X77499294Y-89340986D01*
X77361401Y-89598966D01*
X77276487Y-89878889D01*
X77247815Y-90170000D01*
X77276487Y-90461111D01*
X77361401Y-90741034D01*
X77499294Y-90999014D01*
X77684866Y-91225134D01*
X77910986Y-91410706D01*
X77965791Y-91440000D01*
X77910986Y-91469294D01*
X77684866Y-91654866D01*
X77499294Y-91880986D01*
X77361401Y-92138966D01*
X77276487Y-92418889D01*
X77247815Y-92710000D01*
X77276487Y-93001111D01*
X77361401Y-93281034D01*
X77499294Y-93539014D01*
X77684866Y-93765134D01*
X77910986Y-93950706D01*
X77965791Y-93980000D01*
X77910986Y-94009294D01*
X77684866Y-94194866D01*
X77499294Y-94420986D01*
X77361401Y-94678966D01*
X77276487Y-94958889D01*
X77247815Y-95250000D01*
X77276487Y-95541111D01*
X77361401Y-95821034D01*
X77499294Y-96079014D01*
X77684866Y-96305134D01*
X77910986Y-96490706D01*
X78168966Y-96628599D01*
X78448889Y-96713513D01*
X78667050Y-96735000D01*
X78812950Y-96735000D01*
X79031111Y-96713513D01*
X79311034Y-96628599D01*
X79569014Y-96490706D01*
X79795134Y-96305134D01*
X79980706Y-96079014D01*
X80118599Y-95821034D01*
X80203513Y-95541111D01*
X80232185Y-95250000D01*
X80203513Y-94958889D01*
X80118599Y-94678966D01*
X79980706Y-94420986D01*
X79795134Y-94194866D01*
X79569014Y-94009294D01*
X79514209Y-93980000D01*
X79569014Y-93950706D01*
X79795134Y-93765134D01*
X79980706Y-93539014D01*
X80118599Y-93281034D01*
X80203513Y-93001111D01*
X80232185Y-92710000D01*
X80203513Y-92418889D01*
X80118599Y-92138966D01*
X79980706Y-91880986D01*
X79795134Y-91654866D01*
X79569014Y-91469294D01*
X79514209Y-91440000D01*
X79569014Y-91410706D01*
X79795134Y-91225134D01*
X79980706Y-90999014D01*
X80118599Y-90741034D01*
X80203513Y-90461111D01*
X80232185Y-90170000D01*
X80203513Y-89878889D01*
X80118599Y-89598966D01*
X79980706Y-89340986D01*
X79795134Y-89114866D01*
X79569014Y-88929294D01*
X79514209Y-88900000D01*
X79569014Y-88870706D01*
X79795134Y-88685134D01*
X79980706Y-88459014D01*
X80118599Y-88201034D01*
X80203513Y-87921111D01*
X80232185Y-87630000D01*
X80203513Y-87338889D01*
X80118599Y-87058966D01*
X79980706Y-86800986D01*
X79795134Y-86574866D01*
X79569014Y-86389294D01*
X79514209Y-86360000D01*
X79569014Y-86330706D01*
X79795134Y-86145134D01*
X79980706Y-85919014D01*
X80118599Y-85661034D01*
X80203513Y-85381111D01*
X80232185Y-85090000D01*
X80203513Y-84798889D01*
X80118599Y-84518966D01*
X79980706Y-84260986D01*
X79795134Y-84034866D01*
X79765313Y-84010393D01*
X79834180Y-83989502D01*
X79944494Y-83930537D01*
X80041185Y-83851185D01*
X80120537Y-83754494D01*
X80179502Y-83644180D01*
X80215812Y-83524482D01*
X80228072Y-83400000D01*
X80228072Y-81700000D01*
X80215812Y-81575518D01*
X80179502Y-81455820D01*
X80120537Y-81345506D01*
X80041185Y-81248815D01*
X79944494Y-81169463D01*
X79834180Y-81110498D01*
X79714482Y-81074188D01*
X79590000Y-81061928D01*
X77890000Y-81061928D01*
X77765518Y-81074188D01*
X77645820Y-81110498D01*
X77535506Y-81169463D01*
X77438815Y-81248815D01*
X77359463Y-81345506D01*
X77300498Y-81455820D01*
X77264188Y-81575518D01*
X77251928Y-81700000D01*
X77251928Y-83400000D01*
X77264188Y-83524482D01*
X77300498Y-83644180D01*
X77359463Y-83754494D01*
X77438815Y-83851185D01*
X77535506Y-83930537D01*
X77645820Y-83989502D01*
X77714687Y-84010393D01*
X77684866Y-84034866D01*
X77499294Y-84260986D01*
X77361401Y-84518966D01*
X77276487Y-84798889D01*
X77247815Y-85090000D01*
X63365000Y-85090000D01*
X63365000Y-84978212D01*
X63321383Y-84758933D01*
X63235824Y-84552376D01*
X63111612Y-84366480D01*
X62990000Y-84244868D01*
X62990000Y-80047333D01*
X62993677Y-80010000D01*
X62990000Y-79972667D01*
X62990000Y-40528212D01*
X64905000Y-40528212D01*
X64905000Y-40751788D01*
X64948617Y-40971067D01*
X65034176Y-41177624D01*
X65158388Y-41363520D01*
X65280000Y-41485132D01*
X65280001Y-81704867D01*
X65158388Y-81826480D01*
X65034176Y-82012376D01*
X64948617Y-82218933D01*
X64905000Y-82438212D01*
X64905000Y-82661788D01*
X64948617Y-82881067D01*
X65034176Y-83087624D01*
X65158388Y-83273520D01*
X65316480Y-83431612D01*
X65502376Y-83555824D01*
X65708933Y-83641383D01*
X65928212Y-83685000D01*
X66151788Y-83685000D01*
X66371067Y-83641383D01*
X66577624Y-83555824D01*
X66763520Y-83431612D01*
X66921612Y-83273520D01*
X67045824Y-83087624D01*
X67131383Y-82881067D01*
X67175000Y-82661788D01*
X67175000Y-82438212D01*
X67131383Y-82218933D01*
X67045824Y-82012376D01*
X66921612Y-81826480D01*
X66800000Y-81704868D01*
X66800000Y-75900324D01*
X67915000Y-75900324D01*
X67915000Y-76399676D01*
X68012418Y-76889432D01*
X68203512Y-77350773D01*
X68480937Y-77765968D01*
X68834032Y-78119063D01*
X69249227Y-78396488D01*
X69710568Y-78587582D01*
X70200324Y-78685000D01*
X70699676Y-78685000D01*
X71189432Y-78587582D01*
X71650773Y-78396488D01*
X72065968Y-78119063D01*
X72419063Y-77765968D01*
X72696488Y-77350773D01*
X72887582Y-76889432D01*
X72985000Y-76399676D01*
X72985000Y-75900324D01*
X72887582Y-75410568D01*
X72696488Y-74949227D01*
X72419063Y-74534032D01*
X72065968Y-74180937D01*
X71650773Y-73903512D01*
X71189432Y-73712418D01*
X70699676Y-73615000D01*
X70200324Y-73615000D01*
X69710568Y-73712418D01*
X69249227Y-73903512D01*
X68834032Y-74180937D01*
X68480937Y-74534032D01*
X68203512Y-74949227D01*
X68012418Y-75410568D01*
X67915000Y-75900324D01*
X66800000Y-75900324D01*
X66800000Y-41485132D01*
X66921612Y-41363520D01*
X67045824Y-41177624D01*
X67131383Y-40971067D01*
X67175000Y-40751788D01*
X67175000Y-40528212D01*
X67131383Y-40308933D01*
X67045824Y-40102376D01*
X66921612Y-39916480D01*
X66763520Y-39758388D01*
X66577624Y-39634176D01*
X66371067Y-39548617D01*
X66151788Y-39505000D01*
X65928212Y-39505000D01*
X65708933Y-39548617D01*
X65502376Y-39634176D01*
X65316480Y-39758388D01*
X65158388Y-39916480D01*
X65034176Y-40102376D01*
X64948617Y-40308933D01*
X64905000Y-40528212D01*
X62990000Y-40528212D01*
X62990000Y-38945132D01*
X63111612Y-38823520D01*
X63235824Y-38637624D01*
X63321383Y-38431067D01*
X63365000Y-38211788D01*
X63365000Y-37988212D01*
X63321383Y-37768933D01*
X63235824Y-37562376D01*
X63111612Y-37376480D01*
X62953520Y-37218388D01*
X62767624Y-37094176D01*
X62561067Y-37008617D01*
X62341788Y-36965000D01*
X62118212Y-36965000D01*
X61898933Y-37008617D01*
X61692376Y-37094176D01*
X61506480Y-37218388D01*
X61348388Y-37376480D01*
X61224176Y-37562376D01*
X61138617Y-37768933D01*
X61095000Y-37988212D01*
X60450000Y-37988212D01*
X60450000Y-36405132D01*
X60571612Y-36283520D01*
X60695824Y-36097624D01*
X60781383Y-35891067D01*
X60825000Y-35671788D01*
X60825000Y-35448212D01*
X60781383Y-35228933D01*
X60695824Y-35022376D01*
X60571612Y-34836480D01*
X60413520Y-34678388D01*
X60227624Y-34554176D01*
X60021067Y-34468617D01*
X59801788Y-34425000D01*
X59578212Y-34425000D01*
X59358933Y-34468617D01*
X59152376Y-34554176D01*
X58966480Y-34678388D01*
X58808388Y-34836480D01*
X58684176Y-35022376D01*
X58598617Y-35228933D01*
X58555000Y-35448212D01*
X17907000Y-35448212D01*
X17907000Y-25400000D01*
X75977815Y-25400000D01*
X76006487Y-25691111D01*
X76091401Y-25971034D01*
X76229294Y-26229014D01*
X76414866Y-26455134D01*
X76640986Y-26640706D01*
X76695791Y-26670000D01*
X76640986Y-26699294D01*
X76414866Y-26884866D01*
X76229294Y-27110986D01*
X76091401Y-27368966D01*
X76006487Y-27648889D01*
X75977815Y-27940000D01*
X76006487Y-28231111D01*
X76091401Y-28511034D01*
X76229294Y-28769014D01*
X76414866Y-28995134D01*
X76640986Y-29180706D01*
X76695791Y-29210000D01*
X76640986Y-29239294D01*
X76414866Y-29424866D01*
X76229294Y-29650986D01*
X76091401Y-29908966D01*
X76006487Y-30188889D01*
X75977815Y-30480000D01*
X76006487Y-30771111D01*
X76091401Y-31051034D01*
X76229294Y-31309014D01*
X76414866Y-31535134D01*
X76640986Y-31720706D01*
X76695791Y-31750000D01*
X76640986Y-31779294D01*
X76414866Y-31964866D01*
X76229294Y-32190986D01*
X76091401Y-32448966D01*
X76006487Y-32728889D01*
X75977815Y-33020000D01*
X76006487Y-33311111D01*
X76091401Y-33591034D01*
X76229294Y-33849014D01*
X76414866Y-34075134D01*
X76640986Y-34260706D01*
X76695791Y-34290000D01*
X76640986Y-34319294D01*
X76414866Y-34504866D01*
X76229294Y-34730986D01*
X76091401Y-34988966D01*
X76006487Y-35268889D01*
X75977815Y-35560000D01*
X76006487Y-35851111D01*
X76091401Y-36131034D01*
X76229294Y-36389014D01*
X76414866Y-36615134D01*
X76640986Y-36800706D01*
X76695791Y-36830000D01*
X76640986Y-36859294D01*
X76414866Y-37044866D01*
X76229294Y-37270986D01*
X76091401Y-37528966D01*
X76006487Y-37808889D01*
X75977815Y-38100000D01*
X76006487Y-38391111D01*
X76091401Y-38671034D01*
X76229294Y-38929014D01*
X76414866Y-39155134D01*
X76640986Y-39340706D01*
X76695791Y-39370000D01*
X76640986Y-39399294D01*
X76414866Y-39584866D01*
X76229294Y-39810986D01*
X76091401Y-40068966D01*
X76006487Y-40348889D01*
X75977815Y-40640000D01*
X76006487Y-40931111D01*
X76091401Y-41211034D01*
X76229294Y-41469014D01*
X76414866Y-41695134D01*
X76640986Y-41880706D01*
X76695791Y-41910000D01*
X76640986Y-41939294D01*
X76414866Y-42124866D01*
X76229294Y-42350986D01*
X76091401Y-42608966D01*
X76006487Y-42888889D01*
X75977815Y-43180000D01*
X76006487Y-43471111D01*
X76091401Y-43751034D01*
X76229294Y-44009014D01*
X76414866Y-44235134D01*
X76640986Y-44420706D01*
X76695791Y-44450000D01*
X76640986Y-44479294D01*
X76414866Y-44664866D01*
X76229294Y-44890986D01*
X76091401Y-45148966D01*
X76006487Y-45428889D01*
X75977815Y-45720000D01*
X76006487Y-46011111D01*
X76091401Y-46291034D01*
X76229294Y-46549014D01*
X76414866Y-46775134D01*
X76640986Y-46960706D01*
X76695791Y-46990000D01*
X76640986Y-47019294D01*
X76414866Y-47204866D01*
X76229294Y-47430986D01*
X76091401Y-47688966D01*
X76006487Y-47968889D01*
X75977815Y-48260000D01*
X76006487Y-48551111D01*
X76091401Y-48831034D01*
X76229294Y-49089014D01*
X76414866Y-49315134D01*
X76640986Y-49500706D01*
X76695791Y-49530000D01*
X76640986Y-49559294D01*
X76414866Y-49744866D01*
X76229294Y-49970986D01*
X76091401Y-50228966D01*
X76006487Y-50508889D01*
X75977815Y-50800000D01*
X76006487Y-51091111D01*
X76091401Y-51371034D01*
X76229294Y-51629014D01*
X76414866Y-51855134D01*
X76640986Y-52040706D01*
X76695791Y-52070000D01*
X76640986Y-52099294D01*
X76414866Y-52284866D01*
X76229294Y-52510986D01*
X76091401Y-52768966D01*
X76006487Y-53048889D01*
X75977815Y-53340000D01*
X76006487Y-53631111D01*
X76091401Y-53911034D01*
X76229294Y-54169014D01*
X76414866Y-54395134D01*
X76640986Y-54580706D01*
X76695791Y-54610000D01*
X76640986Y-54639294D01*
X76414866Y-54824866D01*
X76229294Y-55050986D01*
X76091401Y-55308966D01*
X76006487Y-55588889D01*
X75977815Y-55880000D01*
X76006487Y-56171111D01*
X76091401Y-56451034D01*
X76229294Y-56709014D01*
X76414866Y-56935134D01*
X76640986Y-57120706D01*
X76695791Y-57150000D01*
X76640986Y-57179294D01*
X76414866Y-57364866D01*
X76229294Y-57590986D01*
X76091401Y-57848966D01*
X76006487Y-58128889D01*
X75977815Y-58420000D01*
X76006487Y-58711111D01*
X76091401Y-58991034D01*
X76229294Y-59249014D01*
X76414866Y-59475134D01*
X76640986Y-59660706D01*
X76695791Y-59690000D01*
X76640986Y-59719294D01*
X76414866Y-59904866D01*
X76229294Y-60130986D01*
X76091401Y-60388966D01*
X76006487Y-60668889D01*
X75977815Y-60960000D01*
X76006487Y-61251111D01*
X76091401Y-61531034D01*
X76229294Y-61789014D01*
X76414866Y-62015134D01*
X76640986Y-62200706D01*
X76695791Y-62230000D01*
X76640986Y-62259294D01*
X76414866Y-62444866D01*
X76229294Y-62670986D01*
X76091401Y-62928966D01*
X76006487Y-63208889D01*
X75977815Y-63500000D01*
X76006487Y-63791111D01*
X76091401Y-64071034D01*
X76229294Y-64329014D01*
X76414866Y-64555134D01*
X76640986Y-64740706D01*
X76695791Y-64770000D01*
X76640986Y-64799294D01*
X76414866Y-64984866D01*
X76229294Y-65210986D01*
X76091401Y-65468966D01*
X76006487Y-65748889D01*
X75977815Y-66040000D01*
X76006487Y-66331111D01*
X76091401Y-66611034D01*
X76229294Y-66869014D01*
X76414866Y-67095134D01*
X76640986Y-67280706D01*
X76695791Y-67310000D01*
X76640986Y-67339294D01*
X76414866Y-67524866D01*
X76229294Y-67750986D01*
X76091401Y-68008966D01*
X76006487Y-68288889D01*
X75977815Y-68580000D01*
X76006487Y-68871111D01*
X76091401Y-69151034D01*
X76229294Y-69409014D01*
X76414866Y-69635134D01*
X76640986Y-69820706D01*
X76695791Y-69850000D01*
X76640986Y-69879294D01*
X76414866Y-70064866D01*
X76229294Y-70290986D01*
X76091401Y-70548966D01*
X76006487Y-70828889D01*
X75977815Y-71120000D01*
X76006487Y-71411111D01*
X76091401Y-71691034D01*
X76229294Y-71949014D01*
X76414866Y-72175134D01*
X76640986Y-72360706D01*
X76898966Y-72498599D01*
X77178889Y-72583513D01*
X77397050Y-72605000D01*
X77542950Y-72605000D01*
X77761111Y-72583513D01*
X78041034Y-72498599D01*
X78299014Y-72360706D01*
X78525134Y-72175134D01*
X78710706Y-71949014D01*
X78740000Y-71894209D01*
X78769294Y-71949014D01*
X78954866Y-72175134D01*
X79180986Y-72360706D01*
X79438966Y-72498599D01*
X79718889Y-72583513D01*
X79937050Y-72605000D01*
X80082950Y-72605000D01*
X80301111Y-72583513D01*
X80581034Y-72498599D01*
X80839014Y-72360706D01*
X81065134Y-72175134D01*
X81250706Y-71949014D01*
X81388599Y-71691034D01*
X81473513Y-71411111D01*
X81502185Y-71120000D01*
X81473513Y-70828889D01*
X81388599Y-70548966D01*
X81250706Y-70290986D01*
X81065134Y-70064866D01*
X80839014Y-69879294D01*
X80784209Y-69850000D01*
X80839014Y-69820706D01*
X81065134Y-69635134D01*
X81250706Y-69409014D01*
X81388599Y-69151034D01*
X81473513Y-68871111D01*
X81502185Y-68580000D01*
X81473513Y-68288889D01*
X81388599Y-68008966D01*
X81250706Y-67750986D01*
X81065134Y-67524866D01*
X80839014Y-67339294D01*
X80784209Y-67310000D01*
X80839014Y-67280706D01*
X81065134Y-67095134D01*
X81250706Y-66869014D01*
X81388599Y-66611034D01*
X81473513Y-66331111D01*
X81502185Y-66040000D01*
X81473513Y-65748889D01*
X81388599Y-65468966D01*
X81250706Y-65210986D01*
X81065134Y-64984866D01*
X80839014Y-64799294D01*
X80784209Y-64770000D01*
X80839014Y-64740706D01*
X81065134Y-64555134D01*
X81250706Y-64329014D01*
X81388599Y-64071034D01*
X81473513Y-63791111D01*
X81502185Y-63500000D01*
X81473513Y-63208889D01*
X81388599Y-62928966D01*
X81250706Y-62670986D01*
X81065134Y-62444866D01*
X80839014Y-62259294D01*
X80784209Y-62230000D01*
X80839014Y-62200706D01*
X81065134Y-62015134D01*
X81250706Y-61789014D01*
X81388599Y-61531034D01*
X81473513Y-61251111D01*
X81502185Y-60960000D01*
X81473513Y-60668889D01*
X81388599Y-60388966D01*
X81250706Y-60130986D01*
X81065134Y-59904866D01*
X80839014Y-59719294D01*
X80784209Y-59690000D01*
X80839014Y-59660706D01*
X81065134Y-59475134D01*
X81250706Y-59249014D01*
X81388599Y-58991034D01*
X81473513Y-58711111D01*
X81502185Y-58420000D01*
X81473513Y-58128889D01*
X81388599Y-57848966D01*
X81250706Y-57590986D01*
X81065134Y-57364866D01*
X80839014Y-57179294D01*
X80784209Y-57150000D01*
X80839014Y-57120706D01*
X81065134Y-56935134D01*
X81250706Y-56709014D01*
X81388599Y-56451034D01*
X81473513Y-56171111D01*
X81502185Y-55880000D01*
X81473513Y-55588889D01*
X81388599Y-55308966D01*
X81250706Y-55050986D01*
X81065134Y-54824866D01*
X80839014Y-54639294D01*
X80784209Y-54610000D01*
X80839014Y-54580706D01*
X81065134Y-54395134D01*
X81250706Y-54169014D01*
X81388599Y-53911034D01*
X81473513Y-53631111D01*
X81502185Y-53340000D01*
X81473513Y-53048889D01*
X81388599Y-52768966D01*
X81250706Y-52510986D01*
X81065134Y-52284866D01*
X80839014Y-52099294D01*
X80784209Y-52070000D01*
X80839014Y-52040706D01*
X81065134Y-51855134D01*
X81250706Y-51629014D01*
X81388599Y-51371034D01*
X81473513Y-51091111D01*
X81502185Y-50800000D01*
X81473513Y-50508889D01*
X81388599Y-50228966D01*
X81250706Y-49970986D01*
X81065134Y-49744866D01*
X80839014Y-49559294D01*
X80784209Y-49530000D01*
X80839014Y-49500706D01*
X81065134Y-49315134D01*
X81250706Y-49089014D01*
X81388599Y-48831034D01*
X81473513Y-48551111D01*
X81502185Y-48260000D01*
X81473513Y-47968889D01*
X81388599Y-47688966D01*
X81250706Y-47430986D01*
X81065134Y-47204866D01*
X80839014Y-47019294D01*
X80784209Y-46990000D01*
X80839014Y-46960706D01*
X81065134Y-46775134D01*
X81250706Y-46549014D01*
X81388599Y-46291034D01*
X81460219Y-46054935D01*
X81544176Y-46257624D01*
X81668388Y-46443520D01*
X81790000Y-46565132D01*
X81790001Y-94404867D01*
X81668388Y-94526480D01*
X81544176Y-94712376D01*
X81458617Y-94918933D01*
X81415000Y-95138212D01*
X81415000Y-95361788D01*
X81458617Y-95581067D01*
X81544176Y-95787624D01*
X81668388Y-95973520D01*
X81826480Y-96131612D01*
X82012376Y-96255824D01*
X82218933Y-96341383D01*
X82438212Y-96385000D01*
X82661788Y-96385000D01*
X82881067Y-96341383D01*
X83087624Y-96255824D01*
X83273520Y-96131612D01*
X83431612Y-95973520D01*
X83555824Y-95787624D01*
X83641383Y-95581067D01*
X83685000Y-95361788D01*
X83685000Y-95250000D01*
X89947815Y-95250000D01*
X89976487Y-95541111D01*
X90061401Y-95821034D01*
X90199294Y-96079014D01*
X90384866Y-96305134D01*
X90610986Y-96490706D01*
X90868966Y-96628599D01*
X91148889Y-96713513D01*
X91367050Y-96735000D01*
X91512950Y-96735000D01*
X91731111Y-96713513D01*
X92011034Y-96628599D01*
X92269014Y-96490706D01*
X92495134Y-96305134D01*
X92680706Y-96079014D01*
X92715201Y-96014477D01*
X92784822Y-96131355D01*
X92979731Y-96347588D01*
X93213080Y-96521641D01*
X93475901Y-96646825D01*
X93623110Y-96691476D01*
X93853000Y-96570155D01*
X93853000Y-95377000D01*
X93833000Y-95377000D01*
X93833000Y-95123000D01*
X93853000Y-95123000D01*
X93853000Y-93929845D01*
X94107000Y-93929845D01*
X94107000Y-95123000D01*
X94127000Y-95123000D01*
X94127000Y-95377000D01*
X94107000Y-95377000D01*
X94107000Y-96570155D01*
X94336890Y-96691476D01*
X94484099Y-96646825D01*
X94746920Y-96521641D01*
X94980269Y-96347588D01*
X95056034Y-96263534D01*
X95080498Y-96344180D01*
X95139463Y-96454494D01*
X95218815Y-96551185D01*
X95315506Y-96630537D01*
X95425820Y-96689502D01*
X95545518Y-96725812D01*
X95670000Y-96738072D01*
X97370000Y-96738072D01*
X97494482Y-96725812D01*
X97614180Y-96689502D01*
X97724494Y-96630537D01*
X97821185Y-96551185D01*
X97900537Y-96454494D01*
X97959502Y-96344180D01*
X97995812Y-96224482D01*
X98008072Y-96100000D01*
X98008072Y-95250000D01*
X102647815Y-95250000D01*
X102676487Y-95541111D01*
X102761401Y-95821034D01*
X102899294Y-96079014D01*
X103084866Y-96305134D01*
X103310986Y-96490706D01*
X103568966Y-96628599D01*
X103848889Y-96713513D01*
X104067050Y-96735000D01*
X104212950Y-96735000D01*
X104431111Y-96713513D01*
X104711034Y-96628599D01*
X104969014Y-96490706D01*
X105195134Y-96305134D01*
X105380706Y-96079014D01*
X105415201Y-96014477D01*
X105484822Y-96131355D01*
X105679731Y-96347588D01*
X105913080Y-96521641D01*
X106175901Y-96646825D01*
X106323110Y-96691476D01*
X106553000Y-96570155D01*
X106553000Y-95377000D01*
X106533000Y-95377000D01*
X106533000Y-95123000D01*
X106553000Y-95123000D01*
X106553000Y-93929845D01*
X106807000Y-93929845D01*
X106807000Y-95123000D01*
X106827000Y-95123000D01*
X106827000Y-95377000D01*
X106807000Y-95377000D01*
X106807000Y-96570155D01*
X107036890Y-96691476D01*
X107184099Y-96646825D01*
X107446920Y-96521641D01*
X107680269Y-96347588D01*
X107756034Y-96263534D01*
X107780498Y-96344180D01*
X107839463Y-96454494D01*
X107918815Y-96551185D01*
X108015506Y-96630537D01*
X108125820Y-96689502D01*
X108245518Y-96725812D01*
X108370000Y-96738072D01*
X110070000Y-96738072D01*
X110194482Y-96725812D01*
X110314180Y-96689502D01*
X110424494Y-96630537D01*
X110521185Y-96551185D01*
X110600537Y-96454494D01*
X110659502Y-96344180D01*
X110695812Y-96224482D01*
X110708072Y-96100000D01*
X110708072Y-94400000D01*
X110695812Y-94275518D01*
X110659502Y-94155820D01*
X110600537Y-94045506D01*
X110521185Y-93948815D01*
X110424494Y-93869463D01*
X110314180Y-93810498D01*
X110194482Y-93774188D01*
X110070000Y-93761928D01*
X108370000Y-93761928D01*
X108245518Y-93774188D01*
X108125820Y-93810498D01*
X108015506Y-93869463D01*
X107918815Y-93948815D01*
X107839463Y-94045506D01*
X107780498Y-94155820D01*
X107756034Y-94236466D01*
X107680269Y-94152412D01*
X107446920Y-93978359D01*
X107184099Y-93853175D01*
X107036890Y-93808524D01*
X106807000Y-93929845D01*
X106553000Y-93929845D01*
X106323110Y-93808524D01*
X106175901Y-93853175D01*
X105913080Y-93978359D01*
X105679731Y-94152412D01*
X105484822Y-94368645D01*
X105415201Y-94485523D01*
X105380706Y-94420986D01*
X105195134Y-94194866D01*
X104969014Y-94009294D01*
X104711034Y-93871401D01*
X104431111Y-93786487D01*
X104212950Y-93765000D01*
X104067050Y-93765000D01*
X103848889Y-93786487D01*
X103568966Y-93871401D01*
X103310986Y-94009294D01*
X103084866Y-94194866D01*
X102899294Y-94420986D01*
X102761401Y-94678966D01*
X102676487Y-94958889D01*
X102647815Y-95250000D01*
X98008072Y-95250000D01*
X98008072Y-94400000D01*
X97995812Y-94275518D01*
X97959502Y-94155820D01*
X97900537Y-94045506D01*
X97821185Y-93948815D01*
X97724494Y-93869463D01*
X97614180Y-93810498D01*
X97494482Y-93774188D01*
X97370000Y-93761928D01*
X95670000Y-93761928D01*
X95545518Y-93774188D01*
X95425820Y-93810498D01*
X95315506Y-93869463D01*
X95218815Y-93948815D01*
X95139463Y-94045506D01*
X95080498Y-94155820D01*
X95056034Y-94236466D01*
X94980269Y-94152412D01*
X94746920Y-93978359D01*
X94484099Y-93853175D01*
X94336890Y-93808524D01*
X94107000Y-93929845D01*
X93853000Y-93929845D01*
X93623110Y-93808524D01*
X93475901Y-93853175D01*
X93213080Y-93978359D01*
X92979731Y-94152412D01*
X92784822Y-94368645D01*
X92715201Y-94485523D01*
X92680706Y-94420986D01*
X92495134Y-94194866D01*
X92269014Y-94009294D01*
X92011034Y-93871401D01*
X91731111Y-93786487D01*
X91512950Y-93765000D01*
X91367050Y-93765000D01*
X91148889Y-93786487D01*
X90868966Y-93871401D01*
X90610986Y-94009294D01*
X90384866Y-94194866D01*
X90199294Y-94420986D01*
X90061401Y-94678966D01*
X89976487Y-94958889D01*
X89947815Y-95250000D01*
X83685000Y-95250000D01*
X83685000Y-95138212D01*
X83641383Y-94918933D01*
X83555824Y-94712376D01*
X83431612Y-94526480D01*
X83310000Y-94404868D01*
X83310000Y-60848212D01*
X83955000Y-60848212D01*
X83955000Y-61071788D01*
X83998617Y-61291067D01*
X84084176Y-61497624D01*
X84208388Y-61683520D01*
X84330000Y-61805132D01*
X84330001Y-89324867D01*
X84208388Y-89446480D01*
X84084176Y-89632376D01*
X83998617Y-89838933D01*
X83955000Y-90058212D01*
X83955000Y-90281788D01*
X83998617Y-90501067D01*
X84084176Y-90707624D01*
X84208388Y-90893520D01*
X84366480Y-91051612D01*
X84552376Y-91175824D01*
X84758933Y-91261383D01*
X84978212Y-91305000D01*
X85201788Y-91305000D01*
X85421067Y-91261383D01*
X85627624Y-91175824D01*
X85813520Y-91051612D01*
X85971612Y-90893520D01*
X86095824Y-90707624D01*
X86181383Y-90501067D01*
X86225000Y-90281788D01*
X86225000Y-90058212D01*
X86181383Y-89838933D01*
X86095824Y-89632376D01*
X85971612Y-89446480D01*
X85850000Y-89324868D01*
X85850000Y-63388212D01*
X86495000Y-63388212D01*
X86495000Y-63611788D01*
X86538617Y-63831067D01*
X86624176Y-64037624D01*
X86748388Y-64223520D01*
X86870000Y-64345132D01*
X86870001Y-91864867D01*
X86748388Y-91986480D01*
X86624176Y-92172376D01*
X86538617Y-92378933D01*
X86495000Y-92598212D01*
X86495000Y-92821788D01*
X86538617Y-93041067D01*
X86624176Y-93247624D01*
X86748388Y-93433520D01*
X86906480Y-93591612D01*
X87092376Y-93715824D01*
X87298933Y-93801383D01*
X87518212Y-93845000D01*
X87741788Y-93845000D01*
X87961067Y-93801383D01*
X88167624Y-93715824D01*
X88353520Y-93591612D01*
X88511612Y-93433520D01*
X88635824Y-93247624D01*
X88721383Y-93041067D01*
X88765000Y-92821788D01*
X88765000Y-92598212D01*
X88721383Y-92378933D01*
X88635824Y-92172376D01*
X88511612Y-91986480D01*
X88390000Y-91864868D01*
X88390000Y-91328212D01*
X89035000Y-91328212D01*
X89035000Y-91551788D01*
X89078617Y-91771067D01*
X89164176Y-91977624D01*
X89288388Y-92163520D01*
X89446480Y-92321612D01*
X89632376Y-92445824D01*
X89838933Y-92531383D01*
X90058212Y-92575000D01*
X90281788Y-92575000D01*
X90501067Y-92531383D01*
X90707624Y-92445824D01*
X90893520Y-92321612D01*
X91051612Y-92163520D01*
X91175824Y-91977624D01*
X91261383Y-91771067D01*
X91305000Y-91551788D01*
X91305000Y-91328212D01*
X99195000Y-91328212D01*
X99195000Y-91551788D01*
X99238617Y-91771067D01*
X99324176Y-91977624D01*
X99448388Y-92163520D01*
X99606480Y-92321612D01*
X99792376Y-92445824D01*
X99998933Y-92531383D01*
X100218212Y-92575000D01*
X100441788Y-92575000D01*
X100661067Y-92531383D01*
X100867624Y-92445824D01*
X101053520Y-92321612D01*
X101211612Y-92163520D01*
X101335824Y-91977624D01*
X101421383Y-91771067D01*
X101465000Y-91551788D01*
X101465000Y-91328212D01*
X101421383Y-91108933D01*
X101335824Y-90902376D01*
X101211612Y-90716480D01*
X101090000Y-90594868D01*
X101090000Y-69738212D01*
X101735000Y-69738212D01*
X101735000Y-69961788D01*
X101778617Y-70181067D01*
X101864176Y-70387624D01*
X101988388Y-70573520D01*
X102110000Y-70695132D01*
X102110001Y-86784867D01*
X101988388Y-86906480D01*
X101864176Y-87092376D01*
X101778617Y-87298933D01*
X101735000Y-87518212D01*
X101735000Y-87741788D01*
X101778617Y-87961067D01*
X101864176Y-88167624D01*
X101988388Y-88353520D01*
X102146480Y-88511612D01*
X102332376Y-88635824D01*
X102538933Y-88721383D01*
X102758212Y-88765000D01*
X102981788Y-88765000D01*
X103201067Y-88721383D01*
X103407624Y-88635824D01*
X103593520Y-88511612D01*
X103751612Y-88353520D01*
X103875824Y-88167624D01*
X103961383Y-87961067D01*
X104005000Y-87741788D01*
X104005000Y-87518212D01*
X103961383Y-87298933D01*
X103875824Y-87092376D01*
X103751612Y-86906480D01*
X103630000Y-86784868D01*
X103630000Y-84720000D01*
X107681928Y-84720000D01*
X107694188Y-84844482D01*
X107730498Y-84964180D01*
X107789463Y-85074494D01*
X107868815Y-85171185D01*
X107965506Y-85250537D01*
X108075820Y-85309502D01*
X108195518Y-85345812D01*
X108320000Y-85358072D01*
X108934250Y-85355000D01*
X109093000Y-85196250D01*
X109093000Y-83947000D01*
X107843750Y-83947000D01*
X107685000Y-84105750D01*
X107681928Y-84720000D01*
X103630000Y-84720000D01*
X103630000Y-82920000D01*
X107681928Y-82920000D01*
X107685000Y-83534250D01*
X107843750Y-83693000D01*
X109093000Y-83693000D01*
X109093000Y-82443750D01*
X109347000Y-82443750D01*
X109347000Y-83693000D01*
X109367000Y-83693000D01*
X109367000Y-83947000D01*
X109347000Y-83947000D01*
X109347000Y-85196250D01*
X109505750Y-85355000D01*
X110120000Y-85358072D01*
X110244482Y-85345812D01*
X110364180Y-85309502D01*
X110474494Y-85250537D01*
X110571185Y-85171185D01*
X110650537Y-85074494D01*
X110709502Y-84964180D01*
X110715056Y-84945873D01*
X110781495Y-85012312D01*
X111032905Y-85180299D01*
X111312257Y-85296011D01*
X111608816Y-85355000D01*
X111911184Y-85355000D01*
X112207743Y-85296011D01*
X112487095Y-85180299D01*
X112738505Y-85012312D01*
X112952312Y-84798505D01*
X113120299Y-84547095D01*
X113236011Y-84267743D01*
X113295000Y-83971184D01*
X113295000Y-83668816D01*
X113236011Y-83372257D01*
X113120299Y-83092905D01*
X112952312Y-82841495D01*
X112738505Y-82627688D01*
X112487095Y-82459701D01*
X112207743Y-82343989D01*
X111911184Y-82285000D01*
X111608816Y-82285000D01*
X111312257Y-82343989D01*
X111032905Y-82459701D01*
X110781495Y-82627688D01*
X110715056Y-82694127D01*
X110709502Y-82675820D01*
X110650537Y-82565506D01*
X110571185Y-82468815D01*
X110474494Y-82389463D01*
X110364180Y-82330498D01*
X110244482Y-82294188D01*
X110120000Y-82281928D01*
X109505750Y-82285000D01*
X109347000Y-82443750D01*
X109093000Y-82443750D01*
X108934250Y-82285000D01*
X108320000Y-82281928D01*
X108195518Y-82294188D01*
X108075820Y-82330498D01*
X107965506Y-82389463D01*
X107868815Y-82468815D01*
X107789463Y-82565506D01*
X107730498Y-82675820D01*
X107694188Y-82795518D01*
X107681928Y-82920000D01*
X103630000Y-82920000D01*
X103630000Y-74818212D01*
X109355000Y-74818212D01*
X109355000Y-75041788D01*
X109398617Y-75261067D01*
X109475001Y-75445473D01*
X109475000Y-76150139D01*
X109470089Y-76200000D01*
X109475000Y-76249860D01*
X109475000Y-76249862D01*
X109489686Y-76398974D01*
X109547725Y-76590302D01*
X109641975Y-76766632D01*
X109768814Y-76921186D01*
X109807554Y-76952979D01*
X114555001Y-81700427D01*
X114555000Y-88384529D01*
X114478617Y-88568933D01*
X114435000Y-88788212D01*
X114435000Y-89011788D01*
X114478617Y-89231067D01*
X114564176Y-89437624D01*
X114688388Y-89623520D01*
X114846480Y-89781612D01*
X115032376Y-89905824D01*
X115238933Y-89991383D01*
X115458212Y-90035000D01*
X115681788Y-90035000D01*
X115901067Y-89991383D01*
X116107624Y-89905824D01*
X116293520Y-89781612D01*
X116451612Y-89623520D01*
X116575824Y-89437624D01*
X116661383Y-89231067D01*
X116705000Y-89011788D01*
X116705000Y-88788212D01*
X116661383Y-88568933D01*
X116585000Y-88384529D01*
X116585000Y-81329860D01*
X116589911Y-81280000D01*
X116579024Y-81169463D01*
X116570314Y-81081025D01*
X116512275Y-80889697D01*
X116512275Y-80889696D01*
X116418025Y-80713367D01*
X116361896Y-80644974D01*
X116291186Y-80558814D01*
X116252451Y-80527025D01*
X111505000Y-75779575D01*
X111505000Y-75445471D01*
X111581383Y-75261067D01*
X111625000Y-75041788D01*
X111625000Y-74818212D01*
X111581383Y-74598933D01*
X111495824Y-74392376D01*
X111371612Y-74206480D01*
X111213520Y-74048388D01*
X111027624Y-73924176D01*
X110821067Y-73838617D01*
X110601788Y-73795000D01*
X110378212Y-73795000D01*
X110158933Y-73838617D01*
X109952376Y-73924176D01*
X109766480Y-74048388D01*
X109608388Y-74206480D01*
X109484176Y-74392376D01*
X109398617Y-74598933D01*
X109355000Y-74818212D01*
X103630000Y-74818212D01*
X103630000Y-70695132D01*
X103751612Y-70573520D01*
X103875824Y-70387624D01*
X103961383Y-70181067D01*
X104005000Y-69961788D01*
X104005000Y-69738212D01*
X103961383Y-69518933D01*
X103875824Y-69312376D01*
X103751612Y-69126480D01*
X103593520Y-68968388D01*
X103407624Y-68844176D01*
X103201067Y-68758617D01*
X102981788Y-68715000D01*
X102758212Y-68715000D01*
X102538933Y-68758617D01*
X102332376Y-68844176D01*
X102146480Y-68968388D01*
X101988388Y-69126480D01*
X101864176Y-69312376D01*
X101778617Y-69518933D01*
X101735000Y-69738212D01*
X101090000Y-69738212D01*
X101090000Y-60004801D01*
X103381008Y-57713795D01*
X103410001Y-57690001D01*
X103433795Y-57661008D01*
X103433799Y-57661004D01*
X103504973Y-57574277D01*
X103504974Y-57574276D01*
X103575546Y-57442247D01*
X103619003Y-57298986D01*
X103630000Y-57187333D01*
X103630000Y-57187324D01*
X103633676Y-57150001D01*
X103630000Y-57112678D01*
X103630000Y-39684801D01*
X104651003Y-38663799D01*
X104680001Y-38640001D01*
X104774974Y-38524276D01*
X104845546Y-38392247D01*
X104889003Y-38248986D01*
X104900000Y-38137333D01*
X104900000Y-38137324D01*
X104903676Y-38100001D01*
X104900000Y-38062678D01*
X104900000Y-36405132D01*
X105021612Y-36283520D01*
X105145824Y-36097624D01*
X105231383Y-35891067D01*
X105275000Y-35671788D01*
X105275000Y-35448212D01*
X105231383Y-35228933D01*
X105145824Y-35022376D01*
X105021612Y-34836480D01*
X104863520Y-34678388D01*
X104677624Y-34554176D01*
X104471067Y-34468617D01*
X104251788Y-34425000D01*
X104028212Y-34425000D01*
X103808933Y-34468617D01*
X103602376Y-34554176D01*
X103416480Y-34678388D01*
X103258388Y-34836480D01*
X103134176Y-35022376D01*
X103048617Y-35228933D01*
X103005000Y-35448212D01*
X103005000Y-35671788D01*
X103048617Y-35891067D01*
X103134176Y-36097624D01*
X103258388Y-36283520D01*
X103380000Y-36405132D01*
X103380001Y-37785197D01*
X102359003Y-38806196D01*
X102329999Y-38829999D01*
X102274871Y-38897174D01*
X102235026Y-38945724D01*
X102164455Y-39077753D01*
X102164454Y-39077754D01*
X102120997Y-39221015D01*
X102110000Y-39332668D01*
X102110000Y-39332678D01*
X102106324Y-39370000D01*
X102110000Y-39407322D01*
X102110001Y-56835196D01*
X99819003Y-59126196D01*
X99789999Y-59149999D01*
X99734871Y-59217174D01*
X99695026Y-59265724D01*
X99624455Y-59397753D01*
X99624454Y-59397754D01*
X99580997Y-59541015D01*
X99570000Y-59652668D01*
X99570000Y-59652678D01*
X99566324Y-59690000D01*
X99570000Y-59727322D01*
X99570001Y-90594867D01*
X99448388Y-90716480D01*
X99324176Y-90902376D01*
X99238617Y-91108933D01*
X99195000Y-91328212D01*
X91305000Y-91328212D01*
X91261383Y-91108933D01*
X91175824Y-90902376D01*
X91051612Y-90716480D01*
X90930000Y-90594868D01*
X90930000Y-83668816D01*
X93715000Y-83668816D01*
X93715000Y-83971184D01*
X93773989Y-84267743D01*
X93889701Y-84547095D01*
X94057688Y-84798505D01*
X94271495Y-85012312D01*
X94522905Y-85180299D01*
X94802257Y-85296011D01*
X95098816Y-85355000D01*
X95401184Y-85355000D01*
X95697743Y-85296011D01*
X95977095Y-85180299D01*
X96228505Y-85012312D01*
X96294944Y-84945873D01*
X96300498Y-84964180D01*
X96359463Y-85074494D01*
X96438815Y-85171185D01*
X96535506Y-85250537D01*
X96645820Y-85309502D01*
X96765518Y-85345812D01*
X96890000Y-85358072D01*
X97504250Y-85355000D01*
X97663000Y-85196250D01*
X97663000Y-83947000D01*
X97917000Y-83947000D01*
X97917000Y-85196250D01*
X98075750Y-85355000D01*
X98690000Y-85358072D01*
X98814482Y-85345812D01*
X98934180Y-85309502D01*
X99044494Y-85250537D01*
X99141185Y-85171185D01*
X99220537Y-85074494D01*
X99279502Y-84964180D01*
X99315812Y-84844482D01*
X99328072Y-84720000D01*
X99325000Y-84105750D01*
X99166250Y-83947000D01*
X97917000Y-83947000D01*
X97663000Y-83947000D01*
X97643000Y-83947000D01*
X97643000Y-83693000D01*
X97663000Y-83693000D01*
X97663000Y-82443750D01*
X97917000Y-82443750D01*
X97917000Y-83693000D01*
X99166250Y-83693000D01*
X99325000Y-83534250D01*
X99328072Y-82920000D01*
X99315812Y-82795518D01*
X99279502Y-82675820D01*
X99220537Y-82565506D01*
X99141185Y-82468815D01*
X99044494Y-82389463D01*
X98934180Y-82330498D01*
X98814482Y-82294188D01*
X98690000Y-82281928D01*
X98075750Y-82285000D01*
X97917000Y-82443750D01*
X97663000Y-82443750D01*
X97504250Y-82285000D01*
X96890000Y-82281928D01*
X96765518Y-82294188D01*
X96645820Y-82330498D01*
X96535506Y-82389463D01*
X96438815Y-82468815D01*
X96359463Y-82565506D01*
X96300498Y-82675820D01*
X96294944Y-82694127D01*
X96228505Y-82627688D01*
X95977095Y-82459701D01*
X95697743Y-82343989D01*
X95401184Y-82285000D01*
X95098816Y-82285000D01*
X94802257Y-82343989D01*
X94522905Y-82459701D01*
X94271495Y-82627688D01*
X94057688Y-82841495D01*
X93889701Y-83092905D01*
X93773989Y-83372257D01*
X93715000Y-83668816D01*
X90930000Y-83668816D01*
X90930000Y-80324801D01*
X93221009Y-78033794D01*
X93250001Y-78010001D01*
X93273795Y-77981008D01*
X93273799Y-77981004D01*
X93344973Y-77894277D01*
X93344974Y-77894276D01*
X93415546Y-77762247D01*
X93459003Y-77618986D01*
X93470000Y-77507333D01*
X93470000Y-77507324D01*
X93473676Y-77470001D01*
X93470000Y-77432678D01*
X93470000Y-63537333D01*
X93473677Y-63500000D01*
X93470000Y-63462667D01*
X93470000Y-43068212D01*
X94115000Y-43068212D01*
X94115000Y-43291788D01*
X94158617Y-43511067D01*
X94244176Y-43717624D01*
X94368388Y-43903520D01*
X94490000Y-44025132D01*
X94490001Y-60114867D01*
X94368388Y-60236480D01*
X94244176Y-60422376D01*
X94158617Y-60628933D01*
X94115000Y-60848212D01*
X94115000Y-61071788D01*
X94158617Y-61291067D01*
X94244176Y-61497624D01*
X94368388Y-61683520D01*
X94526480Y-61841612D01*
X94712376Y-61965824D01*
X94918933Y-62051383D01*
X95138212Y-62095000D01*
X95361788Y-62095000D01*
X95581067Y-62051383D01*
X95787624Y-61965824D01*
X95973520Y-61841612D01*
X96131612Y-61683520D01*
X96255824Y-61497624D01*
X96341383Y-61291067D01*
X96385000Y-61071788D01*
X96385000Y-60848212D01*
X96341383Y-60628933D01*
X96255824Y-60422376D01*
X96131612Y-60236480D01*
X96010000Y-60114868D01*
X96010000Y-44025132D01*
X96131612Y-43903520D01*
X96255824Y-43717624D01*
X96341383Y-43511067D01*
X96385000Y-43291788D01*
X96385000Y-43068212D01*
X96341383Y-42848933D01*
X96255824Y-42642376D01*
X96131612Y-42456480D01*
X95973520Y-42298388D01*
X95787624Y-42174176D01*
X95581067Y-42088617D01*
X95361788Y-42045000D01*
X95138212Y-42045000D01*
X94918933Y-42088617D01*
X94712376Y-42174176D01*
X94526480Y-42298388D01*
X94368388Y-42456480D01*
X94244176Y-42642376D01*
X94158617Y-42848933D01*
X94115000Y-43068212D01*
X93470000Y-43068212D01*
X93470000Y-33865132D01*
X93591612Y-33743520D01*
X93715824Y-33557624D01*
X93801383Y-33351067D01*
X93845000Y-33131788D01*
X93845000Y-32908212D01*
X93801383Y-32688933D01*
X93715824Y-32482376D01*
X93591612Y-32296480D01*
X93433520Y-32138388D01*
X93247624Y-32014176D01*
X93041067Y-31928617D01*
X92821788Y-31885000D01*
X92598212Y-31885000D01*
X92378933Y-31928617D01*
X92172376Y-32014176D01*
X91986480Y-32138388D01*
X91828388Y-32296480D01*
X91704176Y-32482376D01*
X91618617Y-32688933D01*
X91575000Y-32908212D01*
X91575000Y-33131788D01*
X91618617Y-33351067D01*
X91704176Y-33557624D01*
X91828388Y-33743520D01*
X91950001Y-33865133D01*
X91950000Y-63462664D01*
X91946323Y-63500000D01*
X91950000Y-63537336D01*
X91950000Y-77155197D01*
X89658998Y-79446201D01*
X89630000Y-79469999D01*
X89606202Y-79498997D01*
X89606201Y-79498998D01*
X89535026Y-79585724D01*
X89464454Y-79717754D01*
X89434180Y-79817558D01*
X89420998Y-79861014D01*
X89410001Y-79972667D01*
X89406324Y-80010000D01*
X89410001Y-80047332D01*
X89410000Y-90594868D01*
X89288388Y-90716480D01*
X89164176Y-90902376D01*
X89078617Y-91108933D01*
X89035000Y-91328212D01*
X88390000Y-91328212D01*
X88390000Y-64345132D01*
X88511612Y-64223520D01*
X88635824Y-64037624D01*
X88721383Y-63831067D01*
X88765000Y-63611788D01*
X88765000Y-63388212D01*
X88721383Y-63168933D01*
X88635824Y-62962376D01*
X88511612Y-62776480D01*
X88353520Y-62618388D01*
X88167624Y-62494176D01*
X87961067Y-62408617D01*
X87741788Y-62365000D01*
X87518212Y-62365000D01*
X87298933Y-62408617D01*
X87092376Y-62494176D01*
X86906480Y-62618388D01*
X86748388Y-62776480D01*
X86624176Y-62962376D01*
X86538617Y-63168933D01*
X86495000Y-63388212D01*
X85850000Y-63388212D01*
X85850000Y-61805132D01*
X85971612Y-61683520D01*
X86095824Y-61497624D01*
X86181383Y-61291067D01*
X86225000Y-61071788D01*
X86225000Y-60848212D01*
X86181383Y-60628933D01*
X86095824Y-60422376D01*
X85971612Y-60236480D01*
X85813520Y-60078388D01*
X85627624Y-59954176D01*
X85421067Y-59868617D01*
X85201788Y-59825000D01*
X84978212Y-59825000D01*
X84758933Y-59868617D01*
X84552376Y-59954176D01*
X84366480Y-60078388D01*
X84208388Y-60236480D01*
X84084176Y-60422376D01*
X83998617Y-60628933D01*
X83955000Y-60848212D01*
X83310000Y-60848212D01*
X83310000Y-54920324D01*
X84555000Y-54920324D01*
X84555000Y-55419676D01*
X84652418Y-55909432D01*
X84843512Y-56370773D01*
X85120937Y-56785968D01*
X85474032Y-57139063D01*
X85889227Y-57416488D01*
X86350568Y-57607582D01*
X86840324Y-57705000D01*
X87339676Y-57705000D01*
X87829432Y-57607582D01*
X88290773Y-57416488D01*
X88705968Y-57139063D01*
X89059063Y-56785968D01*
X89336488Y-56370773D01*
X89410000Y-56193299D01*
X89410001Y-60114867D01*
X89288388Y-60236480D01*
X89164176Y-60422376D01*
X89078617Y-60628933D01*
X89035000Y-60848212D01*
X89035000Y-61071788D01*
X89078617Y-61291067D01*
X89164176Y-61497624D01*
X89288388Y-61683520D01*
X89446480Y-61841612D01*
X89632376Y-61965824D01*
X89838933Y-62051383D01*
X90058212Y-62095000D01*
X90281788Y-62095000D01*
X90501067Y-62051383D01*
X90707624Y-61965824D01*
X90893520Y-61841612D01*
X91051612Y-61683520D01*
X91175824Y-61497624D01*
X91261383Y-61291067D01*
X91305000Y-61071788D01*
X91305000Y-60848212D01*
X91261383Y-60628933D01*
X91175824Y-60422376D01*
X91051612Y-60236480D01*
X90930000Y-60114868D01*
X90930000Y-53377325D01*
X90933676Y-53340000D01*
X90930000Y-53302675D01*
X90930000Y-53302667D01*
X90919003Y-53191014D01*
X90875546Y-53047753D01*
X90804974Y-52915724D01*
X90710001Y-52799999D01*
X90681004Y-52776202D01*
X87120000Y-49215199D01*
X87120000Y-41485132D01*
X87241612Y-41363520D01*
X87365824Y-41177624D01*
X87451383Y-40971067D01*
X87495000Y-40751788D01*
X87495000Y-40528212D01*
X87451383Y-40308933D01*
X87365824Y-40102376D01*
X87241612Y-39916480D01*
X87083520Y-39758388D01*
X86897624Y-39634176D01*
X86691067Y-39548617D01*
X86471788Y-39505000D01*
X86248212Y-39505000D01*
X86028933Y-39548617D01*
X85822376Y-39634176D01*
X85636480Y-39758388D01*
X85478388Y-39916480D01*
X85354176Y-40102376D01*
X85268617Y-40308933D01*
X85225000Y-40528212D01*
X85225000Y-40751788D01*
X85268617Y-40971067D01*
X85354176Y-41177624D01*
X85478388Y-41363520D01*
X85600000Y-41485132D01*
X85600001Y-49492668D01*
X85596324Y-49530000D01*
X85610998Y-49678985D01*
X85654454Y-49822246D01*
X85725026Y-49954276D01*
X85796201Y-50041002D01*
X85820000Y-50070001D01*
X85848998Y-50093799D01*
X89410000Y-53654802D01*
X89410000Y-54146701D01*
X89336488Y-53969227D01*
X89059063Y-53554032D01*
X88705968Y-53200937D01*
X88290773Y-52923512D01*
X87829432Y-52732418D01*
X87339676Y-52635000D01*
X86840324Y-52635000D01*
X86350568Y-52732418D01*
X85889227Y-52923512D01*
X85474032Y-53200937D01*
X85120937Y-53554032D01*
X84843512Y-53969227D01*
X84652418Y-54430568D01*
X84555000Y-54920324D01*
X83310000Y-54920324D01*
X83310000Y-46565132D01*
X83431612Y-46443520D01*
X83555824Y-46257624D01*
X83641383Y-46051067D01*
X83685000Y-45831788D01*
X83685000Y-45608212D01*
X83641383Y-45388933D01*
X83555824Y-45182376D01*
X83431612Y-44996480D01*
X83273520Y-44838388D01*
X83087624Y-44714176D01*
X82881067Y-44628617D01*
X82661788Y-44585000D01*
X82438212Y-44585000D01*
X82218933Y-44628617D01*
X82012376Y-44714176D01*
X81826480Y-44838388D01*
X81668388Y-44996480D01*
X81544176Y-45182376D01*
X81460219Y-45385065D01*
X81388599Y-45148966D01*
X81250706Y-44890986D01*
X81065134Y-44664866D01*
X80839014Y-44479294D01*
X80784209Y-44450000D01*
X80839014Y-44420706D01*
X81065134Y-44235134D01*
X81250706Y-44009014D01*
X81388599Y-43751034D01*
X81473513Y-43471111D01*
X81502185Y-43180000D01*
X81473513Y-42888889D01*
X81388599Y-42608966D01*
X81250706Y-42350986D01*
X81065134Y-42124866D01*
X80839014Y-41939294D01*
X80784209Y-41910000D01*
X80839014Y-41880706D01*
X81065134Y-41695134D01*
X81250706Y-41469014D01*
X81388599Y-41211034D01*
X81473513Y-40931111D01*
X81502185Y-40640000D01*
X81473513Y-40348889D01*
X81388599Y-40068966D01*
X81250706Y-39810986D01*
X81065134Y-39584866D01*
X80839014Y-39399294D01*
X80784209Y-39370000D01*
X80839014Y-39340706D01*
X81065134Y-39155134D01*
X81250706Y-38929014D01*
X81388599Y-38671034D01*
X81473513Y-38391111D01*
X81502185Y-38100000D01*
X81473513Y-37808889D01*
X81388599Y-37528966D01*
X81250706Y-37270986D01*
X81065134Y-37044866D01*
X80839014Y-36859294D01*
X80784209Y-36830000D01*
X80839014Y-36800706D01*
X81065134Y-36615134D01*
X81250706Y-36389014D01*
X81388599Y-36131034D01*
X81473513Y-35851111D01*
X81502185Y-35560000D01*
X81473513Y-35268889D01*
X81388599Y-34988966D01*
X81250706Y-34730986D01*
X81065134Y-34504866D01*
X80839014Y-34319294D01*
X80784209Y-34290000D01*
X80839014Y-34260706D01*
X81065134Y-34075134D01*
X81250706Y-33849014D01*
X81388599Y-33591034D01*
X81473513Y-33311111D01*
X81502185Y-33020000D01*
X81473513Y-32728889D01*
X81388599Y-32448966D01*
X81250706Y-32190986D01*
X81065134Y-31964866D01*
X80839014Y-31779294D01*
X80784209Y-31750000D01*
X80839014Y-31720706D01*
X81065134Y-31535134D01*
X81250706Y-31309014D01*
X81388599Y-31051034D01*
X81473513Y-30771111D01*
X81502185Y-30480000D01*
X81473513Y-30188889D01*
X81388599Y-29908966D01*
X81250706Y-29650986D01*
X81065134Y-29424866D01*
X80839014Y-29239294D01*
X80774477Y-29204799D01*
X80891355Y-29135178D01*
X81107588Y-28940269D01*
X81281641Y-28706920D01*
X81406825Y-28444099D01*
X81451476Y-28296890D01*
X81330155Y-28067000D01*
X80137000Y-28067000D01*
X80137000Y-28087000D01*
X79883000Y-28087000D01*
X79883000Y-28067000D01*
X79863000Y-28067000D01*
X79863000Y-27813000D01*
X79883000Y-27813000D01*
X79883000Y-27793000D01*
X80137000Y-27793000D01*
X80137000Y-27813000D01*
X81330155Y-27813000D01*
X81451476Y-27583110D01*
X81406825Y-27435901D01*
X81281641Y-27173080D01*
X81107588Y-26939731D01*
X80891355Y-26744822D01*
X80774477Y-26675201D01*
X80839014Y-26640706D01*
X81065134Y-26455134D01*
X81250706Y-26229014D01*
X81388599Y-25971034D01*
X81473513Y-25691111D01*
X81502185Y-25400000D01*
X81491175Y-25288212D01*
X109355000Y-25288212D01*
X109355000Y-25511788D01*
X109398617Y-25731067D01*
X109475000Y-25915471D01*
X109475001Y-65990137D01*
X109475000Y-68064528D01*
X109398617Y-68248933D01*
X109355000Y-68468212D01*
X109355000Y-68691788D01*
X109398617Y-68911067D01*
X109484176Y-69117624D01*
X109608388Y-69303520D01*
X109766480Y-69461612D01*
X109952376Y-69585824D01*
X110158933Y-69671383D01*
X110378212Y-69715000D01*
X110601788Y-69715000D01*
X110821067Y-69671383D01*
X111027624Y-69585824D01*
X111213520Y-69461612D01*
X111371612Y-69303520D01*
X111495824Y-69117624D01*
X111581383Y-68911067D01*
X111625000Y-68691788D01*
X111625000Y-68468212D01*
X111581383Y-68248933D01*
X111505000Y-68064529D01*
X111505000Y-65928212D01*
X115705000Y-65928212D01*
X115705000Y-66151788D01*
X115748617Y-66371067D01*
X115825000Y-66555471D01*
X115825001Y-78224526D01*
X115748617Y-78408933D01*
X115705000Y-78628212D01*
X115705000Y-78851788D01*
X115748617Y-79071067D01*
X115834176Y-79277624D01*
X115958388Y-79463520D01*
X116116480Y-79621612D01*
X116302376Y-79745824D01*
X116508933Y-79831383D01*
X116728212Y-79875000D01*
X116951788Y-79875000D01*
X117171067Y-79831383D01*
X117377624Y-79745824D01*
X117563520Y-79621612D01*
X117721612Y-79463520D01*
X117845824Y-79277624D01*
X117931383Y-79071067D01*
X117975000Y-78851788D01*
X117975000Y-78628212D01*
X117931383Y-78408933D01*
X117881379Y-78288212D01*
X122055000Y-78288212D01*
X122055000Y-78511788D01*
X122098617Y-78731067D01*
X122184176Y-78937624D01*
X122308388Y-79123520D01*
X122466480Y-79281612D01*
X122652376Y-79405824D01*
X122858933Y-79491383D01*
X123078212Y-79535000D01*
X123301788Y-79535000D01*
X123521067Y-79491383D01*
X123727624Y-79405824D01*
X123913520Y-79281612D01*
X124071612Y-79123520D01*
X124195824Y-78937624D01*
X124281383Y-78731067D01*
X124325000Y-78511788D01*
X124325000Y-78288212D01*
X124281383Y-78068933D01*
X124195824Y-77862376D01*
X124071612Y-77676480D01*
X123913520Y-77518388D01*
X123727624Y-77394176D01*
X123521067Y-77308617D01*
X123301788Y-77265000D01*
X123078212Y-77265000D01*
X122858933Y-77308617D01*
X122652376Y-77394176D01*
X122466480Y-77518388D01*
X122308388Y-77676480D01*
X122184176Y-77862376D01*
X122098617Y-78068933D01*
X122055000Y-78288212D01*
X117881379Y-78288212D01*
X117855000Y-78224529D01*
X117855000Y-73888212D01*
X122055000Y-73888212D01*
X122055000Y-74111788D01*
X122098617Y-74331067D01*
X122184176Y-74537624D01*
X122308388Y-74723520D01*
X122466480Y-74881612D01*
X122652376Y-75005824D01*
X122858933Y-75091383D01*
X123078212Y-75135000D01*
X123301788Y-75135000D01*
X123521067Y-75091383D01*
X123727624Y-75005824D01*
X123913520Y-74881612D01*
X124071612Y-74723520D01*
X124195824Y-74537624D01*
X124281383Y-74331067D01*
X124325000Y-74111788D01*
X124325000Y-73888212D01*
X124281383Y-73668933D01*
X124195824Y-73462376D01*
X124071612Y-73276480D01*
X123913520Y-73118388D01*
X123727624Y-72994176D01*
X123521067Y-72908617D01*
X123301788Y-72865000D01*
X123078212Y-72865000D01*
X122858933Y-72908617D01*
X122652376Y-72994176D01*
X122466480Y-73118388D01*
X122308388Y-73276480D01*
X122184176Y-73462376D01*
X122098617Y-73668933D01*
X122055000Y-73888212D01*
X117855000Y-73888212D01*
X117855000Y-66555471D01*
X117931383Y-66371067D01*
X117975000Y-66151788D01*
X117975000Y-65928212D01*
X117931383Y-65708933D01*
X117845824Y-65502376D01*
X117721612Y-65316480D01*
X117563520Y-65158388D01*
X117377624Y-65034176D01*
X117171067Y-64948617D01*
X116951788Y-64905000D01*
X116728212Y-64905000D01*
X116508933Y-64948617D01*
X116302376Y-65034176D01*
X116116480Y-65158388D01*
X115958388Y-65316480D01*
X115834176Y-65502376D01*
X115748617Y-65708933D01*
X115705000Y-65928212D01*
X111505000Y-65928212D01*
X111505000Y-63856891D01*
X120478519Y-63856891D01*
X120575843Y-64131252D01*
X120724822Y-64381355D01*
X120919731Y-64597588D01*
X121153080Y-64771641D01*
X121415901Y-64896825D01*
X121563110Y-64941476D01*
X121793000Y-64820155D01*
X121793000Y-63627000D01*
X120599186Y-63627000D01*
X120478519Y-63856891D01*
X111505000Y-63856891D01*
X111505000Y-63143109D01*
X120478519Y-63143109D01*
X120599186Y-63373000D01*
X121793000Y-63373000D01*
X121793000Y-62179845D01*
X122047000Y-62179845D01*
X122047000Y-63373000D01*
X122067000Y-63373000D01*
X122067000Y-63627000D01*
X122047000Y-63627000D01*
X122047000Y-64820155D01*
X122276890Y-64941476D01*
X122424099Y-64896825D01*
X122686920Y-64771641D01*
X122920269Y-64597588D01*
X122996034Y-64513534D01*
X123020498Y-64594180D01*
X123079463Y-64704494D01*
X123158815Y-64801185D01*
X123255506Y-64880537D01*
X123365820Y-64939502D01*
X123485518Y-64975812D01*
X123610000Y-64988072D01*
X125310000Y-64988072D01*
X125434482Y-64975812D01*
X125554180Y-64939502D01*
X125664494Y-64880537D01*
X125761185Y-64801185D01*
X125840537Y-64704494D01*
X125899502Y-64594180D01*
X125935812Y-64474482D01*
X125948072Y-64350000D01*
X125948072Y-62650000D01*
X125935812Y-62525518D01*
X125899502Y-62405820D01*
X125840537Y-62295506D01*
X125761185Y-62198815D01*
X125664494Y-62119463D01*
X125554180Y-62060498D01*
X125434482Y-62024188D01*
X125310000Y-62011928D01*
X123610000Y-62011928D01*
X123485518Y-62024188D01*
X123365820Y-62060498D01*
X123255506Y-62119463D01*
X123158815Y-62198815D01*
X123079463Y-62295506D01*
X123020498Y-62405820D01*
X122996034Y-62486466D01*
X122920269Y-62402412D01*
X122686920Y-62228359D01*
X122424099Y-62103175D01*
X122276890Y-62058524D01*
X122047000Y-62179845D01*
X121793000Y-62179845D01*
X121563110Y-62058524D01*
X121415901Y-62103175D01*
X121153080Y-62228359D01*
X120919731Y-62402412D01*
X120724822Y-62618645D01*
X120575843Y-62868748D01*
X120478519Y-63143109D01*
X111505000Y-63143109D01*
X111505000Y-54920324D01*
X121555000Y-54920324D01*
X121555000Y-55419676D01*
X121652418Y-55909432D01*
X121843512Y-56370773D01*
X122120937Y-56785968D01*
X122474032Y-57139063D01*
X122889227Y-57416488D01*
X123350568Y-57607582D01*
X123840324Y-57705000D01*
X124339676Y-57705000D01*
X124829432Y-57607582D01*
X125290773Y-57416488D01*
X125705968Y-57139063D01*
X126059063Y-56785968D01*
X126336488Y-56370773D01*
X126527582Y-55909432D01*
X126625000Y-55419676D01*
X126625000Y-54920324D01*
X126527582Y-54430568D01*
X126336488Y-53969227D01*
X126059063Y-53554032D01*
X125705968Y-53200937D01*
X125290773Y-52923512D01*
X124829432Y-52732418D01*
X124339676Y-52635000D01*
X123840324Y-52635000D01*
X123350568Y-52732418D01*
X122889227Y-52923512D01*
X122474032Y-53200937D01*
X122120937Y-53554032D01*
X121843512Y-53969227D01*
X121652418Y-54430568D01*
X121555000Y-54920324D01*
X111505000Y-54920324D01*
X111505000Y-25915471D01*
X111581383Y-25731067D01*
X111625000Y-25511788D01*
X111625000Y-25288212D01*
X111581383Y-25068933D01*
X111495824Y-24862376D01*
X111371612Y-24676480D01*
X111213520Y-24518388D01*
X111027624Y-24394176D01*
X110821067Y-24308617D01*
X110601788Y-24265000D01*
X110378212Y-24265000D01*
X110158933Y-24308617D01*
X109952376Y-24394176D01*
X109766480Y-24518388D01*
X109608388Y-24676480D01*
X109484176Y-24862376D01*
X109398617Y-25068933D01*
X109355000Y-25288212D01*
X81491175Y-25288212D01*
X81473513Y-25108889D01*
X81388599Y-24828966D01*
X81250706Y-24570986D01*
X81065134Y-24344866D01*
X80839014Y-24159294D01*
X80784209Y-24130000D01*
X80839014Y-24100706D01*
X81065134Y-23915134D01*
X81250706Y-23689014D01*
X81388599Y-23431034D01*
X81473513Y-23151111D01*
X81502185Y-22860000D01*
X81473513Y-22568889D01*
X81388599Y-22288966D01*
X81250706Y-22030986D01*
X81065134Y-21804866D01*
X80839014Y-21619294D01*
X80581034Y-21481401D01*
X80301111Y-21396487D01*
X80082950Y-21375000D01*
X79937050Y-21375000D01*
X79718889Y-21396487D01*
X79438966Y-21481401D01*
X79180986Y-21619294D01*
X78954866Y-21804866D01*
X78930393Y-21834687D01*
X78909502Y-21765820D01*
X78850537Y-21655506D01*
X78771185Y-21558815D01*
X78674494Y-21479463D01*
X78564180Y-21420498D01*
X78444482Y-21384188D01*
X78320000Y-21371928D01*
X76620000Y-21371928D01*
X76495518Y-21384188D01*
X76375820Y-21420498D01*
X76265506Y-21479463D01*
X76168815Y-21558815D01*
X76089463Y-21655506D01*
X76030498Y-21765820D01*
X75994188Y-21885518D01*
X75981928Y-22010000D01*
X75981928Y-23710000D01*
X75994188Y-23834482D01*
X76030498Y-23954180D01*
X76089463Y-24064494D01*
X76168815Y-24161185D01*
X76265506Y-24240537D01*
X76375820Y-24299502D01*
X76444687Y-24320393D01*
X76414866Y-24344866D01*
X76229294Y-24570986D01*
X76091401Y-24828966D01*
X76006487Y-25108889D01*
X75977815Y-25400000D01*
X17907000Y-25400000D01*
X17907000Y-17900324D01*
X18915000Y-17900324D01*
X18915000Y-18399676D01*
X19012418Y-18889432D01*
X19203512Y-19350773D01*
X19480937Y-19765968D01*
X19834032Y-20119063D01*
X20249227Y-20396488D01*
X20710568Y-20587582D01*
X21200324Y-20685000D01*
X21699676Y-20685000D01*
X22189432Y-20587582D01*
X22650773Y-20396488D01*
X23065968Y-20119063D01*
X23419063Y-19765968D01*
X23696488Y-19350773D01*
X23887582Y-18889432D01*
X23985000Y-18399676D01*
X23985000Y-17900324D01*
X67915000Y-17900324D01*
X67915000Y-18399676D01*
X68012418Y-18889432D01*
X68203512Y-19350773D01*
X68480937Y-19765968D01*
X68834032Y-20119063D01*
X69249227Y-20396488D01*
X69710568Y-20587582D01*
X70200324Y-20685000D01*
X70699676Y-20685000D01*
X71189432Y-20587582D01*
X71650773Y-20396488D01*
X72065968Y-20119063D01*
X72419063Y-19765968D01*
X72696488Y-19350773D01*
X72887582Y-18889432D01*
X72985000Y-18399676D01*
X72985000Y-17920324D01*
X84555000Y-17920324D01*
X84555000Y-18419676D01*
X84652418Y-18909432D01*
X84843512Y-19370773D01*
X85120937Y-19785968D01*
X85474032Y-20139063D01*
X85889227Y-20416488D01*
X86350568Y-20607582D01*
X86840324Y-20705000D01*
X87339676Y-20705000D01*
X87829432Y-20607582D01*
X88290773Y-20416488D01*
X88705968Y-20139063D01*
X89059063Y-19785968D01*
X89336488Y-19370773D01*
X89527582Y-18909432D01*
X89625000Y-18419676D01*
X89625000Y-17920324D01*
X121555000Y-17920324D01*
X121555000Y-18419676D01*
X121652418Y-18909432D01*
X121843512Y-19370773D01*
X122120937Y-19785968D01*
X122474032Y-20139063D01*
X122889227Y-20416488D01*
X123350568Y-20607582D01*
X123840324Y-20705000D01*
X124339676Y-20705000D01*
X124829432Y-20607582D01*
X125290773Y-20416488D01*
X125705968Y-20139063D01*
X126059063Y-19785968D01*
X126336488Y-19370773D01*
X126527582Y-18909432D01*
X126625000Y-18419676D01*
X126625000Y-17920324D01*
X126527582Y-17430568D01*
X126336488Y-16969227D01*
X126059063Y-16554032D01*
X125705968Y-16200937D01*
X125290773Y-15923512D01*
X124829432Y-15732418D01*
X124339676Y-15635000D01*
X123840324Y-15635000D01*
X123350568Y-15732418D01*
X122889227Y-15923512D01*
X122474032Y-16200937D01*
X122120937Y-16554032D01*
X121843512Y-16969227D01*
X121652418Y-17430568D01*
X121555000Y-17920324D01*
X89625000Y-17920324D01*
X89527582Y-17430568D01*
X89336488Y-16969227D01*
X89059063Y-16554032D01*
X88705968Y-16200937D01*
X88290773Y-15923512D01*
X87829432Y-15732418D01*
X87339676Y-15635000D01*
X86840324Y-15635000D01*
X86350568Y-15732418D01*
X85889227Y-15923512D01*
X85474032Y-16200937D01*
X85120937Y-16554032D01*
X84843512Y-16969227D01*
X84652418Y-17430568D01*
X84555000Y-17920324D01*
X72985000Y-17920324D01*
X72985000Y-17900324D01*
X72887582Y-17410568D01*
X72696488Y-16949227D01*
X72419063Y-16534032D01*
X72065968Y-16180937D01*
X71650773Y-15903512D01*
X71189432Y-15712418D01*
X70699676Y-15615000D01*
X70200324Y-15615000D01*
X69710568Y-15712418D01*
X69249227Y-15903512D01*
X68834032Y-16180937D01*
X68480937Y-16534032D01*
X68203512Y-16949227D01*
X68012418Y-17410568D01*
X67915000Y-17900324D01*
X23985000Y-17900324D01*
X23887582Y-17410568D01*
X23696488Y-16949227D01*
X23419063Y-16534032D01*
X23065968Y-16180937D01*
X22650773Y-15903512D01*
X22189432Y-15712418D01*
X21699676Y-15615000D01*
X21200324Y-15615000D01*
X20710568Y-15712418D01*
X20249227Y-15903512D01*
X19834032Y-16180937D01*
X19480937Y-16534032D01*
X19203512Y-16949227D01*
X19012418Y-17410568D01*
X18915000Y-17900324D01*
X17907000Y-17900324D01*
X17907000Y-15367000D01*
X129413000Y-15367000D01*
X129413000Y-135763000D01*
X129413000Y-135763000D01*
G37*
X129413000Y-135763000D02*
X17907000Y-135763000D01*
X17907000Y-131840324D01*
X60475000Y-131840324D01*
X60475000Y-132339676D01*
X60572418Y-132829432D01*
X60763512Y-133290773D01*
X61040937Y-133705968D01*
X61394032Y-134059063D01*
X61809227Y-134336488D01*
X62270568Y-134527582D01*
X62760324Y-134625000D01*
X63259676Y-134625000D01*
X63749432Y-134527582D01*
X64210773Y-134336488D01*
X64625968Y-134059063D01*
X64979063Y-133705968D01*
X65256488Y-133290773D01*
X65447582Y-132829432D01*
X65545000Y-132339676D01*
X65545000Y-131840324D01*
X91475000Y-131840324D01*
X91475000Y-132339676D01*
X91572418Y-132829432D01*
X91763512Y-133290773D01*
X92040937Y-133705968D01*
X92394032Y-134059063D01*
X92809227Y-134336488D01*
X93270568Y-134527582D01*
X93760324Y-134625000D01*
X94259676Y-134625000D01*
X94749432Y-134527582D01*
X95210773Y-134336488D01*
X95625968Y-134059063D01*
X95979063Y-133705968D01*
X96256488Y-133290773D01*
X96447582Y-132829432D01*
X96545000Y-132339676D01*
X96545000Y-131840324D01*
X96447582Y-131350568D01*
X96256488Y-130889227D01*
X95979063Y-130474032D01*
X95625968Y-130120937D01*
X95210773Y-129843512D01*
X94749432Y-129652418D01*
X94259676Y-129555000D01*
X93760324Y-129555000D01*
X93270568Y-129652418D01*
X92809227Y-129843512D01*
X92394032Y-130120937D01*
X92040937Y-130474032D01*
X91763512Y-130889227D01*
X91572418Y-131350568D01*
X91475000Y-131840324D01*
X65545000Y-131840324D01*
X65447582Y-131350568D01*
X65256488Y-130889227D01*
X64979063Y-130474032D01*
X64625968Y-130120937D01*
X64210773Y-129843512D01*
X63749432Y-129652418D01*
X63259676Y-129555000D01*
X62760324Y-129555000D01*
X62270568Y-129652418D01*
X61809227Y-129843512D01*
X61394032Y-130120937D01*
X61040937Y-130474032D01*
X60763512Y-130889227D01*
X60572418Y-131350568D01*
X60475000Y-131840324D01*
X17907000Y-131840324D01*
X17907000Y-104840324D01*
X60475000Y-104840324D01*
X60475000Y-105339676D01*
X60572418Y-105829432D01*
X60763512Y-106290773D01*
X61040937Y-106705968D01*
X61394032Y-107059063D01*
X61809227Y-107336488D01*
X62270568Y-107527582D01*
X62760324Y-107625000D01*
X63259676Y-107625000D01*
X63749432Y-107527582D01*
X64210773Y-107336488D01*
X64625968Y-107059063D01*
X64979063Y-106705968D01*
X65256488Y-106290773D01*
X65447582Y-105829432D01*
X65545000Y-105339676D01*
X65545000Y-104840324D01*
X91475000Y-104840324D01*
X91475000Y-105339676D01*
X91572418Y-105829432D01*
X91763512Y-106290773D01*
X92040937Y-106705968D01*
X92394032Y-107059063D01*
X92809227Y-107336488D01*
X93270568Y-107527582D01*
X93760324Y-107625000D01*
X94259676Y-107625000D01*
X94749432Y-107527582D01*
X95210773Y-107336488D01*
X95625968Y-107059063D01*
X95979063Y-106705968D01*
X96256488Y-106290773D01*
X96447582Y-105829432D01*
X96545000Y-105339676D01*
X96545000Y-104840324D01*
X96447582Y-104350568D01*
X96256488Y-103889227D01*
X95979063Y-103474032D01*
X95625968Y-103120937D01*
X95210773Y-102843512D01*
X94749432Y-102652418D01*
X94259676Y-102555000D01*
X93760324Y-102555000D01*
X93270568Y-102652418D01*
X92809227Y-102843512D01*
X92394032Y-103120937D01*
X92040937Y-103474032D01*
X91763512Y-103889227D01*
X91572418Y-104350568D01*
X91475000Y-104840324D01*
X65545000Y-104840324D01*
X65447582Y-104350568D01*
X65256488Y-103889227D01*
X64979063Y-103474032D01*
X64625968Y-103120937D01*
X64210773Y-102843512D01*
X63749432Y-102652418D01*
X63259676Y-102555000D01*
X62760324Y-102555000D01*
X62270568Y-102652418D01*
X61809227Y-102843512D01*
X61394032Y-103120937D01*
X61040937Y-103474032D01*
X60763512Y-103889227D01*
X60572418Y-104350568D01*
X60475000Y-104840324D01*
X17907000Y-104840324D01*
X17907000Y-75900324D01*
X18915000Y-75900324D01*
X18915000Y-76399676D01*
X19012418Y-76889432D01*
X19203512Y-77350773D01*
X19480937Y-77765968D01*
X19834032Y-78119063D01*
X20249227Y-78396488D01*
X20710568Y-78587582D01*
X21200324Y-78685000D01*
X21699676Y-78685000D01*
X22189432Y-78587582D01*
X22650773Y-78396488D01*
X23065968Y-78119063D01*
X23419063Y-77765968D01*
X23696488Y-77350773D01*
X23887582Y-76889432D01*
X23985000Y-76399676D01*
X23985000Y-75900324D01*
X23887582Y-75410568D01*
X23696488Y-74949227D01*
X23419063Y-74534032D01*
X23065968Y-74180937D01*
X22650773Y-73903512D01*
X22189432Y-73712418D01*
X21699676Y-73615000D01*
X21200324Y-73615000D01*
X20710568Y-73712418D01*
X20249227Y-73903512D01*
X19834032Y-74180937D01*
X19480937Y-74534032D01*
X19203512Y-74949227D01*
X19012418Y-75410568D01*
X18915000Y-75900324D01*
X17907000Y-75900324D01*
X17907000Y-35448212D01*
X58555000Y-35448212D01*
X58555000Y-35671788D01*
X58598617Y-35891067D01*
X58684176Y-36097624D01*
X58808388Y-36283520D01*
X58930000Y-36405132D01*
X58930001Y-82512657D01*
X58926323Y-82550000D01*
X58930000Y-82587333D01*
X58930001Y-86784867D01*
X58808388Y-86906480D01*
X58684176Y-87092376D01*
X58598617Y-87298933D01*
X58555000Y-87518212D01*
X58555000Y-87741788D01*
X58598617Y-87961067D01*
X58684176Y-88167624D01*
X58808388Y-88353520D01*
X58966480Y-88511612D01*
X59152376Y-88635824D01*
X59358933Y-88721383D01*
X59578212Y-88765000D01*
X59801788Y-88765000D01*
X60021067Y-88721383D01*
X60227624Y-88635824D01*
X60413520Y-88511612D01*
X60571612Y-88353520D01*
X60695824Y-88167624D01*
X60781383Y-87961067D01*
X60825000Y-87741788D01*
X60825000Y-87518212D01*
X60781383Y-87298933D01*
X60695824Y-87092376D01*
X60571612Y-86906480D01*
X60450000Y-86784868D01*
X60450000Y-82587333D01*
X60453677Y-82550000D01*
X60450000Y-82512667D01*
X60450000Y-37988212D01*
X61095000Y-37988212D01*
X61095000Y-38211788D01*
X61138617Y-38431067D01*
X61224176Y-38637624D01*
X61348388Y-38823520D01*
X61470000Y-38945132D01*
X61470001Y-79972657D01*
X61466323Y-80010000D01*
X61470000Y-80047333D01*
X61470001Y-84244867D01*
X61348388Y-84366480D01*
X61224176Y-84552376D01*
X61138617Y-84758933D01*
X61095000Y-84978212D01*
X61095000Y-85201788D01*
X61138617Y-85421067D01*
X61224176Y-85627624D01*
X61348388Y-85813520D01*
X61506480Y-85971612D01*
X61692376Y-86095824D01*
X61898933Y-86181383D01*
X62118212Y-86225000D01*
X62341788Y-86225000D01*
X62561067Y-86181383D01*
X62767624Y-86095824D01*
X62953520Y-85971612D01*
X63111612Y-85813520D01*
X63235824Y-85627624D01*
X63321383Y-85421067D01*
X63365000Y-85201788D01*
X63365000Y-85090000D01*
X77247815Y-85090000D01*
X77276487Y-85381111D01*
X77361401Y-85661034D01*
X77499294Y-85919014D01*
X77684866Y-86145134D01*
X77910986Y-86330706D01*
X77965791Y-86360000D01*
X77910986Y-86389294D01*
X77684866Y-86574866D01*
X77499294Y-86800986D01*
X77361401Y-87058966D01*
X77276487Y-87338889D01*
X77247815Y-87630000D01*
X77276487Y-87921111D01*
X77361401Y-88201034D01*
X77499294Y-88459014D01*
X77684866Y-88685134D01*
X77910986Y-88870706D01*
X77965791Y-88900000D01*
X77910986Y-88929294D01*
X77684866Y-89114866D01*
X77499294Y-89340986D01*
X77361401Y-89598966D01*
X77276487Y-89878889D01*
X77247815Y-90170000D01*
X77276487Y-90461111D01*
X77361401Y-90741034D01*
X77499294Y-90999014D01*
X77684866Y-91225134D01*
X77910986Y-91410706D01*
X77965791Y-91440000D01*
X77910986Y-91469294D01*
X77684866Y-91654866D01*
X77499294Y-91880986D01*
X77361401Y-92138966D01*
X77276487Y-92418889D01*
X77247815Y-92710000D01*
X77276487Y-93001111D01*
X77361401Y-93281034D01*
X77499294Y-93539014D01*
X77684866Y-93765134D01*
X77910986Y-93950706D01*
X77965791Y-93980000D01*
X77910986Y-94009294D01*
X77684866Y-94194866D01*
X77499294Y-94420986D01*
X77361401Y-94678966D01*
X77276487Y-94958889D01*
X77247815Y-95250000D01*
X77276487Y-95541111D01*
X77361401Y-95821034D01*
X77499294Y-96079014D01*
X77684866Y-96305134D01*
X77910986Y-96490706D01*
X78168966Y-96628599D01*
X78448889Y-96713513D01*
X78667050Y-96735000D01*
X78812950Y-96735000D01*
X79031111Y-96713513D01*
X79311034Y-96628599D01*
X79569014Y-96490706D01*
X79795134Y-96305134D01*
X79980706Y-96079014D01*
X80118599Y-95821034D01*
X80203513Y-95541111D01*
X80232185Y-95250000D01*
X80203513Y-94958889D01*
X80118599Y-94678966D01*
X79980706Y-94420986D01*
X79795134Y-94194866D01*
X79569014Y-94009294D01*
X79514209Y-93980000D01*
X79569014Y-93950706D01*
X79795134Y-93765134D01*
X79980706Y-93539014D01*
X80118599Y-93281034D01*
X80203513Y-93001111D01*
X80232185Y-92710000D01*
X80203513Y-92418889D01*
X80118599Y-92138966D01*
X79980706Y-91880986D01*
X79795134Y-91654866D01*
X79569014Y-91469294D01*
X79514209Y-91440000D01*
X79569014Y-91410706D01*
X79795134Y-91225134D01*
X79980706Y-90999014D01*
X80118599Y-90741034D01*
X80203513Y-90461111D01*
X80232185Y-90170000D01*
X80203513Y-89878889D01*
X80118599Y-89598966D01*
X79980706Y-89340986D01*
X79795134Y-89114866D01*
X79569014Y-88929294D01*
X79514209Y-88900000D01*
X79569014Y-88870706D01*
X79795134Y-88685134D01*
X79980706Y-88459014D01*
X80118599Y-88201034D01*
X80203513Y-87921111D01*
X80232185Y-87630000D01*
X80203513Y-87338889D01*
X80118599Y-87058966D01*
X79980706Y-86800986D01*
X79795134Y-86574866D01*
X79569014Y-86389294D01*
X79514209Y-86360000D01*
X79569014Y-86330706D01*
X79795134Y-86145134D01*
X79980706Y-85919014D01*
X80118599Y-85661034D01*
X80203513Y-85381111D01*
X80232185Y-85090000D01*
X80203513Y-84798889D01*
X80118599Y-84518966D01*
X79980706Y-84260986D01*
X79795134Y-84034866D01*
X79765313Y-84010393D01*
X79834180Y-83989502D01*
X79944494Y-83930537D01*
X80041185Y-83851185D01*
X80120537Y-83754494D01*
X80179502Y-83644180D01*
X80215812Y-83524482D01*
X80228072Y-83400000D01*
X80228072Y-81700000D01*
X80215812Y-81575518D01*
X80179502Y-81455820D01*
X80120537Y-81345506D01*
X80041185Y-81248815D01*
X79944494Y-81169463D01*
X79834180Y-81110498D01*
X79714482Y-81074188D01*
X79590000Y-81061928D01*
X77890000Y-81061928D01*
X77765518Y-81074188D01*
X77645820Y-81110498D01*
X77535506Y-81169463D01*
X77438815Y-81248815D01*
X77359463Y-81345506D01*
X77300498Y-81455820D01*
X77264188Y-81575518D01*
X77251928Y-81700000D01*
X77251928Y-83400000D01*
X77264188Y-83524482D01*
X77300498Y-83644180D01*
X77359463Y-83754494D01*
X77438815Y-83851185D01*
X77535506Y-83930537D01*
X77645820Y-83989502D01*
X77714687Y-84010393D01*
X77684866Y-84034866D01*
X77499294Y-84260986D01*
X77361401Y-84518966D01*
X77276487Y-84798889D01*
X77247815Y-85090000D01*
X63365000Y-85090000D01*
X63365000Y-84978212D01*
X63321383Y-84758933D01*
X63235824Y-84552376D01*
X63111612Y-84366480D01*
X62990000Y-84244868D01*
X62990000Y-80047333D01*
X62993677Y-80010000D01*
X62990000Y-79972667D01*
X62990000Y-40528212D01*
X64905000Y-40528212D01*
X64905000Y-40751788D01*
X64948617Y-40971067D01*
X65034176Y-41177624D01*
X65158388Y-41363520D01*
X65280000Y-41485132D01*
X65280001Y-81704867D01*
X65158388Y-81826480D01*
X65034176Y-82012376D01*
X64948617Y-82218933D01*
X64905000Y-82438212D01*
X64905000Y-82661788D01*
X64948617Y-82881067D01*
X65034176Y-83087624D01*
X65158388Y-83273520D01*
X65316480Y-83431612D01*
X65502376Y-83555824D01*
X65708933Y-83641383D01*
X65928212Y-83685000D01*
X66151788Y-83685000D01*
X66371067Y-83641383D01*
X66577624Y-83555824D01*
X66763520Y-83431612D01*
X66921612Y-83273520D01*
X67045824Y-83087624D01*
X67131383Y-82881067D01*
X67175000Y-82661788D01*
X67175000Y-82438212D01*
X67131383Y-82218933D01*
X67045824Y-82012376D01*
X66921612Y-81826480D01*
X66800000Y-81704868D01*
X66800000Y-75900324D01*
X67915000Y-75900324D01*
X67915000Y-76399676D01*
X68012418Y-76889432D01*
X68203512Y-77350773D01*
X68480937Y-77765968D01*
X68834032Y-78119063D01*
X69249227Y-78396488D01*
X69710568Y-78587582D01*
X70200324Y-78685000D01*
X70699676Y-78685000D01*
X71189432Y-78587582D01*
X71650773Y-78396488D01*
X72065968Y-78119063D01*
X72419063Y-77765968D01*
X72696488Y-77350773D01*
X72887582Y-76889432D01*
X72985000Y-76399676D01*
X72985000Y-75900324D01*
X72887582Y-75410568D01*
X72696488Y-74949227D01*
X72419063Y-74534032D01*
X72065968Y-74180937D01*
X71650773Y-73903512D01*
X71189432Y-73712418D01*
X70699676Y-73615000D01*
X70200324Y-73615000D01*
X69710568Y-73712418D01*
X69249227Y-73903512D01*
X68834032Y-74180937D01*
X68480937Y-74534032D01*
X68203512Y-74949227D01*
X68012418Y-75410568D01*
X67915000Y-75900324D01*
X66800000Y-75900324D01*
X66800000Y-41485132D01*
X66921612Y-41363520D01*
X67045824Y-41177624D01*
X67131383Y-40971067D01*
X67175000Y-40751788D01*
X67175000Y-40528212D01*
X67131383Y-40308933D01*
X67045824Y-40102376D01*
X66921612Y-39916480D01*
X66763520Y-39758388D01*
X66577624Y-39634176D01*
X66371067Y-39548617D01*
X66151788Y-39505000D01*
X65928212Y-39505000D01*
X65708933Y-39548617D01*
X65502376Y-39634176D01*
X65316480Y-39758388D01*
X65158388Y-39916480D01*
X65034176Y-40102376D01*
X64948617Y-40308933D01*
X64905000Y-40528212D01*
X62990000Y-40528212D01*
X62990000Y-38945132D01*
X63111612Y-38823520D01*
X63235824Y-38637624D01*
X63321383Y-38431067D01*
X63365000Y-38211788D01*
X63365000Y-37988212D01*
X63321383Y-37768933D01*
X63235824Y-37562376D01*
X63111612Y-37376480D01*
X62953520Y-37218388D01*
X62767624Y-37094176D01*
X62561067Y-37008617D01*
X62341788Y-36965000D01*
X62118212Y-36965000D01*
X61898933Y-37008617D01*
X61692376Y-37094176D01*
X61506480Y-37218388D01*
X61348388Y-37376480D01*
X61224176Y-37562376D01*
X61138617Y-37768933D01*
X61095000Y-37988212D01*
X60450000Y-37988212D01*
X60450000Y-36405132D01*
X60571612Y-36283520D01*
X60695824Y-36097624D01*
X60781383Y-35891067D01*
X60825000Y-35671788D01*
X60825000Y-35448212D01*
X60781383Y-35228933D01*
X60695824Y-35022376D01*
X60571612Y-34836480D01*
X60413520Y-34678388D01*
X60227624Y-34554176D01*
X60021067Y-34468617D01*
X59801788Y-34425000D01*
X59578212Y-34425000D01*
X59358933Y-34468617D01*
X59152376Y-34554176D01*
X58966480Y-34678388D01*
X58808388Y-34836480D01*
X58684176Y-35022376D01*
X58598617Y-35228933D01*
X58555000Y-35448212D01*
X17907000Y-35448212D01*
X17907000Y-25400000D01*
X75977815Y-25400000D01*
X76006487Y-25691111D01*
X76091401Y-25971034D01*
X76229294Y-26229014D01*
X76414866Y-26455134D01*
X76640986Y-26640706D01*
X76695791Y-26670000D01*
X76640986Y-26699294D01*
X76414866Y-26884866D01*
X76229294Y-27110986D01*
X76091401Y-27368966D01*
X76006487Y-27648889D01*
X75977815Y-27940000D01*
X76006487Y-28231111D01*
X76091401Y-28511034D01*
X76229294Y-28769014D01*
X76414866Y-28995134D01*
X76640986Y-29180706D01*
X76695791Y-29210000D01*
X76640986Y-29239294D01*
X76414866Y-29424866D01*
X76229294Y-29650986D01*
X76091401Y-29908966D01*
X76006487Y-30188889D01*
X75977815Y-30480000D01*
X76006487Y-30771111D01*
X76091401Y-31051034D01*
X76229294Y-31309014D01*
X76414866Y-31535134D01*
X76640986Y-31720706D01*
X76695791Y-31750000D01*
X76640986Y-31779294D01*
X76414866Y-31964866D01*
X76229294Y-32190986D01*
X76091401Y-32448966D01*
X76006487Y-32728889D01*
X75977815Y-33020000D01*
X76006487Y-33311111D01*
X76091401Y-33591034D01*
X76229294Y-33849014D01*
X76414866Y-34075134D01*
X76640986Y-34260706D01*
X76695791Y-34290000D01*
X76640986Y-34319294D01*
X76414866Y-34504866D01*
X76229294Y-34730986D01*
X76091401Y-34988966D01*
X76006487Y-35268889D01*
X75977815Y-35560000D01*
X76006487Y-35851111D01*
X76091401Y-36131034D01*
X76229294Y-36389014D01*
X76414866Y-36615134D01*
X76640986Y-36800706D01*
X76695791Y-36830000D01*
X76640986Y-36859294D01*
X76414866Y-37044866D01*
X76229294Y-37270986D01*
X76091401Y-37528966D01*
X76006487Y-37808889D01*
X75977815Y-38100000D01*
X76006487Y-38391111D01*
X76091401Y-38671034D01*
X76229294Y-38929014D01*
X76414866Y-39155134D01*
X76640986Y-39340706D01*
X76695791Y-39370000D01*
X76640986Y-39399294D01*
X76414866Y-39584866D01*
X76229294Y-39810986D01*
X76091401Y-40068966D01*
X76006487Y-40348889D01*
X75977815Y-40640000D01*
X76006487Y-40931111D01*
X76091401Y-41211034D01*
X76229294Y-41469014D01*
X76414866Y-41695134D01*
X76640986Y-41880706D01*
X76695791Y-41910000D01*
X76640986Y-41939294D01*
X76414866Y-42124866D01*
X76229294Y-42350986D01*
X76091401Y-42608966D01*
X76006487Y-42888889D01*
X75977815Y-43180000D01*
X76006487Y-43471111D01*
X76091401Y-43751034D01*
X76229294Y-44009014D01*
X76414866Y-44235134D01*
X76640986Y-44420706D01*
X76695791Y-44450000D01*
X76640986Y-44479294D01*
X76414866Y-44664866D01*
X76229294Y-44890986D01*
X76091401Y-45148966D01*
X76006487Y-45428889D01*
X75977815Y-45720000D01*
X76006487Y-46011111D01*
X76091401Y-46291034D01*
X76229294Y-46549014D01*
X76414866Y-46775134D01*
X76640986Y-46960706D01*
X76695791Y-46990000D01*
X76640986Y-47019294D01*
X76414866Y-47204866D01*
X76229294Y-47430986D01*
X76091401Y-47688966D01*
X76006487Y-47968889D01*
X75977815Y-48260000D01*
X76006487Y-48551111D01*
X76091401Y-48831034D01*
X76229294Y-49089014D01*
X76414866Y-49315134D01*
X76640986Y-49500706D01*
X76695791Y-49530000D01*
X76640986Y-49559294D01*
X76414866Y-49744866D01*
X76229294Y-49970986D01*
X76091401Y-50228966D01*
X76006487Y-50508889D01*
X75977815Y-50800000D01*
X76006487Y-51091111D01*
X76091401Y-51371034D01*
X76229294Y-51629014D01*
X76414866Y-51855134D01*
X76640986Y-52040706D01*
X76695791Y-52070000D01*
X76640986Y-52099294D01*
X76414866Y-52284866D01*
X76229294Y-52510986D01*
X76091401Y-52768966D01*
X76006487Y-53048889D01*
X75977815Y-53340000D01*
X76006487Y-53631111D01*
X76091401Y-53911034D01*
X76229294Y-54169014D01*
X76414866Y-54395134D01*
X76640986Y-54580706D01*
X76695791Y-54610000D01*
X76640986Y-54639294D01*
X76414866Y-54824866D01*
X76229294Y-55050986D01*
X76091401Y-55308966D01*
X76006487Y-55588889D01*
X75977815Y-55880000D01*
X76006487Y-56171111D01*
X76091401Y-56451034D01*
X76229294Y-56709014D01*
X76414866Y-56935134D01*
X76640986Y-57120706D01*
X76695791Y-57150000D01*
X76640986Y-57179294D01*
X76414866Y-57364866D01*
X76229294Y-57590986D01*
X76091401Y-57848966D01*
X76006487Y-58128889D01*
X75977815Y-58420000D01*
X76006487Y-58711111D01*
X76091401Y-58991034D01*
X76229294Y-59249014D01*
X76414866Y-59475134D01*
X76640986Y-59660706D01*
X76695791Y-59690000D01*
X76640986Y-59719294D01*
X76414866Y-59904866D01*
X76229294Y-60130986D01*
X76091401Y-60388966D01*
X76006487Y-60668889D01*
X75977815Y-60960000D01*
X76006487Y-61251111D01*
X76091401Y-61531034D01*
X76229294Y-61789014D01*
X76414866Y-62015134D01*
X76640986Y-62200706D01*
X76695791Y-62230000D01*
X76640986Y-62259294D01*
X76414866Y-62444866D01*
X76229294Y-62670986D01*
X76091401Y-62928966D01*
X76006487Y-63208889D01*
X75977815Y-63500000D01*
X76006487Y-63791111D01*
X76091401Y-64071034D01*
X76229294Y-64329014D01*
X76414866Y-64555134D01*
X76640986Y-64740706D01*
X76695791Y-64770000D01*
X76640986Y-64799294D01*
X76414866Y-64984866D01*
X76229294Y-65210986D01*
X76091401Y-65468966D01*
X76006487Y-65748889D01*
X75977815Y-66040000D01*
X76006487Y-66331111D01*
X76091401Y-66611034D01*
X76229294Y-66869014D01*
X76414866Y-67095134D01*
X76640986Y-67280706D01*
X76695791Y-67310000D01*
X76640986Y-67339294D01*
X76414866Y-67524866D01*
X76229294Y-67750986D01*
X76091401Y-68008966D01*
X76006487Y-68288889D01*
X75977815Y-68580000D01*
X76006487Y-68871111D01*
X76091401Y-69151034D01*
X76229294Y-69409014D01*
X76414866Y-69635134D01*
X76640986Y-69820706D01*
X76695791Y-69850000D01*
X76640986Y-69879294D01*
X76414866Y-70064866D01*
X76229294Y-70290986D01*
X76091401Y-70548966D01*
X76006487Y-70828889D01*
X75977815Y-71120000D01*
X76006487Y-71411111D01*
X76091401Y-71691034D01*
X76229294Y-71949014D01*
X76414866Y-72175134D01*
X76640986Y-72360706D01*
X76898966Y-72498599D01*
X77178889Y-72583513D01*
X77397050Y-72605000D01*
X77542950Y-72605000D01*
X77761111Y-72583513D01*
X78041034Y-72498599D01*
X78299014Y-72360706D01*
X78525134Y-72175134D01*
X78710706Y-71949014D01*
X78740000Y-71894209D01*
X78769294Y-71949014D01*
X78954866Y-72175134D01*
X79180986Y-72360706D01*
X79438966Y-72498599D01*
X79718889Y-72583513D01*
X79937050Y-72605000D01*
X80082950Y-72605000D01*
X80301111Y-72583513D01*
X80581034Y-72498599D01*
X80839014Y-72360706D01*
X81065134Y-72175134D01*
X81250706Y-71949014D01*
X81388599Y-71691034D01*
X81473513Y-71411111D01*
X81502185Y-71120000D01*
X81473513Y-70828889D01*
X81388599Y-70548966D01*
X81250706Y-70290986D01*
X81065134Y-70064866D01*
X80839014Y-69879294D01*
X80784209Y-69850000D01*
X80839014Y-69820706D01*
X81065134Y-69635134D01*
X81250706Y-69409014D01*
X81388599Y-69151034D01*
X81473513Y-68871111D01*
X81502185Y-68580000D01*
X81473513Y-68288889D01*
X81388599Y-68008966D01*
X81250706Y-67750986D01*
X81065134Y-67524866D01*
X80839014Y-67339294D01*
X80784209Y-67310000D01*
X80839014Y-67280706D01*
X81065134Y-67095134D01*
X81250706Y-66869014D01*
X81388599Y-66611034D01*
X81473513Y-66331111D01*
X81502185Y-66040000D01*
X81473513Y-65748889D01*
X81388599Y-65468966D01*
X81250706Y-65210986D01*
X81065134Y-64984866D01*
X80839014Y-64799294D01*
X80784209Y-64770000D01*
X80839014Y-64740706D01*
X81065134Y-64555134D01*
X81250706Y-64329014D01*
X81388599Y-64071034D01*
X81473513Y-63791111D01*
X81502185Y-63500000D01*
X81473513Y-63208889D01*
X81388599Y-62928966D01*
X81250706Y-62670986D01*
X81065134Y-62444866D01*
X80839014Y-62259294D01*
X80784209Y-62230000D01*
X80839014Y-62200706D01*
X81065134Y-62015134D01*
X81250706Y-61789014D01*
X81388599Y-61531034D01*
X81473513Y-61251111D01*
X81502185Y-60960000D01*
X81473513Y-60668889D01*
X81388599Y-60388966D01*
X81250706Y-60130986D01*
X81065134Y-59904866D01*
X80839014Y-59719294D01*
X80784209Y-59690000D01*
X80839014Y-59660706D01*
X81065134Y-59475134D01*
X81250706Y-59249014D01*
X81388599Y-58991034D01*
X81473513Y-58711111D01*
X81502185Y-58420000D01*
X81473513Y-58128889D01*
X81388599Y-57848966D01*
X81250706Y-57590986D01*
X81065134Y-57364866D01*
X80839014Y-57179294D01*
X80784209Y-57150000D01*
X80839014Y-57120706D01*
X81065134Y-56935134D01*
X81250706Y-56709014D01*
X81388599Y-56451034D01*
X81473513Y-56171111D01*
X81502185Y-55880000D01*
X81473513Y-55588889D01*
X81388599Y-55308966D01*
X81250706Y-55050986D01*
X81065134Y-54824866D01*
X80839014Y-54639294D01*
X80784209Y-54610000D01*
X80839014Y-54580706D01*
X81065134Y-54395134D01*
X81250706Y-54169014D01*
X81388599Y-53911034D01*
X81473513Y-53631111D01*
X81502185Y-53340000D01*
X81473513Y-53048889D01*
X81388599Y-52768966D01*
X81250706Y-52510986D01*
X81065134Y-52284866D01*
X80839014Y-52099294D01*
X80784209Y-52070000D01*
X80839014Y-52040706D01*
X81065134Y-51855134D01*
X81250706Y-51629014D01*
X81388599Y-51371034D01*
X81473513Y-51091111D01*
X81502185Y-50800000D01*
X81473513Y-50508889D01*
X81388599Y-50228966D01*
X81250706Y-49970986D01*
X81065134Y-49744866D01*
X80839014Y-49559294D01*
X80784209Y-49530000D01*
X80839014Y-49500706D01*
X81065134Y-49315134D01*
X81250706Y-49089014D01*
X81388599Y-48831034D01*
X81473513Y-48551111D01*
X81502185Y-48260000D01*
X81473513Y-47968889D01*
X81388599Y-47688966D01*
X81250706Y-47430986D01*
X81065134Y-47204866D01*
X80839014Y-47019294D01*
X80784209Y-46990000D01*
X80839014Y-46960706D01*
X81065134Y-46775134D01*
X81250706Y-46549014D01*
X81388599Y-46291034D01*
X81460219Y-46054935D01*
X81544176Y-46257624D01*
X81668388Y-46443520D01*
X81790000Y-46565132D01*
X81790001Y-94404867D01*
X81668388Y-94526480D01*
X81544176Y-94712376D01*
X81458617Y-94918933D01*
X81415000Y-95138212D01*
X81415000Y-95361788D01*
X81458617Y-95581067D01*
X81544176Y-95787624D01*
X81668388Y-95973520D01*
X81826480Y-96131612D01*
X82012376Y-96255824D01*
X82218933Y-96341383D01*
X82438212Y-96385000D01*
X82661788Y-96385000D01*
X82881067Y-96341383D01*
X83087624Y-96255824D01*
X83273520Y-96131612D01*
X83431612Y-95973520D01*
X83555824Y-95787624D01*
X83641383Y-95581067D01*
X83685000Y-95361788D01*
X83685000Y-95250000D01*
X89947815Y-95250000D01*
X89976487Y-95541111D01*
X90061401Y-95821034D01*
X90199294Y-96079014D01*
X90384866Y-96305134D01*
X90610986Y-96490706D01*
X90868966Y-96628599D01*
X91148889Y-96713513D01*
X91367050Y-96735000D01*
X91512950Y-96735000D01*
X91731111Y-96713513D01*
X92011034Y-96628599D01*
X92269014Y-96490706D01*
X92495134Y-96305134D01*
X92680706Y-96079014D01*
X92715201Y-96014477D01*
X92784822Y-96131355D01*
X92979731Y-96347588D01*
X93213080Y-96521641D01*
X93475901Y-96646825D01*
X93623110Y-96691476D01*
X93853000Y-96570155D01*
X93853000Y-95377000D01*
X93833000Y-95377000D01*
X93833000Y-95123000D01*
X93853000Y-95123000D01*
X93853000Y-93929845D01*
X94107000Y-93929845D01*
X94107000Y-95123000D01*
X94127000Y-95123000D01*
X94127000Y-95377000D01*
X94107000Y-95377000D01*
X94107000Y-96570155D01*
X94336890Y-96691476D01*
X94484099Y-96646825D01*
X94746920Y-96521641D01*
X94980269Y-96347588D01*
X95056034Y-96263534D01*
X95080498Y-96344180D01*
X95139463Y-96454494D01*
X95218815Y-96551185D01*
X95315506Y-96630537D01*
X95425820Y-96689502D01*
X95545518Y-96725812D01*
X95670000Y-96738072D01*
X97370000Y-96738072D01*
X97494482Y-96725812D01*
X97614180Y-96689502D01*
X97724494Y-96630537D01*
X97821185Y-96551185D01*
X97900537Y-96454494D01*
X97959502Y-96344180D01*
X97995812Y-96224482D01*
X98008072Y-96100000D01*
X98008072Y-95250000D01*
X102647815Y-95250000D01*
X102676487Y-95541111D01*
X102761401Y-95821034D01*
X102899294Y-96079014D01*
X103084866Y-96305134D01*
X103310986Y-96490706D01*
X103568966Y-96628599D01*
X103848889Y-96713513D01*
X104067050Y-96735000D01*
X104212950Y-96735000D01*
X104431111Y-96713513D01*
X104711034Y-96628599D01*
X104969014Y-96490706D01*
X105195134Y-96305134D01*
X105380706Y-96079014D01*
X105415201Y-96014477D01*
X105484822Y-96131355D01*
X105679731Y-96347588D01*
X105913080Y-96521641D01*
X106175901Y-96646825D01*
X106323110Y-96691476D01*
X106553000Y-96570155D01*
X106553000Y-95377000D01*
X106533000Y-95377000D01*
X106533000Y-95123000D01*
X106553000Y-95123000D01*
X106553000Y-93929845D01*
X106807000Y-93929845D01*
X106807000Y-95123000D01*
X106827000Y-95123000D01*
X106827000Y-95377000D01*
X106807000Y-95377000D01*
X106807000Y-96570155D01*
X107036890Y-96691476D01*
X107184099Y-96646825D01*
X107446920Y-96521641D01*
X107680269Y-96347588D01*
X107756034Y-96263534D01*
X107780498Y-96344180D01*
X107839463Y-96454494D01*
X107918815Y-96551185D01*
X108015506Y-96630537D01*
X108125820Y-96689502D01*
X108245518Y-96725812D01*
X108370000Y-96738072D01*
X110070000Y-96738072D01*
X110194482Y-96725812D01*
X110314180Y-96689502D01*
X110424494Y-96630537D01*
X110521185Y-96551185D01*
X110600537Y-96454494D01*
X110659502Y-96344180D01*
X110695812Y-96224482D01*
X110708072Y-96100000D01*
X110708072Y-94400000D01*
X110695812Y-94275518D01*
X110659502Y-94155820D01*
X110600537Y-94045506D01*
X110521185Y-93948815D01*
X110424494Y-93869463D01*
X110314180Y-93810498D01*
X110194482Y-93774188D01*
X110070000Y-93761928D01*
X108370000Y-93761928D01*
X108245518Y-93774188D01*
X108125820Y-93810498D01*
X108015506Y-93869463D01*
X107918815Y-93948815D01*
X107839463Y-94045506D01*
X107780498Y-94155820D01*
X107756034Y-94236466D01*
X107680269Y-94152412D01*
X107446920Y-93978359D01*
X107184099Y-93853175D01*
X107036890Y-93808524D01*
X106807000Y-93929845D01*
X106553000Y-93929845D01*
X106323110Y-93808524D01*
X106175901Y-93853175D01*
X105913080Y-93978359D01*
X105679731Y-94152412D01*
X105484822Y-94368645D01*
X105415201Y-94485523D01*
X105380706Y-94420986D01*
X105195134Y-94194866D01*
X104969014Y-94009294D01*
X104711034Y-93871401D01*
X104431111Y-93786487D01*
X104212950Y-93765000D01*
X104067050Y-93765000D01*
X103848889Y-93786487D01*
X103568966Y-93871401D01*
X103310986Y-94009294D01*
X103084866Y-94194866D01*
X102899294Y-94420986D01*
X102761401Y-94678966D01*
X102676487Y-94958889D01*
X102647815Y-95250000D01*
X98008072Y-95250000D01*
X98008072Y-94400000D01*
X97995812Y-94275518D01*
X97959502Y-94155820D01*
X97900537Y-94045506D01*
X97821185Y-93948815D01*
X97724494Y-93869463D01*
X97614180Y-93810498D01*
X97494482Y-93774188D01*
X97370000Y-93761928D01*
X95670000Y-93761928D01*
X95545518Y-93774188D01*
X95425820Y-93810498D01*
X95315506Y-93869463D01*
X95218815Y-93948815D01*
X95139463Y-94045506D01*
X95080498Y-94155820D01*
X95056034Y-94236466D01*
X94980269Y-94152412D01*
X94746920Y-93978359D01*
X94484099Y-93853175D01*
X94336890Y-93808524D01*
X94107000Y-93929845D01*
X93853000Y-93929845D01*
X93623110Y-93808524D01*
X93475901Y-93853175D01*
X93213080Y-93978359D01*
X92979731Y-94152412D01*
X92784822Y-94368645D01*
X92715201Y-94485523D01*
X92680706Y-94420986D01*
X92495134Y-94194866D01*
X92269014Y-94009294D01*
X92011034Y-93871401D01*
X91731111Y-93786487D01*
X91512950Y-93765000D01*
X91367050Y-93765000D01*
X91148889Y-93786487D01*
X90868966Y-93871401D01*
X90610986Y-94009294D01*
X90384866Y-94194866D01*
X90199294Y-94420986D01*
X90061401Y-94678966D01*
X89976487Y-94958889D01*
X89947815Y-95250000D01*
X83685000Y-95250000D01*
X83685000Y-95138212D01*
X83641383Y-94918933D01*
X83555824Y-94712376D01*
X83431612Y-94526480D01*
X83310000Y-94404868D01*
X83310000Y-60848212D01*
X83955000Y-60848212D01*
X83955000Y-61071788D01*
X83998617Y-61291067D01*
X84084176Y-61497624D01*
X84208388Y-61683520D01*
X84330000Y-61805132D01*
X84330001Y-89324867D01*
X84208388Y-89446480D01*
X84084176Y-89632376D01*
X83998617Y-89838933D01*
X83955000Y-90058212D01*
X83955000Y-90281788D01*
X83998617Y-90501067D01*
X84084176Y-90707624D01*
X84208388Y-90893520D01*
X84366480Y-91051612D01*
X84552376Y-91175824D01*
X84758933Y-91261383D01*
X84978212Y-91305000D01*
X85201788Y-91305000D01*
X85421067Y-91261383D01*
X85627624Y-91175824D01*
X85813520Y-91051612D01*
X85971612Y-90893520D01*
X86095824Y-90707624D01*
X86181383Y-90501067D01*
X86225000Y-90281788D01*
X86225000Y-90058212D01*
X86181383Y-89838933D01*
X86095824Y-89632376D01*
X85971612Y-89446480D01*
X85850000Y-89324868D01*
X85850000Y-63388212D01*
X86495000Y-63388212D01*
X86495000Y-63611788D01*
X86538617Y-63831067D01*
X86624176Y-64037624D01*
X86748388Y-64223520D01*
X86870000Y-64345132D01*
X86870001Y-91864867D01*
X86748388Y-91986480D01*
X86624176Y-92172376D01*
X86538617Y-92378933D01*
X86495000Y-92598212D01*
X86495000Y-92821788D01*
X86538617Y-93041067D01*
X86624176Y-93247624D01*
X86748388Y-93433520D01*
X86906480Y-93591612D01*
X87092376Y-93715824D01*
X87298933Y-93801383D01*
X87518212Y-93845000D01*
X87741788Y-93845000D01*
X87961067Y-93801383D01*
X88167624Y-93715824D01*
X88353520Y-93591612D01*
X88511612Y-93433520D01*
X88635824Y-93247624D01*
X88721383Y-93041067D01*
X88765000Y-92821788D01*
X88765000Y-92598212D01*
X88721383Y-92378933D01*
X88635824Y-92172376D01*
X88511612Y-91986480D01*
X88390000Y-91864868D01*
X88390000Y-91328212D01*
X89035000Y-91328212D01*
X89035000Y-91551788D01*
X89078617Y-91771067D01*
X89164176Y-91977624D01*
X89288388Y-92163520D01*
X89446480Y-92321612D01*
X89632376Y-92445824D01*
X89838933Y-92531383D01*
X90058212Y-92575000D01*
X90281788Y-92575000D01*
X90501067Y-92531383D01*
X90707624Y-92445824D01*
X90893520Y-92321612D01*
X91051612Y-92163520D01*
X91175824Y-91977624D01*
X91261383Y-91771067D01*
X91305000Y-91551788D01*
X91305000Y-91328212D01*
X99195000Y-91328212D01*
X99195000Y-91551788D01*
X99238617Y-91771067D01*
X99324176Y-91977624D01*
X99448388Y-92163520D01*
X99606480Y-92321612D01*
X99792376Y-92445824D01*
X99998933Y-92531383D01*
X100218212Y-92575000D01*
X100441788Y-92575000D01*
X100661067Y-92531383D01*
X100867624Y-92445824D01*
X101053520Y-92321612D01*
X101211612Y-92163520D01*
X101335824Y-91977624D01*
X101421383Y-91771067D01*
X101465000Y-91551788D01*
X101465000Y-91328212D01*
X101421383Y-91108933D01*
X101335824Y-90902376D01*
X101211612Y-90716480D01*
X101090000Y-90594868D01*
X101090000Y-69738212D01*
X101735000Y-69738212D01*
X101735000Y-69961788D01*
X101778617Y-70181067D01*
X101864176Y-70387624D01*
X101988388Y-70573520D01*
X102110000Y-70695132D01*
X102110001Y-86784867D01*
X101988388Y-86906480D01*
X101864176Y-87092376D01*
X101778617Y-87298933D01*
X101735000Y-87518212D01*
X101735000Y-87741788D01*
X101778617Y-87961067D01*
X101864176Y-88167624D01*
X101988388Y-88353520D01*
X102146480Y-88511612D01*
X102332376Y-88635824D01*
X102538933Y-88721383D01*
X102758212Y-88765000D01*
X102981788Y-88765000D01*
X103201067Y-88721383D01*
X103407624Y-88635824D01*
X103593520Y-88511612D01*
X103751612Y-88353520D01*
X103875824Y-88167624D01*
X103961383Y-87961067D01*
X104005000Y-87741788D01*
X104005000Y-87518212D01*
X103961383Y-87298933D01*
X103875824Y-87092376D01*
X103751612Y-86906480D01*
X103630000Y-86784868D01*
X103630000Y-84720000D01*
X107681928Y-84720000D01*
X107694188Y-84844482D01*
X107730498Y-84964180D01*
X107789463Y-85074494D01*
X107868815Y-85171185D01*
X107965506Y-85250537D01*
X108075820Y-85309502D01*
X108195518Y-85345812D01*
X108320000Y-85358072D01*
X108934250Y-85355000D01*
X109093000Y-85196250D01*
X109093000Y-83947000D01*
X107843750Y-83947000D01*
X107685000Y-84105750D01*
X107681928Y-84720000D01*
X103630000Y-84720000D01*
X103630000Y-82920000D01*
X107681928Y-82920000D01*
X107685000Y-83534250D01*
X107843750Y-83693000D01*
X109093000Y-83693000D01*
X109093000Y-82443750D01*
X109347000Y-82443750D01*
X109347000Y-83693000D01*
X109367000Y-83693000D01*
X109367000Y-83947000D01*
X109347000Y-83947000D01*
X109347000Y-85196250D01*
X109505750Y-85355000D01*
X110120000Y-85358072D01*
X110244482Y-85345812D01*
X110364180Y-85309502D01*
X110474494Y-85250537D01*
X110571185Y-85171185D01*
X110650537Y-85074494D01*
X110709502Y-84964180D01*
X110715056Y-84945873D01*
X110781495Y-85012312D01*
X111032905Y-85180299D01*
X111312257Y-85296011D01*
X111608816Y-85355000D01*
X111911184Y-85355000D01*
X112207743Y-85296011D01*
X112487095Y-85180299D01*
X112738505Y-85012312D01*
X112952312Y-84798505D01*
X113120299Y-84547095D01*
X113236011Y-84267743D01*
X113295000Y-83971184D01*
X113295000Y-83668816D01*
X113236011Y-83372257D01*
X113120299Y-83092905D01*
X112952312Y-82841495D01*
X112738505Y-82627688D01*
X112487095Y-82459701D01*
X112207743Y-82343989D01*
X111911184Y-82285000D01*
X111608816Y-82285000D01*
X111312257Y-82343989D01*
X111032905Y-82459701D01*
X110781495Y-82627688D01*
X110715056Y-82694127D01*
X110709502Y-82675820D01*
X110650537Y-82565506D01*
X110571185Y-82468815D01*
X110474494Y-82389463D01*
X110364180Y-82330498D01*
X110244482Y-82294188D01*
X110120000Y-82281928D01*
X109505750Y-82285000D01*
X109347000Y-82443750D01*
X109093000Y-82443750D01*
X108934250Y-82285000D01*
X108320000Y-82281928D01*
X108195518Y-82294188D01*
X108075820Y-82330498D01*
X107965506Y-82389463D01*
X107868815Y-82468815D01*
X107789463Y-82565506D01*
X107730498Y-82675820D01*
X107694188Y-82795518D01*
X107681928Y-82920000D01*
X103630000Y-82920000D01*
X103630000Y-74818212D01*
X109355000Y-74818212D01*
X109355000Y-75041788D01*
X109398617Y-75261067D01*
X109475001Y-75445473D01*
X109475000Y-76150139D01*
X109470089Y-76200000D01*
X109475000Y-76249860D01*
X109475000Y-76249862D01*
X109489686Y-76398974D01*
X109547725Y-76590302D01*
X109641975Y-76766632D01*
X109768814Y-76921186D01*
X109807554Y-76952979D01*
X114555001Y-81700427D01*
X114555000Y-88384529D01*
X114478617Y-88568933D01*
X114435000Y-88788212D01*
X114435000Y-89011788D01*
X114478617Y-89231067D01*
X114564176Y-89437624D01*
X114688388Y-89623520D01*
X114846480Y-89781612D01*
X115032376Y-89905824D01*
X115238933Y-89991383D01*
X115458212Y-90035000D01*
X115681788Y-90035000D01*
X115901067Y-89991383D01*
X116107624Y-89905824D01*
X116293520Y-89781612D01*
X116451612Y-89623520D01*
X116575824Y-89437624D01*
X116661383Y-89231067D01*
X116705000Y-89011788D01*
X116705000Y-88788212D01*
X116661383Y-88568933D01*
X116585000Y-88384529D01*
X116585000Y-81329860D01*
X116589911Y-81280000D01*
X116579024Y-81169463D01*
X116570314Y-81081025D01*
X116512275Y-80889697D01*
X116512275Y-80889696D01*
X116418025Y-80713367D01*
X116361896Y-80644974D01*
X116291186Y-80558814D01*
X116252451Y-80527025D01*
X111505000Y-75779575D01*
X111505000Y-75445471D01*
X111581383Y-75261067D01*
X111625000Y-75041788D01*
X111625000Y-74818212D01*
X111581383Y-74598933D01*
X111495824Y-74392376D01*
X111371612Y-74206480D01*
X111213520Y-74048388D01*
X111027624Y-73924176D01*
X110821067Y-73838617D01*
X110601788Y-73795000D01*
X110378212Y-73795000D01*
X110158933Y-73838617D01*
X109952376Y-73924176D01*
X109766480Y-74048388D01*
X109608388Y-74206480D01*
X109484176Y-74392376D01*
X109398617Y-74598933D01*
X109355000Y-74818212D01*
X103630000Y-74818212D01*
X103630000Y-70695132D01*
X103751612Y-70573520D01*
X103875824Y-70387624D01*
X103961383Y-70181067D01*
X104005000Y-69961788D01*
X104005000Y-69738212D01*
X103961383Y-69518933D01*
X103875824Y-69312376D01*
X103751612Y-69126480D01*
X103593520Y-68968388D01*
X103407624Y-68844176D01*
X103201067Y-68758617D01*
X102981788Y-68715000D01*
X102758212Y-68715000D01*
X102538933Y-68758617D01*
X102332376Y-68844176D01*
X102146480Y-68968388D01*
X101988388Y-69126480D01*
X101864176Y-69312376D01*
X101778617Y-69518933D01*
X101735000Y-69738212D01*
X101090000Y-69738212D01*
X101090000Y-60004801D01*
X103381008Y-57713795D01*
X103410001Y-57690001D01*
X103433795Y-57661008D01*
X103433799Y-57661004D01*
X103504973Y-57574277D01*
X103504974Y-57574276D01*
X103575546Y-57442247D01*
X103619003Y-57298986D01*
X103630000Y-57187333D01*
X103630000Y-57187324D01*
X103633676Y-57150001D01*
X103630000Y-57112678D01*
X103630000Y-39684801D01*
X104651003Y-38663799D01*
X104680001Y-38640001D01*
X104774974Y-38524276D01*
X104845546Y-38392247D01*
X104889003Y-38248986D01*
X104900000Y-38137333D01*
X104900000Y-38137324D01*
X104903676Y-38100001D01*
X104900000Y-38062678D01*
X104900000Y-36405132D01*
X105021612Y-36283520D01*
X105145824Y-36097624D01*
X105231383Y-35891067D01*
X105275000Y-35671788D01*
X105275000Y-35448212D01*
X105231383Y-35228933D01*
X105145824Y-35022376D01*
X105021612Y-34836480D01*
X104863520Y-34678388D01*
X104677624Y-34554176D01*
X104471067Y-34468617D01*
X104251788Y-34425000D01*
X104028212Y-34425000D01*
X103808933Y-34468617D01*
X103602376Y-34554176D01*
X103416480Y-34678388D01*
X103258388Y-34836480D01*
X103134176Y-35022376D01*
X103048617Y-35228933D01*
X103005000Y-35448212D01*
X103005000Y-35671788D01*
X103048617Y-35891067D01*
X103134176Y-36097624D01*
X103258388Y-36283520D01*
X103380000Y-36405132D01*
X103380001Y-37785197D01*
X102359003Y-38806196D01*
X102329999Y-38829999D01*
X102274871Y-38897174D01*
X102235026Y-38945724D01*
X102164455Y-39077753D01*
X102164454Y-39077754D01*
X102120997Y-39221015D01*
X102110000Y-39332668D01*
X102110000Y-39332678D01*
X102106324Y-39370000D01*
X102110000Y-39407322D01*
X102110001Y-56835196D01*
X99819003Y-59126196D01*
X99789999Y-59149999D01*
X99734871Y-59217174D01*
X99695026Y-59265724D01*
X99624455Y-59397753D01*
X99624454Y-59397754D01*
X99580997Y-59541015D01*
X99570000Y-59652668D01*
X99570000Y-59652678D01*
X99566324Y-59690000D01*
X99570000Y-59727322D01*
X99570001Y-90594867D01*
X99448388Y-90716480D01*
X99324176Y-90902376D01*
X99238617Y-91108933D01*
X99195000Y-91328212D01*
X91305000Y-91328212D01*
X91261383Y-91108933D01*
X91175824Y-90902376D01*
X91051612Y-90716480D01*
X90930000Y-90594868D01*
X90930000Y-83668816D01*
X93715000Y-83668816D01*
X93715000Y-83971184D01*
X93773989Y-84267743D01*
X93889701Y-84547095D01*
X94057688Y-84798505D01*
X94271495Y-85012312D01*
X94522905Y-85180299D01*
X94802257Y-85296011D01*
X95098816Y-85355000D01*
X95401184Y-85355000D01*
X95697743Y-85296011D01*
X95977095Y-85180299D01*
X96228505Y-85012312D01*
X96294944Y-84945873D01*
X96300498Y-84964180D01*
X96359463Y-85074494D01*
X96438815Y-85171185D01*
X96535506Y-85250537D01*
X96645820Y-85309502D01*
X96765518Y-85345812D01*
X96890000Y-85358072D01*
X97504250Y-85355000D01*
X97663000Y-85196250D01*
X97663000Y-83947000D01*
X97917000Y-83947000D01*
X97917000Y-85196250D01*
X98075750Y-85355000D01*
X98690000Y-85358072D01*
X98814482Y-85345812D01*
X98934180Y-85309502D01*
X99044494Y-85250537D01*
X99141185Y-85171185D01*
X99220537Y-85074494D01*
X99279502Y-84964180D01*
X99315812Y-84844482D01*
X99328072Y-84720000D01*
X99325000Y-84105750D01*
X99166250Y-83947000D01*
X97917000Y-83947000D01*
X97663000Y-83947000D01*
X97643000Y-83947000D01*
X97643000Y-83693000D01*
X97663000Y-83693000D01*
X97663000Y-82443750D01*
X97917000Y-82443750D01*
X97917000Y-83693000D01*
X99166250Y-83693000D01*
X99325000Y-83534250D01*
X99328072Y-82920000D01*
X99315812Y-82795518D01*
X99279502Y-82675820D01*
X99220537Y-82565506D01*
X99141185Y-82468815D01*
X99044494Y-82389463D01*
X98934180Y-82330498D01*
X98814482Y-82294188D01*
X98690000Y-82281928D01*
X98075750Y-82285000D01*
X97917000Y-82443750D01*
X97663000Y-82443750D01*
X97504250Y-82285000D01*
X96890000Y-82281928D01*
X96765518Y-82294188D01*
X96645820Y-82330498D01*
X96535506Y-82389463D01*
X96438815Y-82468815D01*
X96359463Y-82565506D01*
X96300498Y-82675820D01*
X96294944Y-82694127D01*
X96228505Y-82627688D01*
X95977095Y-82459701D01*
X95697743Y-82343989D01*
X95401184Y-82285000D01*
X95098816Y-82285000D01*
X94802257Y-82343989D01*
X94522905Y-82459701D01*
X94271495Y-82627688D01*
X94057688Y-82841495D01*
X93889701Y-83092905D01*
X93773989Y-83372257D01*
X93715000Y-83668816D01*
X90930000Y-83668816D01*
X90930000Y-80324801D01*
X93221009Y-78033794D01*
X93250001Y-78010001D01*
X93273795Y-77981008D01*
X93273799Y-77981004D01*
X93344973Y-77894277D01*
X93344974Y-77894276D01*
X93415546Y-77762247D01*
X93459003Y-77618986D01*
X93470000Y-77507333D01*
X93470000Y-77507324D01*
X93473676Y-77470001D01*
X93470000Y-77432678D01*
X93470000Y-63537333D01*
X93473677Y-63500000D01*
X93470000Y-63462667D01*
X93470000Y-43068212D01*
X94115000Y-43068212D01*
X94115000Y-43291788D01*
X94158617Y-43511067D01*
X94244176Y-43717624D01*
X94368388Y-43903520D01*
X94490000Y-44025132D01*
X94490001Y-60114867D01*
X94368388Y-60236480D01*
X94244176Y-60422376D01*
X94158617Y-60628933D01*
X94115000Y-60848212D01*
X94115000Y-61071788D01*
X94158617Y-61291067D01*
X94244176Y-61497624D01*
X94368388Y-61683520D01*
X94526480Y-61841612D01*
X94712376Y-61965824D01*
X94918933Y-62051383D01*
X95138212Y-62095000D01*
X95361788Y-62095000D01*
X95581067Y-62051383D01*
X95787624Y-61965824D01*
X95973520Y-61841612D01*
X96131612Y-61683520D01*
X96255824Y-61497624D01*
X96341383Y-61291067D01*
X96385000Y-61071788D01*
X96385000Y-60848212D01*
X96341383Y-60628933D01*
X96255824Y-60422376D01*
X96131612Y-60236480D01*
X96010000Y-60114868D01*
X96010000Y-44025132D01*
X96131612Y-43903520D01*
X96255824Y-43717624D01*
X96341383Y-43511067D01*
X96385000Y-43291788D01*
X96385000Y-43068212D01*
X96341383Y-42848933D01*
X96255824Y-42642376D01*
X96131612Y-42456480D01*
X95973520Y-42298388D01*
X95787624Y-42174176D01*
X95581067Y-42088617D01*
X95361788Y-42045000D01*
X95138212Y-42045000D01*
X94918933Y-42088617D01*
X94712376Y-42174176D01*
X94526480Y-42298388D01*
X94368388Y-42456480D01*
X94244176Y-42642376D01*
X94158617Y-42848933D01*
X94115000Y-43068212D01*
X93470000Y-43068212D01*
X93470000Y-33865132D01*
X93591612Y-33743520D01*
X93715824Y-33557624D01*
X93801383Y-33351067D01*
X93845000Y-33131788D01*
X93845000Y-32908212D01*
X93801383Y-32688933D01*
X93715824Y-32482376D01*
X93591612Y-32296480D01*
X93433520Y-32138388D01*
X93247624Y-32014176D01*
X93041067Y-31928617D01*
X92821788Y-31885000D01*
X92598212Y-31885000D01*
X92378933Y-31928617D01*
X92172376Y-32014176D01*
X91986480Y-32138388D01*
X91828388Y-32296480D01*
X91704176Y-32482376D01*
X91618617Y-32688933D01*
X91575000Y-32908212D01*
X91575000Y-33131788D01*
X91618617Y-33351067D01*
X91704176Y-33557624D01*
X91828388Y-33743520D01*
X91950001Y-33865133D01*
X91950000Y-63462664D01*
X91946323Y-63500000D01*
X91950000Y-63537336D01*
X91950000Y-77155197D01*
X89658998Y-79446201D01*
X89630000Y-79469999D01*
X89606202Y-79498997D01*
X89606201Y-79498998D01*
X89535026Y-79585724D01*
X89464454Y-79717754D01*
X89434180Y-79817558D01*
X89420998Y-79861014D01*
X89410001Y-79972667D01*
X89406324Y-80010000D01*
X89410001Y-80047332D01*
X89410000Y-90594868D01*
X89288388Y-90716480D01*
X89164176Y-90902376D01*
X89078617Y-91108933D01*
X89035000Y-91328212D01*
X88390000Y-91328212D01*
X88390000Y-64345132D01*
X88511612Y-64223520D01*
X88635824Y-64037624D01*
X88721383Y-63831067D01*
X88765000Y-63611788D01*
X88765000Y-63388212D01*
X88721383Y-63168933D01*
X88635824Y-62962376D01*
X88511612Y-62776480D01*
X88353520Y-62618388D01*
X88167624Y-62494176D01*
X87961067Y-62408617D01*
X87741788Y-62365000D01*
X87518212Y-62365000D01*
X87298933Y-62408617D01*
X87092376Y-62494176D01*
X86906480Y-62618388D01*
X86748388Y-62776480D01*
X86624176Y-62962376D01*
X86538617Y-63168933D01*
X86495000Y-63388212D01*
X85850000Y-63388212D01*
X85850000Y-61805132D01*
X85971612Y-61683520D01*
X86095824Y-61497624D01*
X86181383Y-61291067D01*
X86225000Y-61071788D01*
X86225000Y-60848212D01*
X86181383Y-60628933D01*
X86095824Y-60422376D01*
X85971612Y-60236480D01*
X85813520Y-60078388D01*
X85627624Y-59954176D01*
X85421067Y-59868617D01*
X85201788Y-59825000D01*
X84978212Y-59825000D01*
X84758933Y-59868617D01*
X84552376Y-59954176D01*
X84366480Y-60078388D01*
X84208388Y-60236480D01*
X84084176Y-60422376D01*
X83998617Y-60628933D01*
X83955000Y-60848212D01*
X83310000Y-60848212D01*
X83310000Y-54920324D01*
X84555000Y-54920324D01*
X84555000Y-55419676D01*
X84652418Y-55909432D01*
X84843512Y-56370773D01*
X85120937Y-56785968D01*
X85474032Y-57139063D01*
X85889227Y-57416488D01*
X86350568Y-57607582D01*
X86840324Y-57705000D01*
X87339676Y-57705000D01*
X87829432Y-57607582D01*
X88290773Y-57416488D01*
X88705968Y-57139063D01*
X89059063Y-56785968D01*
X89336488Y-56370773D01*
X89410000Y-56193299D01*
X89410001Y-60114867D01*
X89288388Y-60236480D01*
X89164176Y-60422376D01*
X89078617Y-60628933D01*
X89035000Y-60848212D01*
X89035000Y-61071788D01*
X89078617Y-61291067D01*
X89164176Y-61497624D01*
X89288388Y-61683520D01*
X89446480Y-61841612D01*
X89632376Y-61965824D01*
X89838933Y-62051383D01*
X90058212Y-62095000D01*
X90281788Y-62095000D01*
X90501067Y-62051383D01*
X90707624Y-61965824D01*
X90893520Y-61841612D01*
X91051612Y-61683520D01*
X91175824Y-61497624D01*
X91261383Y-61291067D01*
X91305000Y-61071788D01*
X91305000Y-60848212D01*
X91261383Y-60628933D01*
X91175824Y-60422376D01*
X91051612Y-60236480D01*
X90930000Y-60114868D01*
X90930000Y-53377325D01*
X90933676Y-53340000D01*
X90930000Y-53302675D01*
X90930000Y-53302667D01*
X90919003Y-53191014D01*
X90875546Y-53047753D01*
X90804974Y-52915724D01*
X90710001Y-52799999D01*
X90681004Y-52776202D01*
X87120000Y-49215199D01*
X87120000Y-41485132D01*
X87241612Y-41363520D01*
X87365824Y-41177624D01*
X87451383Y-40971067D01*
X87495000Y-40751788D01*
X87495000Y-40528212D01*
X87451383Y-40308933D01*
X87365824Y-40102376D01*
X87241612Y-39916480D01*
X87083520Y-39758388D01*
X86897624Y-39634176D01*
X86691067Y-39548617D01*
X86471788Y-39505000D01*
X86248212Y-39505000D01*
X86028933Y-39548617D01*
X85822376Y-39634176D01*
X85636480Y-39758388D01*
X85478388Y-39916480D01*
X85354176Y-40102376D01*
X85268617Y-40308933D01*
X85225000Y-40528212D01*
X85225000Y-40751788D01*
X85268617Y-40971067D01*
X85354176Y-41177624D01*
X85478388Y-41363520D01*
X85600000Y-41485132D01*
X85600001Y-49492668D01*
X85596324Y-49530000D01*
X85610998Y-49678985D01*
X85654454Y-49822246D01*
X85725026Y-49954276D01*
X85796201Y-50041002D01*
X85820000Y-50070001D01*
X85848998Y-50093799D01*
X89410000Y-53654802D01*
X89410000Y-54146701D01*
X89336488Y-53969227D01*
X89059063Y-53554032D01*
X88705968Y-53200937D01*
X88290773Y-52923512D01*
X87829432Y-52732418D01*
X87339676Y-52635000D01*
X86840324Y-52635000D01*
X86350568Y-52732418D01*
X85889227Y-52923512D01*
X85474032Y-53200937D01*
X85120937Y-53554032D01*
X84843512Y-53969227D01*
X84652418Y-54430568D01*
X84555000Y-54920324D01*
X83310000Y-54920324D01*
X83310000Y-46565132D01*
X83431612Y-46443520D01*
X83555824Y-46257624D01*
X83641383Y-46051067D01*
X83685000Y-45831788D01*
X83685000Y-45608212D01*
X83641383Y-45388933D01*
X83555824Y-45182376D01*
X83431612Y-44996480D01*
X83273520Y-44838388D01*
X83087624Y-44714176D01*
X82881067Y-44628617D01*
X82661788Y-44585000D01*
X82438212Y-44585000D01*
X82218933Y-44628617D01*
X82012376Y-44714176D01*
X81826480Y-44838388D01*
X81668388Y-44996480D01*
X81544176Y-45182376D01*
X81460219Y-45385065D01*
X81388599Y-45148966D01*
X81250706Y-44890986D01*
X81065134Y-44664866D01*
X80839014Y-44479294D01*
X80784209Y-44450000D01*
X80839014Y-44420706D01*
X81065134Y-44235134D01*
X81250706Y-44009014D01*
X81388599Y-43751034D01*
X81473513Y-43471111D01*
X81502185Y-43180000D01*
X81473513Y-42888889D01*
X81388599Y-42608966D01*
X81250706Y-42350986D01*
X81065134Y-42124866D01*
X80839014Y-41939294D01*
X80784209Y-41910000D01*
X80839014Y-41880706D01*
X81065134Y-41695134D01*
X81250706Y-41469014D01*
X81388599Y-41211034D01*
X81473513Y-40931111D01*
X81502185Y-40640000D01*
X81473513Y-40348889D01*
X81388599Y-40068966D01*
X81250706Y-39810986D01*
X81065134Y-39584866D01*
X80839014Y-39399294D01*
X80784209Y-39370000D01*
X80839014Y-39340706D01*
X81065134Y-39155134D01*
X81250706Y-38929014D01*
X81388599Y-38671034D01*
X81473513Y-38391111D01*
X81502185Y-38100000D01*
X81473513Y-37808889D01*
X81388599Y-37528966D01*
X81250706Y-37270986D01*
X81065134Y-37044866D01*
X80839014Y-36859294D01*
X80784209Y-36830000D01*
X80839014Y-36800706D01*
X81065134Y-36615134D01*
X81250706Y-36389014D01*
X81388599Y-36131034D01*
X81473513Y-35851111D01*
X81502185Y-35560000D01*
X81473513Y-35268889D01*
X81388599Y-34988966D01*
X81250706Y-34730986D01*
X81065134Y-34504866D01*
X80839014Y-34319294D01*
X80784209Y-34290000D01*
X80839014Y-34260706D01*
X81065134Y-34075134D01*
X81250706Y-33849014D01*
X81388599Y-33591034D01*
X81473513Y-33311111D01*
X81502185Y-33020000D01*
X81473513Y-32728889D01*
X81388599Y-32448966D01*
X81250706Y-32190986D01*
X81065134Y-31964866D01*
X80839014Y-31779294D01*
X80784209Y-31750000D01*
X80839014Y-31720706D01*
X81065134Y-31535134D01*
X81250706Y-31309014D01*
X81388599Y-31051034D01*
X81473513Y-30771111D01*
X81502185Y-30480000D01*
X81473513Y-30188889D01*
X81388599Y-29908966D01*
X81250706Y-29650986D01*
X81065134Y-29424866D01*
X80839014Y-29239294D01*
X80774477Y-29204799D01*
X80891355Y-29135178D01*
X81107588Y-28940269D01*
X81281641Y-28706920D01*
X81406825Y-28444099D01*
X81451476Y-28296890D01*
X81330155Y-28067000D01*
X80137000Y-28067000D01*
X80137000Y-28087000D01*
X79883000Y-28087000D01*
X79883000Y-28067000D01*
X79863000Y-28067000D01*
X79863000Y-27813000D01*
X79883000Y-27813000D01*
X79883000Y-27793000D01*
X80137000Y-27793000D01*
X80137000Y-27813000D01*
X81330155Y-27813000D01*
X81451476Y-27583110D01*
X81406825Y-27435901D01*
X81281641Y-27173080D01*
X81107588Y-26939731D01*
X80891355Y-26744822D01*
X80774477Y-26675201D01*
X80839014Y-26640706D01*
X81065134Y-26455134D01*
X81250706Y-26229014D01*
X81388599Y-25971034D01*
X81473513Y-25691111D01*
X81502185Y-25400000D01*
X81491175Y-25288212D01*
X109355000Y-25288212D01*
X109355000Y-25511788D01*
X109398617Y-25731067D01*
X109475000Y-25915471D01*
X109475001Y-65990137D01*
X109475000Y-68064528D01*
X109398617Y-68248933D01*
X109355000Y-68468212D01*
X109355000Y-68691788D01*
X109398617Y-68911067D01*
X109484176Y-69117624D01*
X109608388Y-69303520D01*
X109766480Y-69461612D01*
X109952376Y-69585824D01*
X110158933Y-69671383D01*
X110378212Y-69715000D01*
X110601788Y-69715000D01*
X110821067Y-69671383D01*
X111027624Y-69585824D01*
X111213520Y-69461612D01*
X111371612Y-69303520D01*
X111495824Y-69117624D01*
X111581383Y-68911067D01*
X111625000Y-68691788D01*
X111625000Y-68468212D01*
X111581383Y-68248933D01*
X111505000Y-68064529D01*
X111505000Y-65928212D01*
X115705000Y-65928212D01*
X115705000Y-66151788D01*
X115748617Y-66371067D01*
X115825000Y-66555471D01*
X115825001Y-78224526D01*
X115748617Y-78408933D01*
X115705000Y-78628212D01*
X115705000Y-78851788D01*
X115748617Y-79071067D01*
X115834176Y-79277624D01*
X115958388Y-79463520D01*
X116116480Y-79621612D01*
X116302376Y-79745824D01*
X116508933Y-79831383D01*
X116728212Y-79875000D01*
X116951788Y-79875000D01*
X117171067Y-79831383D01*
X117377624Y-79745824D01*
X117563520Y-79621612D01*
X117721612Y-79463520D01*
X117845824Y-79277624D01*
X117931383Y-79071067D01*
X117975000Y-78851788D01*
X117975000Y-78628212D01*
X117931383Y-78408933D01*
X117881379Y-78288212D01*
X122055000Y-78288212D01*
X122055000Y-78511788D01*
X122098617Y-78731067D01*
X122184176Y-78937624D01*
X122308388Y-79123520D01*
X122466480Y-79281612D01*
X122652376Y-79405824D01*
X122858933Y-79491383D01*
X123078212Y-79535000D01*
X123301788Y-79535000D01*
X123521067Y-79491383D01*
X123727624Y-79405824D01*
X123913520Y-79281612D01*
X124071612Y-79123520D01*
X124195824Y-78937624D01*
X124281383Y-78731067D01*
X124325000Y-78511788D01*
X124325000Y-78288212D01*
X124281383Y-78068933D01*
X124195824Y-77862376D01*
X124071612Y-77676480D01*
X123913520Y-77518388D01*
X123727624Y-77394176D01*
X123521067Y-77308617D01*
X123301788Y-77265000D01*
X123078212Y-77265000D01*
X122858933Y-77308617D01*
X122652376Y-77394176D01*
X122466480Y-77518388D01*
X122308388Y-77676480D01*
X122184176Y-77862376D01*
X122098617Y-78068933D01*
X122055000Y-78288212D01*
X117881379Y-78288212D01*
X117855000Y-78224529D01*
X117855000Y-73888212D01*
X122055000Y-73888212D01*
X122055000Y-74111788D01*
X122098617Y-74331067D01*
X122184176Y-74537624D01*
X122308388Y-74723520D01*
X122466480Y-74881612D01*
X122652376Y-75005824D01*
X122858933Y-75091383D01*
X123078212Y-75135000D01*
X123301788Y-75135000D01*
X123521067Y-75091383D01*
X123727624Y-75005824D01*
X123913520Y-74881612D01*
X124071612Y-74723520D01*
X124195824Y-74537624D01*
X124281383Y-74331067D01*
X124325000Y-74111788D01*
X124325000Y-73888212D01*
X124281383Y-73668933D01*
X124195824Y-73462376D01*
X124071612Y-73276480D01*
X123913520Y-73118388D01*
X123727624Y-72994176D01*
X123521067Y-72908617D01*
X123301788Y-72865000D01*
X123078212Y-72865000D01*
X122858933Y-72908617D01*
X122652376Y-72994176D01*
X122466480Y-73118388D01*
X122308388Y-73276480D01*
X122184176Y-73462376D01*
X122098617Y-73668933D01*
X122055000Y-73888212D01*
X117855000Y-73888212D01*
X117855000Y-66555471D01*
X117931383Y-66371067D01*
X117975000Y-66151788D01*
X117975000Y-65928212D01*
X117931383Y-65708933D01*
X117845824Y-65502376D01*
X117721612Y-65316480D01*
X117563520Y-65158388D01*
X117377624Y-65034176D01*
X117171067Y-64948617D01*
X116951788Y-64905000D01*
X116728212Y-64905000D01*
X116508933Y-64948617D01*
X116302376Y-65034176D01*
X116116480Y-65158388D01*
X115958388Y-65316480D01*
X115834176Y-65502376D01*
X115748617Y-65708933D01*
X115705000Y-65928212D01*
X111505000Y-65928212D01*
X111505000Y-63856891D01*
X120478519Y-63856891D01*
X120575843Y-64131252D01*
X120724822Y-64381355D01*
X120919731Y-64597588D01*
X121153080Y-64771641D01*
X121415901Y-64896825D01*
X121563110Y-64941476D01*
X121793000Y-64820155D01*
X121793000Y-63627000D01*
X120599186Y-63627000D01*
X120478519Y-63856891D01*
X111505000Y-63856891D01*
X111505000Y-63143109D01*
X120478519Y-63143109D01*
X120599186Y-63373000D01*
X121793000Y-63373000D01*
X121793000Y-62179845D01*
X122047000Y-62179845D01*
X122047000Y-63373000D01*
X122067000Y-63373000D01*
X122067000Y-63627000D01*
X122047000Y-63627000D01*
X122047000Y-64820155D01*
X122276890Y-64941476D01*
X122424099Y-64896825D01*
X122686920Y-64771641D01*
X122920269Y-64597588D01*
X122996034Y-64513534D01*
X123020498Y-64594180D01*
X123079463Y-64704494D01*
X123158815Y-64801185D01*
X123255506Y-64880537D01*
X123365820Y-64939502D01*
X123485518Y-64975812D01*
X123610000Y-64988072D01*
X125310000Y-64988072D01*
X125434482Y-64975812D01*
X125554180Y-64939502D01*
X125664494Y-64880537D01*
X125761185Y-64801185D01*
X125840537Y-64704494D01*
X125899502Y-64594180D01*
X125935812Y-64474482D01*
X125948072Y-64350000D01*
X125948072Y-62650000D01*
X125935812Y-62525518D01*
X125899502Y-62405820D01*
X125840537Y-62295506D01*
X125761185Y-62198815D01*
X125664494Y-62119463D01*
X125554180Y-62060498D01*
X125434482Y-62024188D01*
X125310000Y-62011928D01*
X123610000Y-62011928D01*
X123485518Y-62024188D01*
X123365820Y-62060498D01*
X123255506Y-62119463D01*
X123158815Y-62198815D01*
X123079463Y-62295506D01*
X123020498Y-62405820D01*
X122996034Y-62486466D01*
X122920269Y-62402412D01*
X122686920Y-62228359D01*
X122424099Y-62103175D01*
X122276890Y-62058524D01*
X122047000Y-62179845D01*
X121793000Y-62179845D01*
X121563110Y-62058524D01*
X121415901Y-62103175D01*
X121153080Y-62228359D01*
X120919731Y-62402412D01*
X120724822Y-62618645D01*
X120575843Y-62868748D01*
X120478519Y-63143109D01*
X111505000Y-63143109D01*
X111505000Y-54920324D01*
X121555000Y-54920324D01*
X121555000Y-55419676D01*
X121652418Y-55909432D01*
X121843512Y-56370773D01*
X122120937Y-56785968D01*
X122474032Y-57139063D01*
X122889227Y-57416488D01*
X123350568Y-57607582D01*
X123840324Y-57705000D01*
X124339676Y-57705000D01*
X124829432Y-57607582D01*
X125290773Y-57416488D01*
X125705968Y-57139063D01*
X126059063Y-56785968D01*
X126336488Y-56370773D01*
X126527582Y-55909432D01*
X126625000Y-55419676D01*
X126625000Y-54920324D01*
X126527582Y-54430568D01*
X126336488Y-53969227D01*
X126059063Y-53554032D01*
X125705968Y-53200937D01*
X125290773Y-52923512D01*
X124829432Y-52732418D01*
X124339676Y-52635000D01*
X123840324Y-52635000D01*
X123350568Y-52732418D01*
X122889227Y-52923512D01*
X122474032Y-53200937D01*
X122120937Y-53554032D01*
X121843512Y-53969227D01*
X121652418Y-54430568D01*
X121555000Y-54920324D01*
X111505000Y-54920324D01*
X111505000Y-25915471D01*
X111581383Y-25731067D01*
X111625000Y-25511788D01*
X111625000Y-25288212D01*
X111581383Y-25068933D01*
X111495824Y-24862376D01*
X111371612Y-24676480D01*
X111213520Y-24518388D01*
X111027624Y-24394176D01*
X110821067Y-24308617D01*
X110601788Y-24265000D01*
X110378212Y-24265000D01*
X110158933Y-24308617D01*
X109952376Y-24394176D01*
X109766480Y-24518388D01*
X109608388Y-24676480D01*
X109484176Y-24862376D01*
X109398617Y-25068933D01*
X109355000Y-25288212D01*
X81491175Y-25288212D01*
X81473513Y-25108889D01*
X81388599Y-24828966D01*
X81250706Y-24570986D01*
X81065134Y-24344866D01*
X80839014Y-24159294D01*
X80784209Y-24130000D01*
X80839014Y-24100706D01*
X81065134Y-23915134D01*
X81250706Y-23689014D01*
X81388599Y-23431034D01*
X81473513Y-23151111D01*
X81502185Y-22860000D01*
X81473513Y-22568889D01*
X81388599Y-22288966D01*
X81250706Y-22030986D01*
X81065134Y-21804866D01*
X80839014Y-21619294D01*
X80581034Y-21481401D01*
X80301111Y-21396487D01*
X80082950Y-21375000D01*
X79937050Y-21375000D01*
X79718889Y-21396487D01*
X79438966Y-21481401D01*
X79180986Y-21619294D01*
X78954866Y-21804866D01*
X78930393Y-21834687D01*
X78909502Y-21765820D01*
X78850537Y-21655506D01*
X78771185Y-21558815D01*
X78674494Y-21479463D01*
X78564180Y-21420498D01*
X78444482Y-21384188D01*
X78320000Y-21371928D01*
X76620000Y-21371928D01*
X76495518Y-21384188D01*
X76375820Y-21420498D01*
X76265506Y-21479463D01*
X76168815Y-21558815D01*
X76089463Y-21655506D01*
X76030498Y-21765820D01*
X75994188Y-21885518D01*
X75981928Y-22010000D01*
X75981928Y-23710000D01*
X75994188Y-23834482D01*
X76030498Y-23954180D01*
X76089463Y-24064494D01*
X76168815Y-24161185D01*
X76265506Y-24240537D01*
X76375820Y-24299502D01*
X76444687Y-24320393D01*
X76414866Y-24344866D01*
X76229294Y-24570986D01*
X76091401Y-24828966D01*
X76006487Y-25108889D01*
X75977815Y-25400000D01*
X17907000Y-25400000D01*
X17907000Y-17900324D01*
X18915000Y-17900324D01*
X18915000Y-18399676D01*
X19012418Y-18889432D01*
X19203512Y-19350773D01*
X19480937Y-19765968D01*
X19834032Y-20119063D01*
X20249227Y-20396488D01*
X20710568Y-20587582D01*
X21200324Y-20685000D01*
X21699676Y-20685000D01*
X22189432Y-20587582D01*
X22650773Y-20396488D01*
X23065968Y-20119063D01*
X23419063Y-19765968D01*
X23696488Y-19350773D01*
X23887582Y-18889432D01*
X23985000Y-18399676D01*
X23985000Y-17900324D01*
X67915000Y-17900324D01*
X67915000Y-18399676D01*
X68012418Y-18889432D01*
X68203512Y-19350773D01*
X68480937Y-19765968D01*
X68834032Y-20119063D01*
X69249227Y-20396488D01*
X69710568Y-20587582D01*
X70200324Y-20685000D01*
X70699676Y-20685000D01*
X71189432Y-20587582D01*
X71650773Y-20396488D01*
X72065968Y-20119063D01*
X72419063Y-19765968D01*
X72696488Y-19350773D01*
X72887582Y-18889432D01*
X72985000Y-18399676D01*
X72985000Y-17920324D01*
X84555000Y-17920324D01*
X84555000Y-18419676D01*
X84652418Y-18909432D01*
X84843512Y-19370773D01*
X85120937Y-19785968D01*
X85474032Y-20139063D01*
X85889227Y-20416488D01*
X86350568Y-20607582D01*
X86840324Y-20705000D01*
X87339676Y-20705000D01*
X87829432Y-20607582D01*
X88290773Y-20416488D01*
X88705968Y-20139063D01*
X89059063Y-19785968D01*
X89336488Y-19370773D01*
X89527582Y-18909432D01*
X89625000Y-18419676D01*
X89625000Y-17920324D01*
X121555000Y-17920324D01*
X121555000Y-18419676D01*
X121652418Y-18909432D01*
X121843512Y-19370773D01*
X122120937Y-19785968D01*
X122474032Y-20139063D01*
X122889227Y-20416488D01*
X123350568Y-20607582D01*
X123840324Y-20705000D01*
X124339676Y-20705000D01*
X124829432Y-20607582D01*
X125290773Y-20416488D01*
X125705968Y-20139063D01*
X126059063Y-19785968D01*
X126336488Y-19370773D01*
X126527582Y-18909432D01*
X126625000Y-18419676D01*
X126625000Y-17920324D01*
X126527582Y-17430568D01*
X126336488Y-16969227D01*
X126059063Y-16554032D01*
X125705968Y-16200937D01*
X125290773Y-15923512D01*
X124829432Y-15732418D01*
X124339676Y-15635000D01*
X123840324Y-15635000D01*
X123350568Y-15732418D01*
X122889227Y-15923512D01*
X122474032Y-16200937D01*
X122120937Y-16554032D01*
X121843512Y-16969227D01*
X121652418Y-17430568D01*
X121555000Y-17920324D01*
X89625000Y-17920324D01*
X89527582Y-17430568D01*
X89336488Y-16969227D01*
X89059063Y-16554032D01*
X88705968Y-16200937D01*
X88290773Y-15923512D01*
X87829432Y-15732418D01*
X87339676Y-15635000D01*
X86840324Y-15635000D01*
X86350568Y-15732418D01*
X85889227Y-15923512D01*
X85474032Y-16200937D01*
X85120937Y-16554032D01*
X84843512Y-16969227D01*
X84652418Y-17430568D01*
X84555000Y-17920324D01*
X72985000Y-17920324D01*
X72985000Y-17900324D01*
X72887582Y-17410568D01*
X72696488Y-16949227D01*
X72419063Y-16534032D01*
X72065968Y-16180937D01*
X71650773Y-15903512D01*
X71189432Y-15712418D01*
X70699676Y-15615000D01*
X70200324Y-15615000D01*
X69710568Y-15712418D01*
X69249227Y-15903512D01*
X68834032Y-16180937D01*
X68480937Y-16534032D01*
X68203512Y-16949227D01*
X68012418Y-17410568D01*
X67915000Y-17900324D01*
X23985000Y-17900324D01*
X23887582Y-17410568D01*
X23696488Y-16949227D01*
X23419063Y-16534032D01*
X23065968Y-16180937D01*
X22650773Y-15903512D01*
X22189432Y-15712418D01*
X21699676Y-15615000D01*
X21200324Y-15615000D01*
X20710568Y-15712418D01*
X20249227Y-15903512D01*
X19834032Y-16180937D01*
X19480937Y-16534032D01*
X19203512Y-16949227D01*
X19012418Y-17410568D01*
X18915000Y-17900324D01*
X17907000Y-17900324D01*
X17907000Y-15367000D01*
X129413000Y-15367000D01*
X129413000Y-135763000D01*
M02*
