M48
; DRILL file {KiCad (5.1.2)-1} date 2019-07-09 2:17:36 AM
; FORMAT={-:-/ absolute / inch / decimal}
; #@! TF.CreationDate,2019-07-09T02:17:36-04:00
; #@! TF.GenerationSoftware,Kicad,Pcbnew,(5.1.2)-1
; #@! TF.FileFunction,Plated,1,2,PTH
FMAT,2
INCH
T1C0.0197
T2C0.0354
T3C0.0394
T4C0.0866
%
G90
G05
T1
X2.35Y-1.4
X2.35Y-3.45
X2.45Y-1.5
X2.45Y-3.35
X2.6Y-1.6
X2.6Y-3.25
X3.25Y-1.8
X3.25Y-3.75
X3.35Y-2.4
X3.35Y-3.55
X3.4Y-1.6
X3.4Y-2.65
X3.45Y-2.5
X3.45Y-3.65
X3.55Y-2.4
X3.55Y-3.6
X3.65Y-1.3
X3.65Y-3.6
X3.7Y-3.15
X3.75Y-1.7
X3.75Y-2.4
X3.8Y-1.1
X3.9Y-2.6
X3.95Y-3.6
X4.05Y-2.75
X4.05Y-3.45
X4.1Y-1.4
X4.2465Y-2.9535
X4.35Y-1.0
X4.35Y-2.7
X4.35Y-2.95
X4.5Y-2.75
X4.55Y-3.5
X4.6Y-2.6
X4.6Y-3.1
T2
X3.75Y-3.3
X3.85Y-3.3
X4.3Y-3.3
X4.4Y-3.3
T3
X4.1Y-3.75
X4.2Y-3.75
X4.3Y-3.75
X3.05Y-0.9
X3.05Y-1.0
X3.05Y-1.1
X3.05Y-1.2
X3.05Y-1.3
X3.05Y-1.4
X3.05Y-1.5
X3.05Y-1.6
X3.05Y-1.7
X3.05Y-1.8
X3.05Y-1.9
X3.05Y-2.0
X3.05Y-2.1
X3.05Y-2.2
X3.05Y-2.3
X3.05Y-2.4
X3.05Y-2.5
X3.05Y-2.6
X3.05Y-2.7
X3.05Y-2.8
X3.15Y-0.9
X3.15Y-1.0
X3.15Y-1.1
X3.15Y-1.2
X3.15Y-1.3
X3.15Y-1.4
X3.15Y-1.5
X3.15Y-1.6
X3.15Y-1.7
X3.15Y-1.8
X3.15Y-1.9
X3.15Y-2.0
X3.15Y-2.1
X3.15Y-2.2
X3.15Y-2.3
X3.15Y-2.4
X3.15Y-2.5
X3.15Y-2.6
X3.15Y-2.7
X3.15Y-2.8
X3.6Y-3.75
X3.7Y-3.75
X3.8Y-3.75
X4.8Y-2.5
X4.9Y-2.5
X3.1Y-3.25
X3.1Y-3.35
X3.1Y-3.45
X3.1Y-3.55
X3.1Y-3.65
X3.1Y-3.75
T4
X2.7736Y-2.998
X4.8854Y-2.172
X2.4807Y-4.1374
X2.7736Y-0.7146
X3.4287Y-0.7154
X3.7012Y-4.1374
X2.4807Y-5.2004
X0.8445Y-0.7146
X3.7012Y-5.2004
X3.4287Y-2.172
X0.8445Y-2.998
X4.8854Y-0.7154
T0
M30
